<?xml version="1.0" encoding="utf-8" standalone="no"?>
<!DOCTYPE svg PUBLIC "-//W3C//DTD SVG 1.1//EN"
  "http://www.w3.org/Graphics/SVG/1.1/DTD/svg11.dtd">
<svg xmlns:xlink="http://www.w3.org/1999/xlink" width="460.8pt" height="345.6pt" viewBox="0 0 460.8 345.6" xmlns="http://www.w3.org/2000/svg" version="1.1">
 <metadata>
  <rdf:RDF xmlns:dc="http://purl.org/dc/elements/1.1/" xmlns:cc="http://creativecommons.org/ns#" xmlns:rdf="http://www.w3.org/1999/02/22-rdf-syntax-ns#">
   <cc:Work>
    <dc:type rdf:resource="http://purl.org/dc/dcmitype/StillImage"/>
    <dc:date>2024-11-15T05:10:34.569115</dc:date>
    <dc:format>image/svg+xml</dc:format>
    <dc:creator>
     <cc:Agent>
      <dc:title>Matplotlib v3.9.2, https://matplotlib.org/</dc:title>
     </cc:Agent>
    </dc:creator>
   </cc:Work>
  </rdf:RDF>
 </metadata>
 <defs>
  <style type="text/css">*{stroke-linejoin: round; stroke-linecap: butt}</style>
 </defs>
 <g id="figure_1">
  <g id="patch_1">
   <path d="M 0 345.6 
L 460.8 345.6 
L 460.8 0 
L 0 0 
z
" style="fill: #ffffff"/>
  </g>
  <g id="axes_1">
   <g id="patch_2">
    <path d="M 57.6 307.584 
L 414.72 307.584 
L 414.72 41.472 
L 57.6 41.472 
z
" style="fill: #ffffff"/>
   </g>
   <g id="matplotlib.axis_1">
    <g id="xtick_1">
     <g id="line2d_1">
      <path d="M 73.832727 307.584 
L 73.832727 41.472 
" clip-path="url(#p75ec35f1fb)" style="fill: none; stroke: #b0b0b0; stroke-width: 0.8; stroke-linecap: square"/>
     </g>
     <g id="line2d_2">
      <defs>
       <path id="m36a672a171" d="M 0 0 
L 0 3.5 
" style="stroke: #000000; stroke-width: 0.8"/>
      </defs>
      <g>
       <use xlink:href="#m36a672a171" x="73.832727" y="307.584" style="stroke: #000000; stroke-width: 0.8"/>
      </g>
     </g>
     <g id="text_1">
      <!-- 1000 -->
      <g transform="translate(61.107727 322.182437) scale(0.1 -0.1)">
       <defs>
        <path id="DejaVuSans-31" d="M 794 531 
L 1825 531 
L 1825 4091 
L 703 3866 
L 703 4441 
L 1819 4666 
L 2450 4666 
L 2450 531 
L 3481 531 
L 3481 0 
L 794 0 
L 794 531 
z
" transform="scale(0.015625)"/>
        <path id="DejaVuSans-30" d="M 2034 4250 
Q 1547 4250 1301 3770 
Q 1056 3291 1056 2328 
Q 1056 1369 1301 889 
Q 1547 409 2034 409 
Q 2525 409 2770 889 
Q 3016 1369 3016 2328 
Q 3016 3291 2770 3770 
Q 2525 4250 2034 4250 
z
M 2034 4750 
Q 2819 4750 3233 4129 
Q 3647 3509 3647 2328 
Q 3647 1150 3233 529 
Q 2819 -91 2034 -91 
Q 1250 -91 836 529 
Q 422 1150 422 2328 
Q 422 3509 836 4129 
Q 1250 4750 2034 4750 
z
" transform="scale(0.015625)"/>
       </defs>
       <use xlink:href="#DejaVuSans-31"/>
       <use xlink:href="#DejaVuSans-30" x="63.623047"/>
       <use xlink:href="#DejaVuSans-30" x="127.246094"/>
       <use xlink:href="#DejaVuSans-30" x="190.869141"/>
      </g>
     </g>
    </g>
    <g id="xtick_2">
     <g id="line2d_3">
      <path d="M 114.414545 307.584 
L 114.414545 41.472 
" clip-path="url(#p75ec35f1fb)" style="fill: none; stroke: #b0b0b0; stroke-width: 0.8; stroke-linecap: square"/>
     </g>
     <g id="line2d_4">
      <g>
       <use xlink:href="#m36a672a171" x="114.414545" y="307.584" style="stroke: #000000; stroke-width: 0.8"/>
      </g>
     </g>
     <g id="text_2">
      <!-- 1250 -->
      <g transform="translate(101.689545 322.182437) scale(0.1 -0.1)">
       <defs>
        <path id="DejaVuSans-32" d="M 1228 531 
L 3431 531 
L 3431 0 
L 469 0 
L 469 531 
Q 828 903 1448 1529 
Q 2069 2156 2228 2338 
Q 2531 2678 2651 2914 
Q 2772 3150 2772 3378 
Q 2772 3750 2511 3984 
Q 2250 4219 1831 4219 
Q 1534 4219 1204 4116 
Q 875 4013 500 3803 
L 500 4441 
Q 881 4594 1212 4672 
Q 1544 4750 1819 4750 
Q 2544 4750 2975 4387 
Q 3406 4025 3406 3419 
Q 3406 3131 3298 2873 
Q 3191 2616 2906 2266 
Q 2828 2175 2409 1742 
Q 1991 1309 1228 531 
z
" transform="scale(0.015625)"/>
        <path id="DejaVuSans-35" d="M 691 4666 
L 3169 4666 
L 3169 4134 
L 1269 4134 
L 1269 2991 
Q 1406 3038 1543 3061 
Q 1681 3084 1819 3084 
Q 2600 3084 3056 2656 
Q 3513 2228 3513 1497 
Q 3513 744 3044 326 
Q 2575 -91 1722 -91 
Q 1428 -91 1123 -41 
Q 819 9 494 109 
L 494 744 
Q 775 591 1075 516 
Q 1375 441 1709 441 
Q 2250 441 2565 725 
Q 2881 1009 2881 1497 
Q 2881 1984 2565 2268 
Q 2250 2553 1709 2553 
Q 1456 2553 1204 2497 
Q 953 2441 691 2322 
L 691 4666 
z
" transform="scale(0.015625)"/>
       </defs>
       <use xlink:href="#DejaVuSans-31"/>
       <use xlink:href="#DejaVuSans-32" x="63.623047"/>
       <use xlink:href="#DejaVuSans-35" x="127.246094"/>
       <use xlink:href="#DejaVuSans-30" x="190.869141"/>
      </g>
     </g>
    </g>
    <g id="xtick_3">
     <g id="line2d_5">
      <path d="M 154.996364 307.584 
L 154.996364 41.472 
" clip-path="url(#p75ec35f1fb)" style="fill: none; stroke: #b0b0b0; stroke-width: 0.8; stroke-linecap: square"/>
     </g>
     <g id="line2d_6">
      <g>
       <use xlink:href="#m36a672a171" x="154.996364" y="307.584" style="stroke: #000000; stroke-width: 0.8"/>
      </g>
     </g>
     <g id="text_3">
      <!-- 1500 -->
      <g transform="translate(142.271364 322.182437) scale(0.1 -0.1)">
       <use xlink:href="#DejaVuSans-31"/>
       <use xlink:href="#DejaVuSans-35" x="63.623047"/>
       <use xlink:href="#DejaVuSans-30" x="127.246094"/>
       <use xlink:href="#DejaVuSans-30" x="190.869141"/>
      </g>
     </g>
    </g>
    <g id="xtick_4">
     <g id="line2d_7">
      <path d="M 195.578182 307.584 
L 195.578182 41.472 
" clip-path="url(#p75ec35f1fb)" style="fill: none; stroke: #b0b0b0; stroke-width: 0.8; stroke-linecap: square"/>
     </g>
     <g id="line2d_8">
      <g>
       <use xlink:href="#m36a672a171" x="195.578182" y="307.584" style="stroke: #000000; stroke-width: 0.8"/>
      </g>
     </g>
     <g id="text_4">
      <!-- 1750 -->
      <g transform="translate(182.853182 322.182437) scale(0.1 -0.1)">
       <defs>
        <path id="DejaVuSans-37" d="M 525 4666 
L 3525 4666 
L 3525 4397 
L 1831 0 
L 1172 0 
L 2766 4134 
L 525 4134 
L 525 4666 
z
" transform="scale(0.015625)"/>
       </defs>
       <use xlink:href="#DejaVuSans-31"/>
       <use xlink:href="#DejaVuSans-37" x="63.623047"/>
       <use xlink:href="#DejaVuSans-35" x="127.246094"/>
       <use xlink:href="#DejaVuSans-30" x="190.869141"/>
      </g>
     </g>
    </g>
    <g id="xtick_5">
     <g id="line2d_9">
      <path d="M 236.16 307.584 
L 236.16 41.472 
" clip-path="url(#p75ec35f1fb)" style="fill: none; stroke: #b0b0b0; stroke-width: 0.8; stroke-linecap: square"/>
     </g>
     <g id="line2d_10">
      <g>
       <use xlink:href="#m36a672a171" x="236.16" y="307.584" style="stroke: #000000; stroke-width: 0.8"/>
      </g>
     </g>
     <g id="text_5">
      <!-- 2000 -->
      <g transform="translate(223.435 322.182437) scale(0.1 -0.1)">
       <use xlink:href="#DejaVuSans-32"/>
       <use xlink:href="#DejaVuSans-30" x="63.623047"/>
       <use xlink:href="#DejaVuSans-30" x="127.246094"/>
       <use xlink:href="#DejaVuSans-30" x="190.869141"/>
      </g>
     </g>
    </g>
    <g id="xtick_6">
     <g id="line2d_11">
      <path d="M 276.741818 307.584 
L 276.741818 41.472 
" clip-path="url(#p75ec35f1fb)" style="fill: none; stroke: #b0b0b0; stroke-width: 0.8; stroke-linecap: square"/>
     </g>
     <g id="line2d_12">
      <g>
       <use xlink:href="#m36a672a171" x="276.741818" y="307.584" style="stroke: #000000; stroke-width: 0.8"/>
      </g>
     </g>
     <g id="text_6">
      <!-- 2250 -->
      <g transform="translate(264.016818 322.182437) scale(0.1 -0.1)">
       <use xlink:href="#DejaVuSans-32"/>
       <use xlink:href="#DejaVuSans-32" x="63.623047"/>
       <use xlink:href="#DejaVuSans-35" x="127.246094"/>
       <use xlink:href="#DejaVuSans-30" x="190.869141"/>
      </g>
     </g>
    </g>
    <g id="xtick_7">
     <g id="line2d_13">
      <path d="M 317.323636 307.584 
L 317.323636 41.472 
" clip-path="url(#p75ec35f1fb)" style="fill: none; stroke: #b0b0b0; stroke-width: 0.8; stroke-linecap: square"/>
     </g>
     <g id="line2d_14">
      <g>
       <use xlink:href="#m36a672a171" x="317.323636" y="307.584" style="stroke: #000000; stroke-width: 0.8"/>
      </g>
     </g>
     <g id="text_7">
      <!-- 2500 -->
      <g transform="translate(304.598636 322.182437) scale(0.1 -0.1)">
       <use xlink:href="#DejaVuSans-32"/>
       <use xlink:href="#DejaVuSans-35" x="63.623047"/>
       <use xlink:href="#DejaVuSans-30" x="127.246094"/>
       <use xlink:href="#DejaVuSans-30" x="190.869141"/>
      </g>
     </g>
    </g>
    <g id="xtick_8">
     <g id="line2d_15">
      <path d="M 357.905455 307.584 
L 357.905455 41.472 
" clip-path="url(#p75ec35f1fb)" style="fill: none; stroke: #b0b0b0; stroke-width: 0.8; stroke-linecap: square"/>
     </g>
     <g id="line2d_16">
      <g>
       <use xlink:href="#m36a672a171" x="357.905455" y="307.584" style="stroke: #000000; stroke-width: 0.8"/>
      </g>
     </g>
     <g id="text_8">
      <!-- 2750 -->
      <g transform="translate(345.180455 322.182437) scale(0.1 -0.1)">
       <use xlink:href="#DejaVuSans-32"/>
       <use xlink:href="#DejaVuSans-37" x="63.623047"/>
       <use xlink:href="#DejaVuSans-35" x="127.246094"/>
       <use xlink:href="#DejaVuSans-30" x="190.869141"/>
      </g>
     </g>
    </g>
    <g id="xtick_9">
     <g id="line2d_17">
      <path d="M 398.487273 307.584 
L 398.487273 41.472 
" clip-path="url(#p75ec35f1fb)" style="fill: none; stroke: #b0b0b0; stroke-width: 0.8; stroke-linecap: square"/>
     </g>
     <g id="line2d_18">
      <g>
       <use xlink:href="#m36a672a171" x="398.487273" y="307.584" style="stroke: #000000; stroke-width: 0.8"/>
      </g>
     </g>
     <g id="text_9">
      <!-- 3000 -->
      <g transform="translate(385.762273 322.182437) scale(0.1 -0.1)">
       <defs>
        <path id="DejaVuSans-33" d="M 2597 2516 
Q 3050 2419 3304 2112 
Q 3559 1806 3559 1356 
Q 3559 666 3084 287 
Q 2609 -91 1734 -91 
Q 1441 -91 1130 -33 
Q 819 25 488 141 
L 488 750 
Q 750 597 1062 519 
Q 1375 441 1716 441 
Q 2309 441 2620 675 
Q 2931 909 2931 1356 
Q 2931 1769 2642 2001 
Q 2353 2234 1838 2234 
L 1294 2234 
L 1294 2753 
L 1863 2753 
Q 2328 2753 2575 2939 
Q 2822 3125 2822 3475 
Q 2822 3834 2567 4026 
Q 2313 4219 1838 4219 
Q 1578 4219 1281 4162 
Q 984 4106 628 3988 
L 628 4550 
Q 988 4650 1302 4700 
Q 1616 4750 1894 4750 
Q 2613 4750 3031 4423 
Q 3450 4097 3450 3541 
Q 3450 3153 3228 2886 
Q 3006 2619 2597 2516 
z
" transform="scale(0.015625)"/>
       </defs>
       <use xlink:href="#DejaVuSans-33"/>
       <use xlink:href="#DejaVuSans-30" x="63.623047"/>
       <use xlink:href="#DejaVuSans-30" x="127.246094"/>
       <use xlink:href="#DejaVuSans-30" x="190.869141"/>
      </g>
     </g>
    </g>
    <g id="text_10">
     <!-- frequency (MHz) -->
     <g transform="translate(194.894375 335.860562) scale(0.1 -0.1)">
      <defs>
       <path id="DejaVuSans-66" d="M 2375 4863 
L 2375 4384 
L 1825 4384 
Q 1516 4384 1395 4259 
Q 1275 4134 1275 3809 
L 1275 3500 
L 2222 3500 
L 2222 3053 
L 1275 3053 
L 1275 0 
L 697 0 
L 697 3053 
L 147 3053 
L 147 3500 
L 697 3500 
L 697 3744 
Q 697 4328 969 4595 
Q 1241 4863 1831 4863 
L 2375 4863 
z
" transform="scale(0.015625)"/>
       <path id="DejaVuSans-72" d="M 2631 2963 
Q 2534 3019 2420 3045 
Q 2306 3072 2169 3072 
Q 1681 3072 1420 2755 
Q 1159 2438 1159 1844 
L 1159 0 
L 581 0 
L 581 3500 
L 1159 3500 
L 1159 2956 
Q 1341 3275 1631 3429 
Q 1922 3584 2338 3584 
Q 2397 3584 2469 3576 
Q 2541 3569 2628 3553 
L 2631 2963 
z
" transform="scale(0.015625)"/>
       <path id="DejaVuSans-65" d="M 3597 1894 
L 3597 1613 
L 953 1613 
Q 991 1019 1311 708 
Q 1631 397 2203 397 
Q 2534 397 2845 478 
Q 3156 559 3463 722 
L 3463 178 
Q 3153 47 2828 -22 
Q 2503 -91 2169 -91 
Q 1331 -91 842 396 
Q 353 884 353 1716 
Q 353 2575 817 3079 
Q 1281 3584 2069 3584 
Q 2775 3584 3186 3129 
Q 3597 2675 3597 1894 
z
M 3022 2063 
Q 3016 2534 2758 2815 
Q 2500 3097 2075 3097 
Q 1594 3097 1305 2825 
Q 1016 2553 972 2059 
L 3022 2063 
z
" transform="scale(0.015625)"/>
       <path id="DejaVuSans-71" d="M 947 1747 
Q 947 1113 1208 752 
Q 1469 391 1925 391 
Q 2381 391 2643 752 
Q 2906 1113 2906 1747 
Q 2906 2381 2643 2742 
Q 2381 3103 1925 3103 
Q 1469 3103 1208 2742 
Q 947 2381 947 1747 
z
M 2906 525 
Q 2725 213 2448 61 
Q 2172 -91 1784 -91 
Q 1150 -91 751 415 
Q 353 922 353 1747 
Q 353 2572 751 3078 
Q 1150 3584 1784 3584 
Q 2172 3584 2448 3432 
Q 2725 3281 2906 2969 
L 2906 3500 
L 3481 3500 
L 3481 -1331 
L 2906 -1331 
L 2906 525 
z
" transform="scale(0.015625)"/>
       <path id="DejaVuSans-75" d="M 544 1381 
L 544 3500 
L 1119 3500 
L 1119 1403 
Q 1119 906 1312 657 
Q 1506 409 1894 409 
Q 2359 409 2629 706 
Q 2900 1003 2900 1516 
L 2900 3500 
L 3475 3500 
L 3475 0 
L 2900 0 
L 2900 538 
Q 2691 219 2414 64 
Q 2138 -91 1772 -91 
Q 1169 -91 856 284 
Q 544 659 544 1381 
z
M 1991 3584 
L 1991 3584 
z
" transform="scale(0.015625)"/>
       <path id="DejaVuSans-6e" d="M 3513 2113 
L 3513 0 
L 2938 0 
L 2938 2094 
Q 2938 2591 2744 2837 
Q 2550 3084 2163 3084 
Q 1697 3084 1428 2787 
Q 1159 2491 1159 1978 
L 1159 0 
L 581 0 
L 581 3500 
L 1159 3500 
L 1159 2956 
Q 1366 3272 1645 3428 
Q 1925 3584 2291 3584 
Q 2894 3584 3203 3211 
Q 3513 2838 3513 2113 
z
" transform="scale(0.015625)"/>
       <path id="DejaVuSans-63" d="M 3122 3366 
L 3122 2828 
Q 2878 2963 2633 3030 
Q 2388 3097 2138 3097 
Q 1578 3097 1268 2742 
Q 959 2388 959 1747 
Q 959 1106 1268 751 
Q 1578 397 2138 397 
Q 2388 397 2633 464 
Q 2878 531 3122 666 
L 3122 134 
Q 2881 22 2623 -34 
Q 2366 -91 2075 -91 
Q 1284 -91 818 406 
Q 353 903 353 1747 
Q 353 2603 823 3093 
Q 1294 3584 2113 3584 
Q 2378 3584 2631 3529 
Q 2884 3475 3122 3366 
z
" transform="scale(0.015625)"/>
       <path id="DejaVuSans-79" d="M 2059 -325 
Q 1816 -950 1584 -1140 
Q 1353 -1331 966 -1331 
L 506 -1331 
L 506 -850 
L 844 -850 
Q 1081 -850 1212 -737 
Q 1344 -625 1503 -206 
L 1606 56 
L 191 3500 
L 800 3500 
L 1894 763 
L 2988 3500 
L 3597 3500 
L 2059 -325 
z
" transform="scale(0.015625)"/>
       <path id="DejaVuSans-20" transform="scale(0.015625)"/>
       <path id="DejaVuSans-28" d="M 1984 4856 
Q 1566 4138 1362 3434 
Q 1159 2731 1159 2009 
Q 1159 1288 1364 580 
Q 1569 -128 1984 -844 
L 1484 -844 
Q 1016 -109 783 600 
Q 550 1309 550 2009 
Q 550 2706 781 3412 
Q 1013 4119 1484 4856 
L 1984 4856 
z
" transform="scale(0.015625)"/>
       <path id="DejaVuSans-4d" d="M 628 4666 
L 1569 4666 
L 2759 1491 
L 3956 4666 
L 4897 4666 
L 4897 0 
L 4281 0 
L 4281 4097 
L 3078 897 
L 2444 897 
L 1241 4097 
L 1241 0 
L 628 0 
L 628 4666 
z
" transform="scale(0.015625)"/>
       <path id="DejaVuSans-48" d="M 628 4666 
L 1259 4666 
L 1259 2753 
L 3553 2753 
L 3553 4666 
L 4184 4666 
L 4184 0 
L 3553 0 
L 3553 2222 
L 1259 2222 
L 1259 0 
L 628 0 
L 628 4666 
z
" transform="scale(0.015625)"/>
       <path id="DejaVuSans-7a" d="M 353 3500 
L 3084 3500 
L 3084 2975 
L 922 459 
L 3084 459 
L 3084 0 
L 275 0 
L 275 525 
L 2438 3041 
L 353 3041 
L 353 3500 
z
" transform="scale(0.015625)"/>
       <path id="DejaVuSans-29" d="M 513 4856 
L 1013 4856 
Q 1481 4119 1714 3412 
Q 1947 2706 1947 2009 
Q 1947 1309 1714 600 
Q 1481 -109 1013 -844 
L 513 -844 
Q 928 -128 1133 580 
Q 1338 1288 1338 2009 
Q 1338 2731 1133 3434 
Q 928 4138 513 4856 
z
" transform="scale(0.015625)"/>
      </defs>
      <use xlink:href="#DejaVuSans-66"/>
      <use xlink:href="#DejaVuSans-72" x="35.205078"/>
      <use xlink:href="#DejaVuSans-65" x="74.068359"/>
      <use xlink:href="#DejaVuSans-71" x="135.591797"/>
      <use xlink:href="#DejaVuSans-75" x="199.068359"/>
      <use xlink:href="#DejaVuSans-65" x="262.447266"/>
      <use xlink:href="#DejaVuSans-6e" x="323.970703"/>
      <use xlink:href="#DejaVuSans-63" x="387.349609"/>
      <use xlink:href="#DejaVuSans-79" x="442.330078"/>
      <use xlink:href="#DejaVuSans-20" x="501.509766"/>
      <use xlink:href="#DejaVuSans-28" x="533.296875"/>
      <use xlink:href="#DejaVuSans-4d" x="572.310547"/>
      <use xlink:href="#DejaVuSans-48" x="658.589844"/>
      <use xlink:href="#DejaVuSans-7a" x="733.785156"/>
      <use xlink:href="#DejaVuSans-29" x="786.275391"/>
     </g>
    </g>
   </g>
   <g id="matplotlib.axis_2">
    <g id="ytick_1">
     <g id="line2d_19">
      <path d="M 57.6 295.152488 
L 414.72 295.152488 
" clip-path="url(#p75ec35f1fb)" style="fill: none; stroke: #b0b0b0; stroke-width: 0.8; stroke-linecap: square"/>
     </g>
     <g id="line2d_20">
      <defs>
       <path id="mbcad271791" d="M 0 0 
L -3.5 0 
" style="stroke: #000000; stroke-width: 0.8"/>
      </defs>
      <g>
       <use xlink:href="#mbcad271791" x="57.6" y="295.152488" style="stroke: #000000; stroke-width: 0.8"/>
      </g>
     </g>
     <g id="text_11">
      <!-- −20 -->
      <g transform="translate(29.495313 298.951707) scale(0.1 -0.1)">
       <defs>
        <path id="DejaVuSans-2212" d="M 678 2272 
L 4684 2272 
L 4684 1741 
L 678 1741 
L 678 2272 
z
" transform="scale(0.015625)"/>
       </defs>
       <use xlink:href="#DejaVuSans-2212"/>
       <use xlink:href="#DejaVuSans-32" x="83.789062"/>
       <use xlink:href="#DejaVuSans-30" x="147.412109"/>
      </g>
     </g>
    </g>
    <g id="ytick_2">
     <g id="line2d_21">
      <path d="M 57.6 265.399853 
L 414.72 265.399853 
" clip-path="url(#p75ec35f1fb)" style="fill: none; stroke: #b0b0b0; stroke-width: 0.8; stroke-linecap: square"/>
     </g>
     <g id="line2d_22">
      <g>
       <use xlink:href="#mbcad271791" x="57.6" y="265.399853" style="stroke: #000000; stroke-width: 0.8"/>
      </g>
     </g>
     <g id="text_12">
      <!-- −10 -->
      <g transform="translate(29.495313 269.199072) scale(0.1 -0.1)">
       <use xlink:href="#DejaVuSans-2212"/>
       <use xlink:href="#DejaVuSans-31" x="83.789062"/>
       <use xlink:href="#DejaVuSans-30" x="147.412109"/>
      </g>
     </g>
    </g>
    <g id="ytick_3">
     <g id="line2d_23">
      <path d="M 57.6 235.647219 
L 414.72 235.647219 
" clip-path="url(#p75ec35f1fb)" style="fill: none; stroke: #b0b0b0; stroke-width: 0.8; stroke-linecap: square"/>
     </g>
     <g id="line2d_24">
      <g>
       <use xlink:href="#mbcad271791" x="57.6" y="235.647219" style="stroke: #000000; stroke-width: 0.8"/>
      </g>
     </g>
     <g id="text_13">
      <!-- 0 -->
      <g transform="translate(44.2375 239.446437) scale(0.1 -0.1)">
       <use xlink:href="#DejaVuSans-30"/>
      </g>
     </g>
    </g>
    <g id="ytick_4">
     <g id="line2d_25">
      <path d="M 57.6 205.894584 
L 414.72 205.894584 
" clip-path="url(#p75ec35f1fb)" style="fill: none; stroke: #b0b0b0; stroke-width: 0.8; stroke-linecap: square"/>
     </g>
     <g id="line2d_26">
      <g>
       <use xlink:href="#mbcad271791" x="57.6" y="205.894584" style="stroke: #000000; stroke-width: 0.8"/>
      </g>
     </g>
     <g id="text_14">
      <!-- 10 -->
      <g transform="translate(37.875 209.693802) scale(0.1 -0.1)">
       <use xlink:href="#DejaVuSans-31"/>
       <use xlink:href="#DejaVuSans-30" x="63.623047"/>
      </g>
     </g>
    </g>
    <g id="ytick_5">
     <g id="line2d_27">
      <path d="M 57.6 176.141949 
L 414.72 176.141949 
" clip-path="url(#p75ec35f1fb)" style="fill: none; stroke: #b0b0b0; stroke-width: 0.8; stroke-linecap: square"/>
     </g>
     <g id="line2d_28">
      <g>
       <use xlink:href="#mbcad271791" x="57.6" y="176.141949" style="stroke: #000000; stroke-width: 0.8"/>
      </g>
     </g>
     <g id="text_15">
      <!-- 20 -->
      <g transform="translate(37.875 179.941167) scale(0.1 -0.1)">
       <use xlink:href="#DejaVuSans-32"/>
       <use xlink:href="#DejaVuSans-30" x="63.623047"/>
      </g>
     </g>
    </g>
    <g id="ytick_6">
     <g id="line2d_29">
      <path d="M 57.6 146.389314 
L 414.72 146.389314 
" clip-path="url(#p75ec35f1fb)" style="fill: none; stroke: #b0b0b0; stroke-width: 0.8; stroke-linecap: square"/>
     </g>
     <g id="line2d_30">
      <g>
       <use xlink:href="#mbcad271791" x="57.6" y="146.389314" style="stroke: #000000; stroke-width: 0.8"/>
      </g>
     </g>
     <g id="text_16">
      <!-- 30 -->
      <g transform="translate(37.875 150.188533) scale(0.1 -0.1)">
       <use xlink:href="#DejaVuSans-33"/>
       <use xlink:href="#DejaVuSans-30" x="63.623047"/>
      </g>
     </g>
    </g>
    <g id="ytick_7">
     <g id="line2d_31">
      <path d="M 57.6 116.636679 
L 414.72 116.636679 
" clip-path="url(#p75ec35f1fb)" style="fill: none; stroke: #b0b0b0; stroke-width: 0.8; stroke-linecap: square"/>
     </g>
     <g id="line2d_32">
      <g>
       <use xlink:href="#mbcad271791" x="57.6" y="116.636679" style="stroke: #000000; stroke-width: 0.8"/>
      </g>
     </g>
     <g id="text_17">
      <!-- 40 -->
      <g transform="translate(37.875 120.435898) scale(0.1 -0.1)">
       <defs>
        <path id="DejaVuSans-34" d="M 2419 4116 
L 825 1625 
L 2419 1625 
L 2419 4116 
z
M 2253 4666 
L 3047 4666 
L 3047 1625 
L 3713 1625 
L 3713 1100 
L 3047 1100 
L 3047 0 
L 2419 0 
L 2419 1100 
L 313 1100 
L 313 1709 
L 2253 4666 
z
" transform="scale(0.015625)"/>
       </defs>
       <use xlink:href="#DejaVuSans-34"/>
       <use xlink:href="#DejaVuSans-30" x="63.623047"/>
      </g>
     </g>
    </g>
    <g id="ytick_8">
     <g id="line2d_33">
      <path d="M 57.6 86.884044 
L 414.72 86.884044 
" clip-path="url(#p75ec35f1fb)" style="fill: none; stroke: #b0b0b0; stroke-width: 0.8; stroke-linecap: square"/>
     </g>
     <g id="line2d_34">
      <g>
       <use xlink:href="#mbcad271791" x="57.6" y="86.884044" style="stroke: #000000; stroke-width: 0.8"/>
      </g>
     </g>
     <g id="text_18">
      <!-- 50 -->
      <g transform="translate(37.875 90.683263) scale(0.1 -0.1)">
       <use xlink:href="#DejaVuSans-35"/>
       <use xlink:href="#DejaVuSans-30" x="63.623047"/>
      </g>
     </g>
    </g>
    <g id="ytick_9">
     <g id="line2d_35">
      <path d="M 57.6 57.131409 
L 414.72 57.131409 
" clip-path="url(#p75ec35f1fb)" style="fill: none; stroke: #b0b0b0; stroke-width: 0.8; stroke-linecap: square"/>
     </g>
     <g id="line2d_36">
      <g>
       <use xlink:href="#mbcad271791" x="57.6" y="57.131409" style="stroke: #000000; stroke-width: 0.8"/>
      </g>
     </g>
     <g id="text_19">
      <!-- 60 -->
      <g transform="translate(37.875 60.930628) scale(0.1 -0.1)">
       <defs>
        <path id="DejaVuSans-36" d="M 2113 2584 
Q 1688 2584 1439 2293 
Q 1191 2003 1191 1497 
Q 1191 994 1439 701 
Q 1688 409 2113 409 
Q 2538 409 2786 701 
Q 3034 994 3034 1497 
Q 3034 2003 2786 2293 
Q 2538 2584 2113 2584 
z
M 3366 4563 
L 3366 3988 
Q 3128 4100 2886 4159 
Q 2644 4219 2406 4219 
Q 1781 4219 1451 3797 
Q 1122 3375 1075 2522 
Q 1259 2794 1537 2939 
Q 1816 3084 2150 3084 
Q 2853 3084 3261 2657 
Q 3669 2231 3669 1497 
Q 3669 778 3244 343 
Q 2819 -91 2113 -91 
Q 1303 -91 875 529 
Q 447 1150 447 2328 
Q 447 3434 972 4092 
Q 1497 4750 2381 4750 
Q 2619 4750 2861 4703 
Q 3103 4656 3366 4563 
z
" transform="scale(0.015625)"/>
       </defs>
       <use xlink:href="#DejaVuSans-36"/>
       <use xlink:href="#DejaVuSans-30" x="63.623047"/>
      </g>
     </g>
    </g>
    <g id="text_20">
     <!-- impedance ($\Omega$) -->
     <g transform="translate(23.395312 211.628) rotate(-90) scale(0.1 -0.1)">
      <defs>
       <path id="DejaVuSans-69" d="M 603 3500 
L 1178 3500 
L 1178 0 
L 603 0 
L 603 3500 
z
M 603 4863 
L 1178 4863 
L 1178 4134 
L 603 4134 
L 603 4863 
z
" transform="scale(0.015625)"/>
       <path id="DejaVuSans-6d" d="M 3328 2828 
Q 3544 3216 3844 3400 
Q 4144 3584 4550 3584 
Q 5097 3584 5394 3201 
Q 5691 2819 5691 2113 
L 5691 0 
L 5113 0 
L 5113 2094 
Q 5113 2597 4934 2840 
Q 4756 3084 4391 3084 
Q 3944 3084 3684 2787 
Q 3425 2491 3425 1978 
L 3425 0 
L 2847 0 
L 2847 2094 
Q 2847 2600 2669 2842 
Q 2491 3084 2119 3084 
Q 1678 3084 1418 2786 
Q 1159 2488 1159 1978 
L 1159 0 
L 581 0 
L 581 3500 
L 1159 3500 
L 1159 2956 
Q 1356 3278 1631 3431 
Q 1906 3584 2284 3584 
Q 2666 3584 2933 3390 
Q 3200 3197 3328 2828 
z
" transform="scale(0.015625)"/>
       <path id="DejaVuSans-70" d="M 1159 525 
L 1159 -1331 
L 581 -1331 
L 581 3500 
L 1159 3500 
L 1159 2969 
Q 1341 3281 1617 3432 
Q 1894 3584 2278 3584 
Q 2916 3584 3314 3078 
Q 3713 2572 3713 1747 
Q 3713 922 3314 415 
Q 2916 -91 2278 -91 
Q 1894 -91 1617 61 
Q 1341 213 1159 525 
z
M 3116 1747 
Q 3116 2381 2855 2742 
Q 2594 3103 2138 3103 
Q 1681 3103 1420 2742 
Q 1159 2381 1159 1747 
Q 1159 1113 1420 752 
Q 1681 391 2138 391 
Q 2594 391 2855 752 
Q 3116 1113 3116 1747 
z
" transform="scale(0.015625)"/>
       <path id="DejaVuSans-64" d="M 2906 2969 
L 2906 4863 
L 3481 4863 
L 3481 0 
L 2906 0 
L 2906 525 
Q 2725 213 2448 61 
Q 2172 -91 1784 -91 
Q 1150 -91 751 415 
Q 353 922 353 1747 
Q 353 2572 751 3078 
Q 1150 3584 1784 3584 
Q 2172 3584 2448 3432 
Q 2725 3281 2906 2969 
z
M 947 1747 
Q 947 1113 1208 752 
Q 1469 391 1925 391 
Q 2381 391 2643 752 
Q 2906 1113 2906 1747 
Q 2906 2381 2643 2742 
Q 2381 3103 1925 3103 
Q 1469 3103 1208 2742 
Q 947 2381 947 1747 
z
" transform="scale(0.015625)"/>
       <path id="DejaVuSans-61" d="M 2194 1759 
Q 1497 1759 1228 1600 
Q 959 1441 959 1056 
Q 959 750 1161 570 
Q 1363 391 1709 391 
Q 2188 391 2477 730 
Q 2766 1069 2766 1631 
L 2766 1759 
L 2194 1759 
z
M 3341 1997 
L 3341 0 
L 2766 0 
L 2766 531 
Q 2569 213 2275 61 
Q 1981 -91 1556 -91 
Q 1019 -91 701 211 
Q 384 513 384 1019 
Q 384 1609 779 1909 
Q 1175 2209 1959 2209 
L 2766 2209 
L 2766 2266 
Q 2766 2663 2505 2880 
Q 2244 3097 1772 3097 
Q 1472 3097 1187 3025 
Q 903 2953 641 2809 
L 641 3341 
Q 956 3463 1253 3523 
Q 1550 3584 1831 3584 
Q 2591 3584 2966 3190 
Q 3341 2797 3341 1997 
z
" transform="scale(0.015625)"/>
       <path id="DejaVuSans-3a9" d="M 4647 556 
L 4647 0 
L 2772 0 
L 2772 556 
Q 3325 859 3634 1378 
Q 3944 1897 3944 2528 
Q 3944 3278 3531 3731 
Q 3119 4184 2444 4184 
Q 1769 4184 1355 3729 
Q 941 3275 941 2528 
Q 941 1897 1250 1378 
Q 1563 859 2119 556 
L 2119 0 
L 244 0 
L 244 556 
L 1241 556 
Q 747 991 519 1456 
Q 294 1922 294 2497 
Q 294 3491 894 4106 
Q 1491 4722 2444 4722 
Q 3391 4722 3994 4106 
Q 4594 3494 4594 2528 
Q 4594 1922 4372 1459 
Q 4150 997 3647 556 
L 4647 556 
z
" transform="scale(0.015625)"/>
      </defs>
      <use xlink:href="#DejaVuSans-69" transform="translate(0 0.015625)"/>
      <use xlink:href="#DejaVuSans-6d" transform="translate(27.783203 0.015625)"/>
      <use xlink:href="#DejaVuSans-70" transform="translate(125.195312 0.015625)"/>
      <use xlink:href="#DejaVuSans-65" transform="translate(188.671875 0.015625)"/>
      <use xlink:href="#DejaVuSans-64" transform="translate(250.195312 0.015625)"/>
      <use xlink:href="#DejaVuSans-61" transform="translate(313.671875 0.015625)"/>
      <use xlink:href="#DejaVuSans-6e" transform="translate(374.951172 0.015625)"/>
      <use xlink:href="#DejaVuSans-63" transform="translate(438.330078 0.015625)"/>
      <use xlink:href="#DejaVuSans-65" transform="translate(493.310547 0.015625)"/>
      <use xlink:href="#DejaVuSans-20" transform="translate(554.833984 0.015625)"/>
      <use xlink:href="#DejaVuSans-28" transform="translate(586.621094 0.015625)"/>
      <use xlink:href="#DejaVuSans-3a9" transform="translate(625.634766 0.015625)"/>
      <use xlink:href="#DejaVuSans-29" transform="translate(702.050781 0.015625)"/>
     </g>
    </g>
   </g>
   <g id="line2d_37">
    <path d="M 73.832727 235.459176 
L 74.644364 235.368168 
L 77.079273 234.276499 
L 77.890909 234.325196 
L 80.325818 235.436493 
L 81.137455 235.475885 
L 81.949091 235.226863 
L 83.572364 234.523139 
L 84.384 234.454609 
L 85.195636 234.666737 
L 86.818909 235.390872 
L 87.630545 235.528104 
L 88.442182 235.397179 
L 90.065455 234.759437 
L 90.877091 234.606428 
L 91.688727 234.704262 
L 94.123636 235.539682 
L 94.935273 235.512003 
L 97.370182 234.769853 
L 98.181818 234.770807 
L 99.805091 235.282306 
L 100.616727 235.52341 
L 101.428364 235.580554 
L 102.24 235.433177 
L 103.863273 234.935689 
L 104.674909 234.859593 
L 105.486545 234.981626 
L 107.109818 235.489976 
L 107.921455 235.611819 
L 108.733091 235.544854 
L 111.168 234.963746 
L 111.979636 235.007206 
L 114.414545 235.614445 
L 115.226182 235.619151 
L 118.472727 235.05213 
L 120.096 235.404945 
L 120.907636 235.596164 
L 121.719273 235.660894 
L 123.342545 235.378749 
L 124.965818 235.112794 
L 125.777455 235.182952 
L 128.212364 235.675351 
L 129.024 235.644444 
L 131.458909 235.184976 
L 132.270545 235.196278 
L 135.517091 235.690893 
L 138.763636 235.223722 
L 140.386909 235.48114 
L 142.010182 235.712374 
L 143.633455 235.506482 
L 145.256727 235.263027 
L 146.88 235.439241 
L 148.503273 235.711526 
L 150.126545 235.587133 
L 151.749818 235.311593 
L 152.561455 235.300968 
L 155.808 235.728104 
L 157.431273 235.504255 
L 159.054545 235.312533 
L 160.677818 235.510322 
L 162.301091 235.731976 
L 163.924364 235.572597 
L 165.547636 235.334197 
L 167.170909 235.460065 
L 168.794182 235.71622 
L 170.417455 235.629861 
L 172.040727 235.36438 
L 173.664 235.412096 
L 176.098909 235.731605 
L 177.722182 235.539534 
L 179.345455 235.332134 
L 180.968727 235.491583 
L 182.592 235.71914 
L 184.215273 235.58904 
L 185.838545 235.338127 
L 187.461818 235.427465 
L 189.085091 235.687269 
L 190.708364 235.629202 
L 193.143273 235.303961 
L 194.766545 235.499024 
L 196.389818 235.701409 
L 198.013091 235.524695 
L 199.636364 235.28429 
L 201.259636 235.41804 
L 202.882909 235.670768 
L 204.506182 235.559786 
L 206.129455 235.2735 
L 206.941091 235.245761 
L 208.564364 235.482816 
L 210.187636 235.660765 
L 211.810909 235.428444 
L 213.434182 235.195044 
L 215.057455 235.381381 
L 216.680727 235.629869 
L 218.304 235.454379 
L 219.927273 235.150874 
L 220.738909 235.147309 
L 223.985455 235.588314 
L 225.608727 235.282458 
L 227.232 235.053253 
L 228.855273 235.308045 
L 230.478545 235.553174 
L 231.290182 235.478802 
L 233.725091 234.958204 
L 234.536727 234.986152 
L 236.971636 235.482621 
L 237.783273 235.461997 
L 241.029818 234.82172 
L 242.653091 235.173329 
L 243.464727 235.364607 
L 244.276364 235.410589 
L 245.088 235.27309 
L 246.711273 234.756088 
L 247.522909 234.634839 
L 248.334545 234.708829 
L 250.769455 235.306474 
L 251.581091 235.223515 
L 254.016 234.415125 
L 254.827636 234.407956 
L 258.074182 235.115246 
L 258.885818 234.865404 
L 260.509091 234.141294 
L 261.320727 234.019058 
L 262.132364 234.167517 
L 263.755636 234.805623 
L 264.567273 234.901603 
L 265.378909 234.691799 
L 267.002182 233.767693 
L 267.813818 233.483813 
L 268.625455 233.527626 
L 271.060364 234.489787 
L 271.872 234.348392 
L 272.683636 233.847716 
L 274.306909 232.670432 
L 275.118545 232.527369 
L 275.930182 232.799379 
L 277.553455 233.666999 
L 278.365091 233.619401 
L 279.176727 233.049044 
L 280.8 231.234309 
L 281.611636 230.740485 
L 282.423273 230.822615 
L 284.046545 231.842723 
L 284.858182 231.869931 
L 285.669818 231.126756 
L 286.481455 229.704865 
L 287.293091 228.054828 
L 288.104727 226.766353 
L 288.916364 226.24503 
L 289.728 226.446898 
L 290.539636 226.826913 
L 291.351273 226.565391 
L 292.162909 224.982192 
L 292.974545 221.920805 
L 294.597818 213.771232 
L 295.409455 210.41369 
L 297.032727 205.193352 
L 297.844364 200.277292 
L 298.656 190.806146 
L 299.467636 175.122014 
L 300.279273 153.086053 
L 302.714182 74.009167 
L 303.525818 57.688224 
L 304.337455 53.568 
L 305.149091 63.341838 
L 305.960727 85.2939 
L 307.584 144.027333 
L 308.395636 168.598283 
L 309.207273 185.376638 
L 310.018909 194.761462 
L 310.830545 199.226711 
L 311.642182 201.81867 
L 312.453818 204.877764 
L 313.265455 209.331351 
L 314.888727 219.636728 
L 315.700364 222.948567 
L 316.512 224.152818 
L 317.323636 223.733386 
L 318.135273 222.803632 
L 318.946909 222.51076 
L 319.758545 223.481079 
L 320.570182 225.561913 
L 321.381818 227.970013 
L 322.193455 229.754404 
L 323.005091 230.31373 
L 323.816727 229.689808 
L 324.628364 228.504973 
L 325.44 227.609364 
L 326.251636 227.636176 
L 327.063273 228.688074 
L 328.686545 231.7416 
L 329.498182 232.353724 
L 330.309818 231.955711 
L 331.933091 229.81656 
L 332.744727 229.384394 
L 333.556364 229.869926 
L 335.179636 232.346874 
L 335.991273 233.109254 
L 336.802909 232.995679 
L 337.614545 232.128331 
L 338.426182 231.020095 
L 339.237818 230.296848 
L 340.049455 230.367641 
L 340.861091 231.211901 
L 341.672727 232.394514 
L 342.484364 233.302597 
L 343.296 233.475853 
L 344.107636 232.849535 
L 345.730909 230.858811 
L 346.542545 230.583202 
L 347.354182 231.109408 
L 348.977455 233.181442 
L 349.789091 233.629543 
L 350.600727 233.273943 
L 352.224 231.259174 
L 353.035636 230.680473 
L 353.847273 230.885727 
L 354.658909 231.766081 
L 355.470545 232.848871 
L 356.282182 233.550394 
L 357.093818 233.490123 
L 357.905455 232.694394 
L 358.717091 231.581305 
L 359.528727 230.738782 
L 360.340364 230.613335 
L 361.152 231.270597 
L 362.775273 233.277765 
L 363.586909 233.53091 
L 364.398545 232.963557 
L 366.021818 230.801538 
L 366.833455 230.338236 
L 367.645091 230.716686 
L 369.268364 232.827915 
L 370.08 233.40245 
L 370.891636 233.123604 
L 371.703273 232.115251 
L 372.514909 230.893113 
L 373.326545 230.094038 
L 374.138182 230.138127 
L 374.949818 230.998825 
L 375.761455 232.207054 
L 376.573091 233.096497 
L 377.384727 233.162149 
L 378.196364 232.335483 
L 379.819636 229.90859 
L 380.631273 229.567776 
L 381.442909 230.182364 
L 383.066182 232.594505 
L 383.877818 233.049903 
L 384.689455 232.499064 
L 386.312727 229.795898 
L 387.124364 229.031025 
L 387.936 229.301914 
L 388.747636 230.4612 
L 389.559273 231.874164 
L 390.370909 232.751336 
L 391.182545 232.575588 
L 391.994182 231.387666 
L 392.805818 229.773828 
L 393.617455 228.563065 
L 394.429091 228.389749 
L 395.240727 229.345711 
L 396.052364 230.91094 
L 396.864 232.216948 
L 397.675636 232.512248 
L 398.487273 231.574655 
L 398.487273 231.574655 
" clip-path="url(#p75ec35f1fb)" style="fill: none; stroke: #000000; stroke-width: 2; stroke-linecap: square"/>
   </g>
   <g id="line2d_38">
    <path d="M 73.832727 232.884824 
L 74.644364 232.240704 
L 75.456 231.800238 
L 76.267636 231.696628 
L 78.702545 232.286658 
L 79.514182 232.112952 
L 81.137455 231.060434 
L 81.949091 230.572239 
L 82.760727 230.349336 
L 83.572364 230.411788 
L 85.195636 230.793858 
L 86.007273 230.731828 
L 86.818909 230.394932 
L 88.442182 229.382905 
L 89.253818 229.072705 
L 90.065455 229.022581 
L 92.500364 229.348615 
L 93.312 229.124107 
L 95.746909 227.849246 
L 96.558545 227.702173 
L 99.805091 227.839989 
L 101.428364 227.060143 
L 102.24 226.663694 
L 103.051636 226.438293 
L 103.863273 226.41479 
L 105.486545 226.603791 
L 106.298182 226.546391 
L 107.109818 226.295231 
L 109.544727 225.219097 
L 110.356364 225.118082 
L 112.791273 225.24732 
L 113.602909 225.073255 
L 116.849455 223.864015 
L 118.472727 223.919562 
L 119.284364 223.946434 
L 120.096 223.837865 
L 121.719273 223.213127 
L 123.342545 222.644978 
L 124.965818 222.60665 
L 126.589091 222.590144 
L 127.400727 222.387155 
L 129.835636 221.452878 
L 130.647273 221.321511 
L 133.893818 221.185679 
L 137.140364 220.095708 
L 138.763636 220.06057 
L 140.386909 219.967041 
L 142.010182 219.43114 
L 143.633455 218.889141 
L 145.256727 218.776223 
L 146.88 218.730582 
L 148.503273 218.275588 
L 150.126545 217.696181 
L 151.749818 217.498259 
L 153.373091 217.476295 
L 154.184727 217.347016 
L 158.242909 216.225735 
L 160.677818 216.114932 
L 162.301091 215.62737 
L 163.924364 215.087397 
L 165.547636 214.920024 
L 167.170909 214.856896 
L 168.794182 214.4386 
L 170.417455 213.864184 
L 172.040727 213.617235 
L 173.664 213.570766 
L 175.287273 213.225838 
L 177.722182 212.417586 
L 179.345455 212.273928 
L 180.968727 212.170687 
L 182.592 211.702703 
L 184.215273 211.138465 
L 185.838545 210.922203 
L 187.461818 210.850072 
L 189.085091 210.446083 
L 190.708364 209.845211 
L 192.331636 209.545615 
L 194.766545 209.372122 
L 196.389818 208.845462 
L 198.013091 208.280853 
L 199.636364 208.090953 
L 201.259636 207.989567 
L 202.882909 207.51522 
L 204.506182 206.890477 
L 206.129455 206.617039 
L 207.752727 206.542397 
L 208.564364 206.395514 
L 210.187636 205.7927 
L 211.810909 205.215334 
L 213.434182 205.0495 
L 215.057455 204.910475 
L 216.680727 204.343721 
L 218.304 203.677154 
L 219.927273 203.426828 
L 221.550545 203.331286 
L 222.362182 203.138338 
L 225.608727 201.821986 
L 227.232 201.679071 
L 228.855273 201.484854 
L 230.478545 200.785308 
L 232.101818 200.049064 
L 232.913455 199.873367 
L 235.348364 199.686578 
L 236.16 199.424779 
L 239.406545 197.890406 
L 242.653091 197.480626 
L 244.276364 196.570996 
L 245.088 196.075018 
L 245.899636 195.715565 
L 246.711273 195.541513 
L 248.334545 195.463179 
L 249.146182 195.291789 
L 249.957818 194.913655 
L 252.392727 193.282206 
L 253.204364 193.000309 
L 255.639273 192.762284 
L 256.450909 192.41525 
L 258.074182 191.130158 
L 258.885818 190.48519 
L 259.697455 190.049825 
L 260.509091 189.862678 
L 262.132364 189.740514 
L 262.944 189.431381 
L 263.755636 188.822636 
L 266.190545 186.495177 
L 267.002182 186.143944 
L 268.625455 185.970592 
L 269.437091 185.696356 
L 270.248727 185.056994 
L 272.683636 181.984068 
L 273.495273 181.35583 
L 274.306909 181.088107 
L 275.118545 180.980675 
L 275.930182 180.713919 
L 276.741818 180.015865 
L 277.553455 178.815819 
L 279.176727 175.812072 
L 279.988364 174.696218 
L 280.8 174.079659 
L 282.423273 173.441815 
L 283.234909 172.583127 
L 284.046545 170.986032 
L 286.481455 164.286327 
L 287.293091 162.877276 
L 288.916364 161.30372 
L 289.728 159.927305 
L 290.539636 157.376772 
L 291.351273 153.594145 
L 292.974545 144.732756 
L 293.786182 141.234393 
L 296.221091 133.402853 
L 297.032727 127.978483 
L 297.844364 119.821111 
L 299.467636 100.793431 
L 300.279273 95.842978 
L 301.090909 98.474306 
L 301.902545 111.128006 
L 302.714182 134.523477 
L 303.525818 167.117618 
L 305.149091 241.957939 
L 305.960727 271.862275 
L 306.772364 290.03647 
L 307.584 295.488 
L 308.395636 290.936202 
L 310.018909 270.940096 
L 310.830545 263.199173 
L 311.642182 258.790562 
L 312.453818 256.757074 
L 313.265455 255.294341 
L 314.077091 252.810226 
L 314.888727 248.686638 
L 316.512 238.273211 
L 317.323636 234.365032 
L 318.135273 232.253015 
L 318.946909 231.626649 
L 319.758545 231.547328 
L 320.570182 230.961797 
L 321.381818 229.241445 
L 323.816727 220.742608 
L 324.628364 219.283059 
L 325.44 218.989322 
L 326.251636 219.322829 
L 327.063273 219.479415 
L 327.874909 218.815877 
L 328.686545 217.179211 
L 330.309818 212.879883 
L 331.121455 211.559144 
L 331.933091 211.23343 
L 333.556364 212.101911 
L 334.368 212.022699 
L 335.179636 211.068998 
L 337.614545 206.260835 
L 338.426182 205.777488 
L 339.237818 206.075256 
L 340.049455 206.680866 
L 340.861091 206.972932 
L 341.672727 206.512875 
L 342.484364 205.276947 
L 344.107636 202.270996 
L 344.919273 201.5812 
L 345.730909 201.702464 
L 347.354182 202.856428 
L 348.165818 202.792265 
L 348.977455 201.930705 
L 350.600727 199.06697 
L 351.412364 198.155318 
L 352.224 198.044189 
L 353.035636 198.581 
L 353.847273 199.270879 
L 354.658909 199.538398 
L 355.470545 199.035553 
L 356.282182 197.830266 
L 357.093818 196.370278 
L 357.905455 195.242236 
L 358.717091 194.858514 
L 359.528727 195.238234 
L 360.340364 195.995107 
L 361.152 196.539292 
L 361.963636 196.391323 
L 362.775273 195.442129 
L 364.398545 192.693976 
L 365.210182 192.010477 
L 366.021818 192.161002 
L 367.645091 193.661755 
L 368.456727 193.864596 
L 369.268364 193.218618 
L 371.703273 189.421289 
L 372.514909 189.275586 
L 373.326545 189.904659 
L 374.138182 190.816344 
L 374.949818 191.357423 
L 375.761455 191.062832 
L 376.573091 189.912136 
L 377.384727 188.348167 
L 378.196364 187.043404 
L 379.008 186.541161 
L 379.819636 186.963568 
L 381.442909 188.789107 
L 382.254545 188.888012 
L 383.066182 188.002744 
L 384.689455 184.843451 
L 385.501091 183.937238 
L 386.312727 184.052502 
L 387.124364 184.989169 
L 387.936 186.099234 
L 388.747636 186.622701 
L 389.559273 186.097167 
L 390.370909 184.618885 
L 391.182545 182.803321 
L 391.994182 181.461018 
L 392.805818 181.164772 
L 393.617455 181.938289 
L 394.429091 183.229054 
L 395.240727 184.187052 
L 396.052364 184.115792 
L 396.864 182.858449 
L 398.487273 179.115228 
L 398.487273 179.115228 
" clip-path="url(#p75ec35f1fb)" style="fill: none; stroke-dasharray: 7.4,3.2; stroke-dashoffset: 0; stroke: #ff0000; stroke-width: 2"/>
   </g>
   <g id="patch_3">
    <path d="M 57.6 307.584 
L 57.6 41.472 
" style="fill: none; stroke: #000000; stroke-width: 0.8; stroke-linejoin: miter; stroke-linecap: square"/>
   </g>
   <g id="patch_4">
    <path d="M 414.72 307.584 
L 414.72 41.472 
" style="fill: none; stroke: #000000; stroke-width: 0.8; stroke-linejoin: miter; stroke-linecap: square"/>
   </g>
   <g id="patch_5">
    <path d="M 57.6 307.584 
L 414.72 307.584 
" style="fill: none; stroke: #000000; stroke-width: 0.8; stroke-linejoin: miter; stroke-linecap: square"/>
   </g>
   <g id="patch_6">
    <path d="M 57.6 41.472 
L 414.72 41.472 
" style="fill: none; stroke: #000000; stroke-width: 0.8; stroke-linejoin: miter; stroke-linecap: square"/>
   </g>
   <g id="text_21">
    <!-- feed point impedance -->
    <g transform="translate(170.447812 35.472) scale(0.12 -0.12)">
     <defs>
      <path id="DejaVuSans-6f" d="M 1959 3097 
Q 1497 3097 1228 2736 
Q 959 2375 959 1747 
Q 959 1119 1226 758 
Q 1494 397 1959 397 
Q 2419 397 2687 759 
Q 2956 1122 2956 1747 
Q 2956 2369 2687 2733 
Q 2419 3097 1959 3097 
z
M 1959 3584 
Q 2709 3584 3137 3096 
Q 3566 2609 3566 1747 
Q 3566 888 3137 398 
Q 2709 -91 1959 -91 
Q 1206 -91 779 398 
Q 353 888 353 1747 
Q 353 2609 779 3096 
Q 1206 3584 1959 3584 
z
" transform="scale(0.015625)"/>
      <path id="DejaVuSans-74" d="M 1172 4494 
L 1172 3500 
L 2356 3500 
L 2356 3053 
L 1172 3053 
L 1172 1153 
Q 1172 725 1289 603 
Q 1406 481 1766 481 
L 2356 481 
L 2356 0 
L 1766 0 
Q 1100 0 847 248 
Q 594 497 594 1153 
L 594 3053 
L 172 3053 
L 172 3500 
L 594 3500 
L 594 4494 
L 1172 4494 
z
" transform="scale(0.015625)"/>
     </defs>
     <use xlink:href="#DejaVuSans-66"/>
     <use xlink:href="#DejaVuSans-65" x="35.205078"/>
     <use xlink:href="#DejaVuSans-65" x="96.728516"/>
     <use xlink:href="#DejaVuSans-64" x="158.251953"/>
     <use xlink:href="#DejaVuSans-20" x="221.728516"/>
     <use xlink:href="#DejaVuSans-70" x="253.515625"/>
     <use xlink:href="#DejaVuSans-6f" x="316.992188"/>
     <use xlink:href="#DejaVuSans-69" x="378.173828"/>
     <use xlink:href="#DejaVuSans-6e" x="405.957031"/>
     <use xlink:href="#DejaVuSans-74" x="469.335938"/>
     <use xlink:href="#DejaVuSans-20" x="508.544922"/>
     <use xlink:href="#DejaVuSans-69" x="540.332031"/>
     <use xlink:href="#DejaVuSans-6d" x="568.115234"/>
     <use xlink:href="#DejaVuSans-70" x="665.527344"/>
     <use xlink:href="#DejaVuSans-65" x="729.003906"/>
     <use xlink:href="#DejaVuSans-64" x="790.527344"/>
     <use xlink:href="#DejaVuSans-61" x="854.003906"/>
     <use xlink:href="#DejaVuSans-6e" x="915.283203"/>
     <use xlink:href="#DejaVuSans-63" x="978.662109"/>
     <use xlink:href="#DejaVuSans-65" x="1033.642578"/>
    </g>
   </g>
   <g id="legend_1">
    <g id="patch_7">
     <path d="M 346.22 78.82825 
L 407.72 78.82825 
Q 409.72 78.82825 409.72 76.82825 
L 409.72 48.472 
Q 409.72 46.472 407.72 46.472 
L 346.22 46.472 
Q 344.22 46.472 344.22 48.472 
L 344.22 76.82825 
Q 344.22 78.82825 346.22 78.82825 
z
" style="fill: #ffffff; opacity: 0.8; stroke: #cccccc; stroke-linejoin: miter"/>
    </g>
    <g id="line2d_39">
     <path d="M 348.22 54.570437 
L 358.22 54.570437 
L 368.22 54.570437 
" style="fill: none; stroke: #000000; stroke-width: 2; stroke-linecap: square"/>
    </g>
    <g id="text_22">
     <!-- $\Re(Z_{in})$ -->
     <g transform="translate(376.22 58.070437) scale(0.1 -0.1)">
      <defs>
       <path id="DejaVuSans-Oblique-211c" d="M 4006 -91 
Q 3750 481 3750 978 
Q 3750 1416 3681 1700 
Q 3556 2219 3309 2219 
Q 3178 2219 2891 2084 
L 2516 1909 
L 2516 1288 
Q 2516 644 2194 275 
Q 1872 -91 1434 -91 
Q 994 -91 675 275 
Q 353 644 353 1194 
Q 494 1156 638 1119 
Q 638 738 838 469 
Q 1038 197 1263 197 
Q 1488 197 1684 469 
Q 1884 741 1884 1209 
L 1884 3294 
Q 1884 3759 1684 4034 
Q 1488 4306 1200 4306 
Q 947 4306 744 4034 
Q 544 3766 544 3450 
Q 544 3134 744 2866 
Q 944 2594 1203 2594 
L 1372 2306 
Q 900 2306 581 2672 
Q 259 3041 259 3528 
Q 259 4019 581 4384 
Q 900 4750 1372 4750 
Q 1878 4750 2194 4384 
Q 2288 4275 2338 4175 
L 2997 4481 
Q 3581 4753 3931 4753 
Q 4078 4753 4191 4709 
Q 4584 4556 4584 4003 
Q 4584 3731 4381 3347 
Q 4175 2959 3784 2666 
Q 3966 2666 4119 2513 
Q 4231 2400 4316 2075 
Q 4416 1691 4416 1281 
Q 4416 881 4556 513 
L 5006 722 
L 5138 438 
L 4006 -91 
z
M 2450 3897 
Q 2516 3663 2516 3375 
L 2516 2241 
L 2997 2463 
Q 3447 2672 3688 2997 
Q 3919 3316 3919 3694 
Q 3919 4166 3688 4266 
Q 3613 4297 3516 4297 
Q 3316 4297 2997 4150 
L 2450 3897 
z
" transform="scale(0.015625)"/>
       <path id="DejaVuSans-Oblique-5a" d="M 838 4666 
L 4500 4666 
L 4409 4184 
L 794 531 
L 3769 531 
L 3669 0 
L -141 0 
L -50 481 
L 3566 4134 
L 738 4134 
L 838 4666 
z
" transform="scale(0.015625)"/>
       <path id="DejaVuSans-Oblique-69" d="M 1172 4863 
L 1747 4863 
L 1606 4134 
L 1031 4134 
L 1172 4863 
z
M 909 3500 
L 1484 3500 
L 800 0 
L 225 0 
L 909 3500 
z
" transform="scale(0.015625)"/>
       <path id="DejaVuSans-Oblique-6e" d="M 3566 2113 
L 3156 0 
L 2578 0 
L 2988 2091 
Q 3016 2238 3031 2350 
Q 3047 2463 3047 2528 
Q 3047 2791 2881 2937 
Q 2716 3084 2419 3084 
Q 1956 3084 1622 2776 
Q 1288 2469 1184 1941 
L 800 0 
L 225 0 
L 903 3500 
L 1478 3500 
L 1363 2950 
Q 1603 3253 1940 3418 
Q 2278 3584 2650 3584 
Q 3113 3584 3367 3334 
Q 3622 3084 3622 2631 
Q 3622 2519 3608 2391 
Q 3594 2263 3566 2113 
z
" transform="scale(0.015625)"/>
      </defs>
      <use xlink:href="#DejaVuSans-Oblique-211c" transform="translate(0 0.125)"/>
      <use xlink:href="#DejaVuSans-28" transform="translate(81.396484 0.125)"/>
      <use xlink:href="#DejaVuSans-Oblique-5a" transform="translate(120.410156 0.125)"/>
      <use xlink:href="#DejaVuSans-Oblique-69" transform="translate(188.916016 -16.28125) scale(0.7)"/>
      <use xlink:href="#DejaVuSans-Oblique-6e" transform="translate(208.364258 -16.28125) scale(0.7)"/>
      <use xlink:href="#DejaVuSans-29" transform="translate(255.463867 0.125)"/>
     </g>
    </g>
    <g id="line2d_40">
     <path d="M 348.22 69.248562 
L 358.22 69.248562 
L 368.22 69.248562 
" style="fill: none; stroke-dasharray: 7.4,3.2; stroke-dashoffset: 0; stroke: #ff0000; stroke-width: 2"/>
    </g>
    <g id="text_23">
     <!-- $\Im(Z_{in})$ -->
     <g transform="translate(376.22 72.748562) scale(0.1 -0.1)">
      <defs>
       <path id="DejaVuSans-Oblique-2111" d="M 331 281 
L 769 797 
Q 1116 919 1481 919 
Q 1659 919 2072 669 
Q 2522 400 2625 400 
Q 3003 400 3316 828 
Q 3538 1131 3538 1366 
Q 3538 1759 3344 2109 
Q 3094 2566 3094 2906 
Q 3094 3219 3344 3719 
L 4009 4156 
Q 3759 3722 3759 3344 
Q 3759 3009 4009 2547 
Q 4175 2241 4175 1653 
Q 4175 1359 3544 603 
Q 2963 -91 2206 -91 
Q 2038 -91 1634 156 
Q 1219 406 1044 406 
Q 750 406 331 281 
z
M 1094 4575 
Q 1434 4750 1875 4750 
Q 2259 4750 2656 4597 
Q 3038 4450 3438 4450 
Q 3828 4450 4219 4631 
L 3594 4100 
Q 3159 3919 2813 3919 
Q 2366 3919 2031 4072 
Q 1697 4225 1250 4225 
Q 869 4225 469 4044 
L 1094 4575 
z
" transform="scale(0.015625)"/>
      </defs>
      <use xlink:href="#DejaVuSans-Oblique-2111" transform="translate(0 0.125)"/>
      <use xlink:href="#DejaVuSans-28" transform="translate(69.726562 0.125)"/>
      <use xlink:href="#DejaVuSans-Oblique-5a" transform="translate(108.740234 0.125)"/>
      <use xlink:href="#DejaVuSans-Oblique-69" transform="translate(177.246094 -16.28125) scale(0.7)"/>
      <use xlink:href="#DejaVuSans-Oblique-6e" transform="translate(196.694336 -16.28125) scale(0.7)"/>
      <use xlink:href="#DejaVuSans-29" transform="translate(243.793945 0.125)"/>
     </g>
    </g>
   </g>
  </g>
 </g>
 <defs>
  <clipPath id="p75ec35f1fb">
   <rect x="57.6" y="41.472" width="357.12" height="266.112"/>
  </clipPath>
 </defs>
</svg>
