<?xml version="1.0" encoding="utf-8" standalone="no"?>
<!DOCTYPE svg PUBLIC "-//W3C//DTD SVG 1.1//EN"
  "http://www.w3.org/Graphics/SVG/1.1/DTD/svg11.dtd">
<svg xmlns:xlink="http://www.w3.org/1999/xlink" width="460.8pt" height="345.6pt" viewBox="0 0 460.8 345.6" xmlns="http://www.w3.org/2000/svg" version="1.1">
 <metadata>
  <rdf:RDF xmlns:dc="http://purl.org/dc/elements/1.1/" xmlns:cc="http://creativecommons.org/ns#" xmlns:rdf="http://www.w3.org/1999/02/22-rdf-syntax-ns#">
   <cc:Work>
    <dc:type rdf:resource="http://purl.org/dc/dcmitype/StillImage"/>
    <dc:date>2024-11-16T06:22:08.879767</dc:date>
    <dc:format>image/svg+xml</dc:format>
    <dc:creator>
     <cc:Agent>
      <dc:title>Matplotlib v3.5.1, https://matplotlib.org/</dc:title>
     </cc:Agent>
    </dc:creator>
   </cc:Work>
  </rdf:RDF>
 </metadata>
 <defs>
  <style type="text/css">*{stroke-linejoin: round; stroke-linecap: butt}</style>
 </defs>
 <g id="figure_1">
  <g id="patch_1">
   <path d="M 0 345.6 
L 460.8 345.6 
L 460.8 0 
L 0 0 
z
" style="fill: #ffffff"/>
  </g>
  <g id="axes_1">
   <g id="patch_2">
    <path d="M 57.6 307.584 
L 414.72 307.584 
L 414.72 41.472 
L 57.6 41.472 
z
" style="fill: #ffffff"/>
   </g>
   <g id="matplotlib.axis_1">
    <g id="xtick_1">
     <g id="line2d_1">
      <path d="M 73.832727 307.584 
L 73.832727 41.472 
" clip-path="url(#p02267e2e8b)" style="fill: none; stroke: #b0b0b0; stroke-width: 0.8; stroke-linecap: square"/>
     </g>
     <g id="line2d_2">
      <defs>
       <path id="m9c452473be" d="M 0 0 
L 0 3.5 
" style="stroke: #000000; stroke-width: 0.8"/>
      </defs>
      <g>
       <use xlink:href="#m9c452473be" x="73.832727" y="307.584" style="stroke: #000000; stroke-width: 0.8"/>
      </g>
     </g>
     <g id="text_1">
      <!-- 1000 -->
      <g transform="translate(61.107727 322.182437)scale(0.1 -0.1)">
       <defs>
        <path id="DejaVuSans-31" d="M 794 531 
L 1825 531 
L 1825 4091 
L 703 3866 
L 703 4441 
L 1819 4666 
L 2450 4666 
L 2450 531 
L 3481 531 
L 3481 0 
L 794 0 
L 794 531 
z
" transform="scale(0.015625)"/>
        <path id="DejaVuSans-30" d="M 2034 4250 
Q 1547 4250 1301 3770 
Q 1056 3291 1056 2328 
Q 1056 1369 1301 889 
Q 1547 409 2034 409 
Q 2525 409 2770 889 
Q 3016 1369 3016 2328 
Q 3016 3291 2770 3770 
Q 2525 4250 2034 4250 
z
M 2034 4750 
Q 2819 4750 3233 4129 
Q 3647 3509 3647 2328 
Q 3647 1150 3233 529 
Q 2819 -91 2034 -91 
Q 1250 -91 836 529 
Q 422 1150 422 2328 
Q 422 3509 836 4129 
Q 1250 4750 2034 4750 
z
" transform="scale(0.015625)"/>
       </defs>
       <use xlink:href="#DejaVuSans-31"/>
       <use xlink:href="#DejaVuSans-30" x="63.623047"/>
       <use xlink:href="#DejaVuSans-30" x="127.246094"/>
       <use xlink:href="#DejaVuSans-30" x="190.869141"/>
      </g>
     </g>
    </g>
    <g id="xtick_2">
     <g id="line2d_3">
      <path d="M 114.414545 307.584 
L 114.414545 41.472 
" clip-path="url(#p02267e2e8b)" style="fill: none; stroke: #b0b0b0; stroke-width: 0.8; stroke-linecap: square"/>
     </g>
     <g id="line2d_4">
      <g>
       <use xlink:href="#m9c452473be" x="114.414545" y="307.584" style="stroke: #000000; stroke-width: 0.8"/>
      </g>
     </g>
     <g id="text_2">
      <!-- 1250 -->
      <g transform="translate(101.689545 322.182437)scale(0.1 -0.1)">
       <defs>
        <path id="DejaVuSans-32" d="M 1228 531 
L 3431 531 
L 3431 0 
L 469 0 
L 469 531 
Q 828 903 1448 1529 
Q 2069 2156 2228 2338 
Q 2531 2678 2651 2914 
Q 2772 3150 2772 3378 
Q 2772 3750 2511 3984 
Q 2250 4219 1831 4219 
Q 1534 4219 1204 4116 
Q 875 4013 500 3803 
L 500 4441 
Q 881 4594 1212 4672 
Q 1544 4750 1819 4750 
Q 2544 4750 2975 4387 
Q 3406 4025 3406 3419 
Q 3406 3131 3298 2873 
Q 3191 2616 2906 2266 
Q 2828 2175 2409 1742 
Q 1991 1309 1228 531 
z
" transform="scale(0.015625)"/>
        <path id="DejaVuSans-35" d="M 691 4666 
L 3169 4666 
L 3169 4134 
L 1269 4134 
L 1269 2991 
Q 1406 3038 1543 3061 
Q 1681 3084 1819 3084 
Q 2600 3084 3056 2656 
Q 3513 2228 3513 1497 
Q 3513 744 3044 326 
Q 2575 -91 1722 -91 
Q 1428 -91 1123 -41 
Q 819 9 494 109 
L 494 744 
Q 775 591 1075 516 
Q 1375 441 1709 441 
Q 2250 441 2565 725 
Q 2881 1009 2881 1497 
Q 2881 1984 2565 2268 
Q 2250 2553 1709 2553 
Q 1456 2553 1204 2497 
Q 953 2441 691 2322 
L 691 4666 
z
" transform="scale(0.015625)"/>
       </defs>
       <use xlink:href="#DejaVuSans-31"/>
       <use xlink:href="#DejaVuSans-32" x="63.623047"/>
       <use xlink:href="#DejaVuSans-35" x="127.246094"/>
       <use xlink:href="#DejaVuSans-30" x="190.869141"/>
      </g>
     </g>
    </g>
    <g id="xtick_3">
     <g id="line2d_5">
      <path d="M 154.996364 307.584 
L 154.996364 41.472 
" clip-path="url(#p02267e2e8b)" style="fill: none; stroke: #b0b0b0; stroke-width: 0.8; stroke-linecap: square"/>
     </g>
     <g id="line2d_6">
      <g>
       <use xlink:href="#m9c452473be" x="154.996364" y="307.584" style="stroke: #000000; stroke-width: 0.8"/>
      </g>
     </g>
     <g id="text_3">
      <!-- 1500 -->
      <g transform="translate(142.271364 322.182437)scale(0.1 -0.1)">
       <use xlink:href="#DejaVuSans-31"/>
       <use xlink:href="#DejaVuSans-35" x="63.623047"/>
       <use xlink:href="#DejaVuSans-30" x="127.246094"/>
       <use xlink:href="#DejaVuSans-30" x="190.869141"/>
      </g>
     </g>
    </g>
    <g id="xtick_4">
     <g id="line2d_7">
      <path d="M 195.578182 307.584 
L 195.578182 41.472 
" clip-path="url(#p02267e2e8b)" style="fill: none; stroke: #b0b0b0; stroke-width: 0.8; stroke-linecap: square"/>
     </g>
     <g id="line2d_8">
      <g>
       <use xlink:href="#m9c452473be" x="195.578182" y="307.584" style="stroke: #000000; stroke-width: 0.8"/>
      </g>
     </g>
     <g id="text_4">
      <!-- 1750 -->
      <g transform="translate(182.853182 322.182437)scale(0.1 -0.1)">
       <defs>
        <path id="DejaVuSans-37" d="M 525 4666 
L 3525 4666 
L 3525 4397 
L 1831 0 
L 1172 0 
L 2766 4134 
L 525 4134 
L 525 4666 
z
" transform="scale(0.015625)"/>
       </defs>
       <use xlink:href="#DejaVuSans-31"/>
       <use xlink:href="#DejaVuSans-37" x="63.623047"/>
       <use xlink:href="#DejaVuSans-35" x="127.246094"/>
       <use xlink:href="#DejaVuSans-30" x="190.869141"/>
      </g>
     </g>
    </g>
    <g id="xtick_5">
     <g id="line2d_9">
      <path d="M 236.16 307.584 
L 236.16 41.472 
" clip-path="url(#p02267e2e8b)" style="fill: none; stroke: #b0b0b0; stroke-width: 0.8; stroke-linecap: square"/>
     </g>
     <g id="line2d_10">
      <g>
       <use xlink:href="#m9c452473be" x="236.16" y="307.584" style="stroke: #000000; stroke-width: 0.8"/>
      </g>
     </g>
     <g id="text_5">
      <!-- 2000 -->
      <g transform="translate(223.435 322.182437)scale(0.1 -0.1)">
       <use xlink:href="#DejaVuSans-32"/>
       <use xlink:href="#DejaVuSans-30" x="63.623047"/>
       <use xlink:href="#DejaVuSans-30" x="127.246094"/>
       <use xlink:href="#DejaVuSans-30" x="190.869141"/>
      </g>
     </g>
    </g>
    <g id="xtick_6">
     <g id="line2d_11">
      <path d="M 276.741818 307.584 
L 276.741818 41.472 
" clip-path="url(#p02267e2e8b)" style="fill: none; stroke: #b0b0b0; stroke-width: 0.8; stroke-linecap: square"/>
     </g>
     <g id="line2d_12">
      <g>
       <use xlink:href="#m9c452473be" x="276.741818" y="307.584" style="stroke: #000000; stroke-width: 0.8"/>
      </g>
     </g>
     <g id="text_6">
      <!-- 2250 -->
      <g transform="translate(264.016818 322.182437)scale(0.1 -0.1)">
       <use xlink:href="#DejaVuSans-32"/>
       <use xlink:href="#DejaVuSans-32" x="63.623047"/>
       <use xlink:href="#DejaVuSans-35" x="127.246094"/>
       <use xlink:href="#DejaVuSans-30" x="190.869141"/>
      </g>
     </g>
    </g>
    <g id="xtick_7">
     <g id="line2d_13">
      <path d="M 317.323636 307.584 
L 317.323636 41.472 
" clip-path="url(#p02267e2e8b)" style="fill: none; stroke: #b0b0b0; stroke-width: 0.8; stroke-linecap: square"/>
     </g>
     <g id="line2d_14">
      <g>
       <use xlink:href="#m9c452473be" x="317.323636" y="307.584" style="stroke: #000000; stroke-width: 0.8"/>
      </g>
     </g>
     <g id="text_7">
      <!-- 2500 -->
      <g transform="translate(304.598636 322.182437)scale(0.1 -0.1)">
       <use xlink:href="#DejaVuSans-32"/>
       <use xlink:href="#DejaVuSans-35" x="63.623047"/>
       <use xlink:href="#DejaVuSans-30" x="127.246094"/>
       <use xlink:href="#DejaVuSans-30" x="190.869141"/>
      </g>
     </g>
    </g>
    <g id="xtick_8">
     <g id="line2d_15">
      <path d="M 357.905455 307.584 
L 357.905455 41.472 
" clip-path="url(#p02267e2e8b)" style="fill: none; stroke: #b0b0b0; stroke-width: 0.8; stroke-linecap: square"/>
     </g>
     <g id="line2d_16">
      <g>
       <use xlink:href="#m9c452473be" x="357.905455" y="307.584" style="stroke: #000000; stroke-width: 0.8"/>
      </g>
     </g>
     <g id="text_8">
      <!-- 2750 -->
      <g transform="translate(345.180455 322.182437)scale(0.1 -0.1)">
       <use xlink:href="#DejaVuSans-32"/>
       <use xlink:href="#DejaVuSans-37" x="63.623047"/>
       <use xlink:href="#DejaVuSans-35" x="127.246094"/>
       <use xlink:href="#DejaVuSans-30" x="190.869141"/>
      </g>
     </g>
    </g>
    <g id="xtick_9">
     <g id="line2d_17">
      <path d="M 398.487273 307.584 
L 398.487273 41.472 
" clip-path="url(#p02267e2e8b)" style="fill: none; stroke: #b0b0b0; stroke-width: 0.8; stroke-linecap: square"/>
     </g>
     <g id="line2d_18">
      <g>
       <use xlink:href="#m9c452473be" x="398.487273" y="307.584" style="stroke: #000000; stroke-width: 0.8"/>
      </g>
     </g>
     <g id="text_9">
      <!-- 3000 -->
      <g transform="translate(385.762273 322.182437)scale(0.1 -0.1)">
       <defs>
        <path id="DejaVuSans-33" d="M 2597 2516 
Q 3050 2419 3304 2112 
Q 3559 1806 3559 1356 
Q 3559 666 3084 287 
Q 2609 -91 1734 -91 
Q 1441 -91 1130 -33 
Q 819 25 488 141 
L 488 750 
Q 750 597 1062 519 
Q 1375 441 1716 441 
Q 2309 441 2620 675 
Q 2931 909 2931 1356 
Q 2931 1769 2642 2001 
Q 2353 2234 1838 2234 
L 1294 2234 
L 1294 2753 
L 1863 2753 
Q 2328 2753 2575 2939 
Q 2822 3125 2822 3475 
Q 2822 3834 2567 4026 
Q 2313 4219 1838 4219 
Q 1578 4219 1281 4162 
Q 984 4106 628 3988 
L 628 4550 
Q 988 4650 1302 4700 
Q 1616 4750 1894 4750 
Q 2613 4750 3031 4423 
Q 3450 4097 3450 3541 
Q 3450 3153 3228 2886 
Q 3006 2619 2597 2516 
z
" transform="scale(0.015625)"/>
       </defs>
       <use xlink:href="#DejaVuSans-33"/>
       <use xlink:href="#DejaVuSans-30" x="63.623047"/>
       <use xlink:href="#DejaVuSans-30" x="127.246094"/>
       <use xlink:href="#DejaVuSans-30" x="190.869141"/>
      </g>
     </g>
    </g>
    <g id="text_10">
     <!-- frequency (MHz) -->
     <g transform="translate(194.894375 335.860562)scale(0.1 -0.1)">
      <defs>
       <path id="DejaVuSans-66" d="M 2375 4863 
L 2375 4384 
L 1825 4384 
Q 1516 4384 1395 4259 
Q 1275 4134 1275 3809 
L 1275 3500 
L 2222 3500 
L 2222 3053 
L 1275 3053 
L 1275 0 
L 697 0 
L 697 3053 
L 147 3053 
L 147 3500 
L 697 3500 
L 697 3744 
Q 697 4328 969 4595 
Q 1241 4863 1831 4863 
L 2375 4863 
z
" transform="scale(0.015625)"/>
       <path id="DejaVuSans-72" d="M 2631 2963 
Q 2534 3019 2420 3045 
Q 2306 3072 2169 3072 
Q 1681 3072 1420 2755 
Q 1159 2438 1159 1844 
L 1159 0 
L 581 0 
L 581 3500 
L 1159 3500 
L 1159 2956 
Q 1341 3275 1631 3429 
Q 1922 3584 2338 3584 
Q 2397 3584 2469 3576 
Q 2541 3569 2628 3553 
L 2631 2963 
z
" transform="scale(0.015625)"/>
       <path id="DejaVuSans-65" d="M 3597 1894 
L 3597 1613 
L 953 1613 
Q 991 1019 1311 708 
Q 1631 397 2203 397 
Q 2534 397 2845 478 
Q 3156 559 3463 722 
L 3463 178 
Q 3153 47 2828 -22 
Q 2503 -91 2169 -91 
Q 1331 -91 842 396 
Q 353 884 353 1716 
Q 353 2575 817 3079 
Q 1281 3584 2069 3584 
Q 2775 3584 3186 3129 
Q 3597 2675 3597 1894 
z
M 3022 2063 
Q 3016 2534 2758 2815 
Q 2500 3097 2075 3097 
Q 1594 3097 1305 2825 
Q 1016 2553 972 2059 
L 3022 2063 
z
" transform="scale(0.015625)"/>
       <path id="DejaVuSans-71" d="M 947 1747 
Q 947 1113 1208 752 
Q 1469 391 1925 391 
Q 2381 391 2643 752 
Q 2906 1113 2906 1747 
Q 2906 2381 2643 2742 
Q 2381 3103 1925 3103 
Q 1469 3103 1208 2742 
Q 947 2381 947 1747 
z
M 2906 525 
Q 2725 213 2448 61 
Q 2172 -91 1784 -91 
Q 1150 -91 751 415 
Q 353 922 353 1747 
Q 353 2572 751 3078 
Q 1150 3584 1784 3584 
Q 2172 3584 2448 3432 
Q 2725 3281 2906 2969 
L 2906 3500 
L 3481 3500 
L 3481 -1331 
L 2906 -1331 
L 2906 525 
z
" transform="scale(0.015625)"/>
       <path id="DejaVuSans-75" d="M 544 1381 
L 544 3500 
L 1119 3500 
L 1119 1403 
Q 1119 906 1312 657 
Q 1506 409 1894 409 
Q 2359 409 2629 706 
Q 2900 1003 2900 1516 
L 2900 3500 
L 3475 3500 
L 3475 0 
L 2900 0 
L 2900 538 
Q 2691 219 2414 64 
Q 2138 -91 1772 -91 
Q 1169 -91 856 284 
Q 544 659 544 1381 
z
M 1991 3584 
L 1991 3584 
z
" transform="scale(0.015625)"/>
       <path id="DejaVuSans-6e" d="M 3513 2113 
L 3513 0 
L 2938 0 
L 2938 2094 
Q 2938 2591 2744 2837 
Q 2550 3084 2163 3084 
Q 1697 3084 1428 2787 
Q 1159 2491 1159 1978 
L 1159 0 
L 581 0 
L 581 3500 
L 1159 3500 
L 1159 2956 
Q 1366 3272 1645 3428 
Q 1925 3584 2291 3584 
Q 2894 3584 3203 3211 
Q 3513 2838 3513 2113 
z
" transform="scale(0.015625)"/>
       <path id="DejaVuSans-63" d="M 3122 3366 
L 3122 2828 
Q 2878 2963 2633 3030 
Q 2388 3097 2138 3097 
Q 1578 3097 1268 2742 
Q 959 2388 959 1747 
Q 959 1106 1268 751 
Q 1578 397 2138 397 
Q 2388 397 2633 464 
Q 2878 531 3122 666 
L 3122 134 
Q 2881 22 2623 -34 
Q 2366 -91 2075 -91 
Q 1284 -91 818 406 
Q 353 903 353 1747 
Q 353 2603 823 3093 
Q 1294 3584 2113 3584 
Q 2378 3584 2631 3529 
Q 2884 3475 3122 3366 
z
" transform="scale(0.015625)"/>
       <path id="DejaVuSans-79" d="M 2059 -325 
Q 1816 -950 1584 -1140 
Q 1353 -1331 966 -1331 
L 506 -1331 
L 506 -850 
L 844 -850 
Q 1081 -850 1212 -737 
Q 1344 -625 1503 -206 
L 1606 56 
L 191 3500 
L 800 3500 
L 1894 763 
L 2988 3500 
L 3597 3500 
L 2059 -325 
z
" transform="scale(0.015625)"/>
       <path id="DejaVuSans-20" transform="scale(0.015625)"/>
       <path id="DejaVuSans-28" d="M 1984 4856 
Q 1566 4138 1362 3434 
Q 1159 2731 1159 2009 
Q 1159 1288 1364 580 
Q 1569 -128 1984 -844 
L 1484 -844 
Q 1016 -109 783 600 
Q 550 1309 550 2009 
Q 550 2706 781 3412 
Q 1013 4119 1484 4856 
L 1984 4856 
z
" transform="scale(0.015625)"/>
       <path id="DejaVuSans-4d" d="M 628 4666 
L 1569 4666 
L 2759 1491 
L 3956 4666 
L 4897 4666 
L 4897 0 
L 4281 0 
L 4281 4097 
L 3078 897 
L 2444 897 
L 1241 4097 
L 1241 0 
L 628 0 
L 628 4666 
z
" transform="scale(0.015625)"/>
       <path id="DejaVuSans-48" d="M 628 4666 
L 1259 4666 
L 1259 2753 
L 3553 2753 
L 3553 4666 
L 4184 4666 
L 4184 0 
L 3553 0 
L 3553 2222 
L 1259 2222 
L 1259 0 
L 628 0 
L 628 4666 
z
" transform="scale(0.015625)"/>
       <path id="DejaVuSans-7a" d="M 353 3500 
L 3084 3500 
L 3084 2975 
L 922 459 
L 3084 459 
L 3084 0 
L 275 0 
L 275 525 
L 2438 3041 
L 353 3041 
L 353 3500 
z
" transform="scale(0.015625)"/>
       <path id="DejaVuSans-29" d="M 513 4856 
L 1013 4856 
Q 1481 4119 1714 3412 
Q 1947 2706 1947 2009 
Q 1947 1309 1714 600 
Q 1481 -109 1013 -844 
L 513 -844 
Q 928 -128 1133 580 
Q 1338 1288 1338 2009 
Q 1338 2731 1133 3434 
Q 928 4138 513 4856 
z
" transform="scale(0.015625)"/>
      </defs>
      <use xlink:href="#DejaVuSans-66"/>
      <use xlink:href="#DejaVuSans-72" x="35.205078"/>
      <use xlink:href="#DejaVuSans-65" x="74.068359"/>
      <use xlink:href="#DejaVuSans-71" x="135.591797"/>
      <use xlink:href="#DejaVuSans-75" x="199.068359"/>
      <use xlink:href="#DejaVuSans-65" x="262.447266"/>
      <use xlink:href="#DejaVuSans-6e" x="323.970703"/>
      <use xlink:href="#DejaVuSans-63" x="387.349609"/>
      <use xlink:href="#DejaVuSans-79" x="442.330078"/>
      <use xlink:href="#DejaVuSans-20" x="501.509766"/>
      <use xlink:href="#DejaVuSans-28" x="533.296875"/>
      <use xlink:href="#DejaVuSans-4d" x="572.310547"/>
      <use xlink:href="#DejaVuSans-48" x="658.589844"/>
      <use xlink:href="#DejaVuSans-7a" x="733.785156"/>
      <use xlink:href="#DejaVuSans-29" x="786.275391"/>
     </g>
    </g>
   </g>
   <g id="matplotlib.axis_2">
    <g id="ytick_1">
     <g id="line2d_19">
      <path d="M 57.6 300.31186 
L 414.72 300.31186 
" clip-path="url(#p02267e2e8b)" style="fill: none; stroke: #b0b0b0; stroke-width: 0.8; stroke-linecap: square"/>
     </g>
     <g id="line2d_20">
      <defs>
       <path id="mf53dab2850" d="M 0 0 
L -3.5 0 
" style="stroke: #000000; stroke-width: 0.8"/>
      </defs>
      <g>
       <use xlink:href="#mf53dab2850" x="57.6" y="300.31186" style="stroke: #000000; stroke-width: 0.8"/>
      </g>
     </g>
     <g id="text_11">
      <!-- −20 -->
      <g transform="translate(29.495313 304.111078)scale(0.1 -0.1)">
       <defs>
        <path id="DejaVuSans-2212" d="M 678 2272 
L 4684 2272 
L 4684 1741 
L 678 1741 
L 678 2272 
z
" transform="scale(0.015625)"/>
       </defs>
       <use xlink:href="#DejaVuSans-2212"/>
       <use xlink:href="#DejaVuSans-32" x="83.789062"/>
       <use xlink:href="#DejaVuSans-30" x="147.412109"/>
      </g>
     </g>
    </g>
    <g id="ytick_2">
     <g id="line2d_21">
      <path d="M 57.6 270.685678 
L 414.72 270.685678 
" clip-path="url(#p02267e2e8b)" style="fill: none; stroke: #b0b0b0; stroke-width: 0.8; stroke-linecap: square"/>
     </g>
     <g id="line2d_22">
      <g>
       <use xlink:href="#mf53dab2850" x="57.6" y="270.685678" style="stroke: #000000; stroke-width: 0.8"/>
      </g>
     </g>
     <g id="text_12">
      <!-- −10 -->
      <g transform="translate(29.495313 274.484897)scale(0.1 -0.1)">
       <use xlink:href="#DejaVuSans-2212"/>
       <use xlink:href="#DejaVuSans-31" x="83.789062"/>
       <use xlink:href="#DejaVuSans-30" x="147.412109"/>
      </g>
     </g>
    </g>
    <g id="ytick_3">
     <g id="line2d_23">
      <path d="M 57.6 241.059497 
L 414.72 241.059497 
" clip-path="url(#p02267e2e8b)" style="fill: none; stroke: #b0b0b0; stroke-width: 0.8; stroke-linecap: square"/>
     </g>
     <g id="line2d_24">
      <g>
       <use xlink:href="#mf53dab2850" x="57.6" y="241.059497" style="stroke: #000000; stroke-width: 0.8"/>
      </g>
     </g>
     <g id="text_13">
      <!-- 0 -->
      <g transform="translate(44.2375 244.858716)scale(0.1 -0.1)">
       <use xlink:href="#DejaVuSans-30"/>
      </g>
     </g>
    </g>
    <g id="ytick_4">
     <g id="line2d_25">
      <path d="M 57.6 211.433316 
L 414.72 211.433316 
" clip-path="url(#p02267e2e8b)" style="fill: none; stroke: #b0b0b0; stroke-width: 0.8; stroke-linecap: square"/>
     </g>
     <g id="line2d_26">
      <g>
       <use xlink:href="#mf53dab2850" x="57.6" y="211.433316" style="stroke: #000000; stroke-width: 0.8"/>
      </g>
     </g>
     <g id="text_14">
      <!-- 10 -->
      <g transform="translate(37.875 215.232535)scale(0.1 -0.1)">
       <use xlink:href="#DejaVuSans-31"/>
       <use xlink:href="#DejaVuSans-30" x="63.623047"/>
      </g>
     </g>
    </g>
    <g id="ytick_5">
     <g id="line2d_27">
      <path d="M 57.6 181.807135 
L 414.72 181.807135 
" clip-path="url(#p02267e2e8b)" style="fill: none; stroke: #b0b0b0; stroke-width: 0.8; stroke-linecap: square"/>
     </g>
     <g id="line2d_28">
      <g>
       <use xlink:href="#mf53dab2850" x="57.6" y="181.807135" style="stroke: #000000; stroke-width: 0.8"/>
      </g>
     </g>
     <g id="text_15">
      <!-- 20 -->
      <g transform="translate(37.875 185.606353)scale(0.1 -0.1)">
       <use xlink:href="#DejaVuSans-32"/>
       <use xlink:href="#DejaVuSans-30" x="63.623047"/>
      </g>
     </g>
    </g>
    <g id="ytick_6">
     <g id="line2d_29">
      <path d="M 57.6 152.180953 
L 414.72 152.180953 
" clip-path="url(#p02267e2e8b)" style="fill: none; stroke: #b0b0b0; stroke-width: 0.8; stroke-linecap: square"/>
     </g>
     <g id="line2d_30">
      <g>
       <use xlink:href="#mf53dab2850" x="57.6" y="152.180953" style="stroke: #000000; stroke-width: 0.8"/>
      </g>
     </g>
     <g id="text_16">
      <!-- 30 -->
      <g transform="translate(37.875 155.980172)scale(0.1 -0.1)">
       <use xlink:href="#DejaVuSans-33"/>
       <use xlink:href="#DejaVuSans-30" x="63.623047"/>
      </g>
     </g>
    </g>
    <g id="ytick_7">
     <g id="line2d_31">
      <path d="M 57.6 122.554772 
L 414.72 122.554772 
" clip-path="url(#p02267e2e8b)" style="fill: none; stroke: #b0b0b0; stroke-width: 0.8; stroke-linecap: square"/>
     </g>
     <g id="line2d_32">
      <g>
       <use xlink:href="#mf53dab2850" x="57.6" y="122.554772" style="stroke: #000000; stroke-width: 0.8"/>
      </g>
     </g>
     <g id="text_17">
      <!-- 40 -->
      <g transform="translate(37.875 126.353991)scale(0.1 -0.1)">
       <defs>
        <path id="DejaVuSans-34" d="M 2419 4116 
L 825 1625 
L 2419 1625 
L 2419 4116 
z
M 2253 4666 
L 3047 4666 
L 3047 1625 
L 3713 1625 
L 3713 1100 
L 3047 1100 
L 3047 0 
L 2419 0 
L 2419 1100 
L 313 1100 
L 313 1709 
L 2253 4666 
z
" transform="scale(0.015625)"/>
       </defs>
       <use xlink:href="#DejaVuSans-34"/>
       <use xlink:href="#DejaVuSans-30" x="63.623047"/>
      </g>
     </g>
    </g>
    <g id="ytick_8">
     <g id="line2d_33">
      <path d="M 57.6 92.928591 
L 414.72 92.928591 
" clip-path="url(#p02267e2e8b)" style="fill: none; stroke: #b0b0b0; stroke-width: 0.8; stroke-linecap: square"/>
     </g>
     <g id="line2d_34">
      <g>
       <use xlink:href="#mf53dab2850" x="57.6" y="92.928591" style="stroke: #000000; stroke-width: 0.8"/>
      </g>
     </g>
     <g id="text_18">
      <!-- 50 -->
      <g transform="translate(37.875 96.72781)scale(0.1 -0.1)">
       <use xlink:href="#DejaVuSans-35"/>
       <use xlink:href="#DejaVuSans-30" x="63.623047"/>
      </g>
     </g>
    </g>
    <g id="ytick_9">
     <g id="line2d_35">
      <path d="M 57.6 63.30241 
L 414.72 63.30241 
" clip-path="url(#p02267e2e8b)" style="fill: none; stroke: #b0b0b0; stroke-width: 0.8; stroke-linecap: square"/>
     </g>
     <g id="line2d_36">
      <g>
       <use xlink:href="#mf53dab2850" x="57.6" y="63.30241" style="stroke: #000000; stroke-width: 0.8"/>
      </g>
     </g>
     <g id="text_19">
      <!-- 60 -->
      <g transform="translate(37.875 67.101628)scale(0.1 -0.1)">
       <defs>
        <path id="DejaVuSans-36" d="M 2113 2584 
Q 1688 2584 1439 2293 
Q 1191 2003 1191 1497 
Q 1191 994 1439 701 
Q 1688 409 2113 409 
Q 2538 409 2786 701 
Q 3034 994 3034 1497 
Q 3034 2003 2786 2293 
Q 2538 2584 2113 2584 
z
M 3366 4563 
L 3366 3988 
Q 3128 4100 2886 4159 
Q 2644 4219 2406 4219 
Q 1781 4219 1451 3797 
Q 1122 3375 1075 2522 
Q 1259 2794 1537 2939 
Q 1816 3084 2150 3084 
Q 2853 3084 3261 2657 
Q 3669 2231 3669 1497 
Q 3669 778 3244 343 
Q 2819 -91 2113 -91 
Q 1303 -91 875 529 
Q 447 1150 447 2328 
Q 447 3434 972 4092 
Q 1497 4750 2381 4750 
Q 2619 4750 2861 4703 
Q 3103 4656 3366 4563 
z
" transform="scale(0.015625)"/>
       </defs>
       <use xlink:href="#DejaVuSans-36"/>
       <use xlink:href="#DejaVuSans-30" x="63.623047"/>
      </g>
     </g>
    </g>
    <g id="text_20">
     <!-- impedance ($\Omega$) -->
     <g transform="translate(23.395312 211.628)rotate(-90)scale(0.1 -0.1)">
      <defs>
       <path id="DejaVuSans-69" d="M 603 3500 
L 1178 3500 
L 1178 0 
L 603 0 
L 603 3500 
z
M 603 4863 
L 1178 4863 
L 1178 4134 
L 603 4134 
L 603 4863 
z
" transform="scale(0.015625)"/>
       <path id="DejaVuSans-6d" d="M 3328 2828 
Q 3544 3216 3844 3400 
Q 4144 3584 4550 3584 
Q 5097 3584 5394 3201 
Q 5691 2819 5691 2113 
L 5691 0 
L 5113 0 
L 5113 2094 
Q 5113 2597 4934 2840 
Q 4756 3084 4391 3084 
Q 3944 3084 3684 2787 
Q 3425 2491 3425 1978 
L 3425 0 
L 2847 0 
L 2847 2094 
Q 2847 2600 2669 2842 
Q 2491 3084 2119 3084 
Q 1678 3084 1418 2786 
Q 1159 2488 1159 1978 
L 1159 0 
L 581 0 
L 581 3500 
L 1159 3500 
L 1159 2956 
Q 1356 3278 1631 3431 
Q 1906 3584 2284 3584 
Q 2666 3584 2933 3390 
Q 3200 3197 3328 2828 
z
" transform="scale(0.015625)"/>
       <path id="DejaVuSans-70" d="M 1159 525 
L 1159 -1331 
L 581 -1331 
L 581 3500 
L 1159 3500 
L 1159 2969 
Q 1341 3281 1617 3432 
Q 1894 3584 2278 3584 
Q 2916 3584 3314 3078 
Q 3713 2572 3713 1747 
Q 3713 922 3314 415 
Q 2916 -91 2278 -91 
Q 1894 -91 1617 61 
Q 1341 213 1159 525 
z
M 3116 1747 
Q 3116 2381 2855 2742 
Q 2594 3103 2138 3103 
Q 1681 3103 1420 2742 
Q 1159 2381 1159 1747 
Q 1159 1113 1420 752 
Q 1681 391 2138 391 
Q 2594 391 2855 752 
Q 3116 1113 3116 1747 
z
" transform="scale(0.015625)"/>
       <path id="DejaVuSans-64" d="M 2906 2969 
L 2906 4863 
L 3481 4863 
L 3481 0 
L 2906 0 
L 2906 525 
Q 2725 213 2448 61 
Q 2172 -91 1784 -91 
Q 1150 -91 751 415 
Q 353 922 353 1747 
Q 353 2572 751 3078 
Q 1150 3584 1784 3584 
Q 2172 3584 2448 3432 
Q 2725 3281 2906 2969 
z
M 947 1747 
Q 947 1113 1208 752 
Q 1469 391 1925 391 
Q 2381 391 2643 752 
Q 2906 1113 2906 1747 
Q 2906 2381 2643 2742 
Q 2381 3103 1925 3103 
Q 1469 3103 1208 2742 
Q 947 2381 947 1747 
z
" transform="scale(0.015625)"/>
       <path id="DejaVuSans-61" d="M 2194 1759 
Q 1497 1759 1228 1600 
Q 959 1441 959 1056 
Q 959 750 1161 570 
Q 1363 391 1709 391 
Q 2188 391 2477 730 
Q 2766 1069 2766 1631 
L 2766 1759 
L 2194 1759 
z
M 3341 1997 
L 3341 0 
L 2766 0 
L 2766 531 
Q 2569 213 2275 61 
Q 1981 -91 1556 -91 
Q 1019 -91 701 211 
Q 384 513 384 1019 
Q 384 1609 779 1909 
Q 1175 2209 1959 2209 
L 2766 2209 
L 2766 2266 
Q 2766 2663 2505 2880 
Q 2244 3097 1772 3097 
Q 1472 3097 1187 3025 
Q 903 2953 641 2809 
L 641 3341 
Q 956 3463 1253 3523 
Q 1550 3584 1831 3584 
Q 2591 3584 2966 3190 
Q 3341 2797 3341 1997 
z
" transform="scale(0.015625)"/>
       <path id="DejaVuSans-3a9" d="M 4647 556 
L 4647 0 
L 2772 0 
L 2772 556 
Q 3325 859 3634 1378 
Q 3944 1897 3944 2528 
Q 3944 3278 3531 3731 
Q 3119 4184 2444 4184 
Q 1769 4184 1355 3729 
Q 941 3275 941 2528 
Q 941 1897 1250 1378 
Q 1563 859 2119 556 
L 2119 0 
L 244 0 
L 244 556 
L 1241 556 
Q 747 991 519 1456 
Q 294 1922 294 2497 
Q 294 3491 894 4106 
Q 1491 4722 2444 4722 
Q 3391 4722 3994 4106 
Q 4594 3494 4594 2528 
Q 4594 1922 4372 1459 
Q 4150 997 3647 556 
L 4647 556 
z
" transform="scale(0.015625)"/>
      </defs>
      <use xlink:href="#DejaVuSans-69" transform="translate(0 0.015625)"/>
      <use xlink:href="#DejaVuSans-6d" transform="translate(27.783203 0.015625)"/>
      <use xlink:href="#DejaVuSans-70" transform="translate(125.195312 0.015625)"/>
      <use xlink:href="#DejaVuSans-65" transform="translate(188.671875 0.015625)"/>
      <use xlink:href="#DejaVuSans-64" transform="translate(250.195312 0.015625)"/>
      <use xlink:href="#DejaVuSans-61" transform="translate(313.671875 0.015625)"/>
      <use xlink:href="#DejaVuSans-6e" transform="translate(374.951172 0.015625)"/>
      <use xlink:href="#DejaVuSans-63" transform="translate(438.330078 0.015625)"/>
      <use xlink:href="#DejaVuSans-65" transform="translate(493.310547 0.015625)"/>
      <use xlink:href="#DejaVuSans-20" transform="translate(554.833984 0.015625)"/>
      <use xlink:href="#DejaVuSans-28" transform="translate(586.621094 0.015625)"/>
      <use xlink:href="#DejaVuSans-3a9" transform="translate(625.634766 0.015625)"/>
      <use xlink:href="#DejaVuSans-29" transform="translate(702.050781 0.015625)"/>
     </g>
    </g>
   </g>
   <g id="line2d_37">
    <path d="M 73.832727 240.372692 
L 75.456 240.048975 
L 76.267636 240.116612 
L 77.890909 240.483031 
L 78.702545 240.453229 
L 80.325818 240.155911 
L 81.137455 240.202974 
L 82.760727 240.538562 
L 83.572364 240.525108 
L 85.195636 240.252434 
L 86.007273 240.282201 
L 87.630545 240.589228 
L 88.442182 240.589388 
L 90.065455 240.339719 
L 90.877091 240.354936 
L 92.500364 240.635476 
L 93.312 240.646914 
L 94.935273 240.418586 
L 95.746909 240.421548 
L 98.181818 240.698418 
L 100.616727 240.482542 
L 103.051636 240.744482 
L 105.486545 240.538225 
L 107.921455 240.785589 
L 110.356364 240.588983 
L 112.791273 240.822224 
L 115.226182 240.635114 
L 118.472727 240.802488 
L 120.096 240.676855 
L 123.342545 240.839966 
L 124.965818 240.714541 
L 128.212364 240.873044 
L 129.835636 240.748357 
L 133.082182 240.901974 
L 134.705455 240.778396 
L 138.763636 240.854486 
L 140.386909 240.829535 
L 142.010182 240.963517 
L 150.126545 240.85862 
L 152.561455 240.980922 
L 154.996364 240.868909 
L 157.431273 240.992274 
L 159.866182 240.876436 
L 162.301091 241.000561 
L 164.736 240.881211 
L 167.170909 241.005856 
L 169.605818 240.883238 
L 172.040727 241.008211 
L 175.287273 240.926531 
L 176.910545 241.007727 
L 180.157091 240.918696 
L 181.780364 241.004328 
L 185.026909 240.907921 
L 186.650182 240.997978 
L 189.896727 240.894214 
L 191.52 240.988649 
L 194.766545 240.877334 
L 196.389818 240.976159 
L 200.448 240.919887 
L 202.071273 240.935494 
L 204.506182 240.832944 
L 206.941091 240.919869 
L 209.376 240.804588 
L 211.810909 240.900292 
L 214.245818 240.771271 
L 216.680727 240.876118 
L 219.115636 240.732146 
L 221.550545 240.846668 
L 223.985455 240.686201 
L 226.420364 240.810898 
L 228.855273 240.631849 
L 231.290182 240.767305 
L 233.725091 240.567154 
L 236.16 240.71399 
L 238.594909 240.489266 
L 241.029818 240.648063 
L 243.464727 240.394305 
L 245.899636 240.565487 
L 248.334545 240.276666 
L 251.581091 240.367714 
L 253.204364 240.128085 
L 256.450909 240.224755 
L 258.074182 239.93597 
L 261.320727 240.033281 
L 262.944 239.679916 
L 264.567273 239.827425 
L 265.378909 239.889411 
L 266.190545 239.767422 
L 267.813818 239.325441 
L 268.625455 239.32296 
L 270.248727 239.526083 
L 271.060364 239.380797 
L 272.683636 238.809751 
L 273.495273 238.768893 
L 275.118545 238.971014 
L 275.930182 238.783165 
L 277.553455 238.008587 
L 278.365091 237.897496 
L 279.988364 238.055271 
L 280.8 237.780607 
L 282.423273 236.647237 
L 283.234909 236.392076 
L 284.858182 236.374345 
L 285.669818 235.895473 
L 287.293091 234.01879 
L 288.104727 233.414106 
L 288.916364 233.158623 
L 289.728 232.766835 
L 290.539636 231.699821 
L 294.597818 222.837263 
L 295.409455 219.442415 
L 296.221091 214.251142 
L 297.844364 200.873678 
L 298.656 192.762161 
L 299.467636 181.213561 
L 300.279273 163.357569 
L 301.090909 138.039082 
L 302.714182 78.173426 
L 303.525818 57.786052 
L 304.337455 53.568 
L 305.149091 67.803799 
L 305.960727 95.704298 
L 306.772364 127.560531 
L 307.584 154.554344 
L 308.395636 173.224674 
L 309.207273 185.273285 
L 310.830545 202.488874 
L 311.642182 209.993495 
L 312.453818 215.66836 
L 313.265455 218.992839 
L 314.888727 222.357082 
L 315.700364 224.620649 
L 316.512 227.222607 
L 317.323636 229.227529 
L 318.135273 230.100898 
L 318.946909 230.22123 
L 319.758545 230.477219 
L 320.570182 231.42095 
L 321.381818 232.79852 
L 322.193455 233.868164 
L 323.005091 234.154321 
L 323.816727 233.893193 
L 324.628364 233.772665 
L 325.44 234.261232 
L 326.251636 235.180053 
L 327.063273 235.911014 
L 327.874909 236.014601 
L 329.498182 235.383983 
L 330.309818 235.661406 
L 331.933091 236.939917 
L 332.744727 236.982682 
L 334.368 236.255481 
L 335.179636 236.412008 
L 336.802909 237.490716 
L 337.614545 237.51808 
L 339.237818 236.747473 
L 340.049455 236.822655 
L 341.672727 237.783398 
L 342.484364 237.815344 
L 344.107636 237.021205 
L 344.919273 237.034192 
L 346.542545 237.921095 
L 347.354182 237.9679 
L 348.977455 237.157461 
L 349.789091 237.117858 
L 351.412364 237.956983 
L 352.224 238.024966 
L 353.847273 237.200299 
L 354.658909 237.112578 
L 356.282182 237.920227 
L 357.093818 238.014048 
L 359.528727 237.04068 
L 360.340364 237.369286 
L 361.152 237.827581 
L 361.963636 237.95139 
L 362.775273 237.600354 
L 363.586909 237.097286 
L 364.398545 236.915588 
L 365.210182 237.21691 
L 366.021818 237.688821 
L 366.833455 237.846755 
L 367.645091 237.508678 
L 368.456727 236.97652 
L 369.268364 236.745312 
L 370.08 237.019959 
L 370.891636 237.509354 
L 371.703273 237.70584 
L 372.514909 237.382256 
L 373.326545 236.818705 
L 374.138182 236.534461 
L 374.949818 236.781578 
L 375.761455 237.291777 
L 376.573091 237.531813 
L 377.384727 237.225124 
L 378.196364 236.628031 
L 379.008 236.286423 
L 379.819636 236.504052 
L 380.631273 237.037699 
L 381.442909 237.325902 
L 382.254545 237.037482 
L 383.066182 236.402319 
L 383.877818 235.995845 
L 384.689455 236.179781 
L 385.501091 236.739826 
L 386.312727 237.083846 
L 387.124364 236.81926 
L 387.936 236.144686 
L 388.747636 235.666817 
L 389.559273 235.812018 
L 390.370909 236.399998 
L 391.182545 236.806208 
L 391.994182 236.569587 
L 392.805818 235.852112 
L 393.617455 235.293689 
L 394.429091 235.393179 
L 395.240727 236.010569 
L 396.052364 236.487054 
L 396.864 236.284479 
L 398.487273 234.871446 
L 398.487273 234.871446 
" clip-path="url(#p02267e2e8b)" style="fill: none; stroke: #000000; stroke-width: 2; stroke-linecap: square"/>
   </g>
   <g id="line2d_38">
    <path d="M 73.832727 238.036381 
L 74.644364 237.81363 
L 77.079273 237.700719 
L 79.514182 236.803619 
L 81.949091 236.666916 
L 84.384 235.811844 
L 86.818909 235.652764 
L 89.253818 234.836337 
L 92.500364 234.41916 
L 94.123636 233.875094 
L 97.370182 233.455894 
L 98.993455 232.926398 
L 102.24 232.503981 
L 103.863273 231.988522 
L 105.486545 231.829565 
L 106.298182 231.751847 
L 107.921455 231.295083 
L 109.544727 230.932279 
L 111.168 230.806482 
L 112.791273 230.373086 
L 114.414545 230.002918 
L 116.037818 229.869683 
L 117.661091 229.457235 
L 119.284364 229.080929 
L 121.719273 228.781695 
L 124.154182 228.164713 
L 126.589091 227.865664 
L 129.024 227.252817 
L 131.458909 226.952773 
L 133.893818 226.343819 
L 136.328727 226.041858 
L 138.763636 225.436398 
L 141.198545 225.131476 
L 144.445091 224.427424 
L 146.068364 224.220442 
L 149.314909 223.512574 
L 150.938182 223.307553 
L 154.184727 222.595342 
L 155.808 222.391423 
L 159.054545 221.674235 
L 160.677818 221.470611 
L 164.736 220.65858 
L 166.359273 220.364179 
L 168.794182 219.814077 
L 171.229091 219.433016 
L 173.664 218.871651 
L 176.098909 218.491889 
L 178.533818 217.918435 
L 180.968727 217.538698 
L 183.403636 216.952244 
L 185.838545 216.571427 
L 188.273455 215.970776 
L 190.708364 215.587512 
L 193.143273 214.971217 
L 195.578182 214.584098 
L 198.013091 213.950452 
L 200.448 213.557893 
L 202.882909 212.904821 
L 205.317818 212.505017 
L 208.564364 211.695849 
L 210.187636 211.420916 
L 213.434182 210.578084 
L 215.057455 210.300141 
L 218.304 209.418759 
L 219.927273 209.136234 
L 223.173818 208.210181 
L 224.797091 207.921078 
L 228.043636 206.942776 
L 229.666909 206.644686 
L 233.725091 205.465334 
L 235.348364 205.031146 
L 236.971636 204.396341 
L 241.029818 203.226285 
L 242.653091 202.651034 
L 244.276364 202.302769 
L 245.899636 201.631267 
L 247.522909 200.989401 
L 249.146182 200.611728 
L 250.769455 199.885403 
L 252.392727 199.160073 
L 254.016 198.742172 
L 254.827636 198.406873 
L 257.262545 197.112916 
L 258.885818 196.63884 
L 259.697455 196.26876 
L 262.132364 194.775199 
L 263.755636 194.220736 
L 264.567273 193.801913 
L 267.002182 192.037439 
L 269.437091 190.873962 
L 271.872 188.726299 
L 274.306909 187.26974 
L 276.741818 184.551193 
L 279.176727 182.615803 
L 280.8 180.159199 
L 281.611636 178.987127 
L 284.046545 176.207144 
L 284.858182 174.614161 
L 286.481455 170.990723 
L 288.104727 168.297557 
L 288.916364 166.562088 
L 289.728 164.084336 
L 291.351273 158.224098 
L 292.974545 153.333756 
L 293.786182 150.161199 
L 294.597818 145.711424 
L 297.032727 130.147374 
L 297.844364 125.453129 
L 298.656 119.612158 
L 300.279273 105.253429 
L 301.090909 103.330155 
L 301.902545 111.837256 
L 302.714182 134.335265 
L 303.525818 170.196706 
L 305.149091 254.256169 
L 305.960727 282.902858 
L 306.772364 295.488 
L 307.584 295.296759 
L 309.207273 282.939673 
L 311.642182 269.246049 
L 313.265455 257.767097 
L 314.077091 253.556835 
L 314.888727 250.857803 
L 315.700364 248.70449 
L 316.512 246.060559 
L 318.135273 239.51215 
L 318.946909 237.147932 
L 319.758545 235.769694 
L 320.570182 234.713989 
L 321.381818 233.211491 
L 323.005091 228.943408 
L 323.816727 227.394435 
L 324.628364 226.597229 
L 325.44 226.048881 
L 326.251636 225.109067 
L 328.686545 220.845904 
L 329.498182 220.330638 
L 330.309818 220.044402 
L 331.121455 219.418611 
L 333.556364 216.026439 
L 334.368 215.659616 
L 335.179636 215.523496 
L 335.991273 215.093079 
L 336.802909 214.163718 
L 337.614545 213.040554 
L 338.426182 212.230037 
L 339.237818 211.944669 
L 340.049455 211.901994 
L 340.861091 211.604658 
L 341.672727 210.825138 
L 342.484364 209.822206 
L 343.296 209.081488 
L 344.107636 208.840361 
L 344.919273 208.859951 
L 345.730909 208.660611 
L 346.542545 207.990034 
L 347.354182 207.067034 
L 348.165818 206.363903 
L 348.977455 206.144369 
L 349.789091 206.20787 
L 350.600727 206.085849 
L 351.412364 205.499137 
L 352.224 204.630173 
L 353.035636 203.94314 
L 353.847273 203.730066 
L 354.658909 203.825986 
L 355.470545 203.768834 
L 356.282182 203.250232 
L 357.905455 201.73151 
L 358.717091 201.513871 
L 359.528727 201.634629 
L 360.340364 201.634962 
L 361.152 201.174599 
L 362.775273 199.668943 
L 363.586909 199.437825 
L 365.210182 199.631714 
L 366.021818 199.223675 
L 367.645091 197.712283 
L 368.456727 197.45979 
L 370.08 197.720434 
L 370.891636 197.361684 
L 372.514909 195.829272 
L 373.326545 195.547826 
L 374.949818 195.871441 
L 375.761455 195.561224 
L 377.384727 193.994937 
L 378.196364 193.676684 
L 379.819636 194.059694 
L 380.631273 193.797985 
L 382.254545 192.184763 
L 383.066182 191.821736 
L 384.689455 192.265937 
L 385.501091 192.057467 
L 387.124364 190.38863 
L 387.936 189.97102 
L 388.747636 190.152826 
L 389.559273 190.473002 
L 390.370909 190.321297 
L 391.182545 189.538864 
L 391.994182 188.586753 
L 392.805818 188.104328 
L 393.617455 188.282598 
L 394.429091 188.663751 
L 395.240727 188.575225 
L 396.052364 187.790582 
L 396.864 186.766284 
L 397.675636 186.207041 
L 398.487273 186.376112 
L 398.487273 186.376112 
" clip-path="url(#p02267e2e8b)" style="fill: none; stroke-dasharray: 7.4,3.2; stroke-dashoffset: 0; stroke: #ff0000; stroke-width: 2"/>
   </g>
   <g id="patch_3">
    <path d="M 57.6 307.584 
L 57.6 41.472 
" style="fill: none; stroke: #000000; stroke-width: 0.8; stroke-linejoin: miter; stroke-linecap: square"/>
   </g>
   <g id="patch_4">
    <path d="M 414.72 307.584 
L 414.72 41.472 
" style="fill: none; stroke: #000000; stroke-width: 0.8; stroke-linejoin: miter; stroke-linecap: square"/>
   </g>
   <g id="patch_5">
    <path d="M 57.6 307.584 
L 414.72 307.584 
" style="fill: none; stroke: #000000; stroke-width: 0.8; stroke-linejoin: miter; stroke-linecap: square"/>
   </g>
   <g id="patch_6">
    <path d="M 57.6 41.472 
L 414.72 41.472 
" style="fill: none; stroke: #000000; stroke-width: 0.8; stroke-linejoin: miter; stroke-linecap: square"/>
   </g>
   <g id="text_21">
    <!-- feed point impedance -->
    <g transform="translate(170.447812 35.472)scale(0.12 -0.12)">
     <defs>
      <path id="DejaVuSans-6f" d="M 1959 3097 
Q 1497 3097 1228 2736 
Q 959 2375 959 1747 
Q 959 1119 1226 758 
Q 1494 397 1959 397 
Q 2419 397 2687 759 
Q 2956 1122 2956 1747 
Q 2956 2369 2687 2733 
Q 2419 3097 1959 3097 
z
M 1959 3584 
Q 2709 3584 3137 3096 
Q 3566 2609 3566 1747 
Q 3566 888 3137 398 
Q 2709 -91 1959 -91 
Q 1206 -91 779 398 
Q 353 888 353 1747 
Q 353 2609 779 3096 
Q 1206 3584 1959 3584 
z
" transform="scale(0.015625)"/>
      <path id="DejaVuSans-74" d="M 1172 4494 
L 1172 3500 
L 2356 3500 
L 2356 3053 
L 1172 3053 
L 1172 1153 
Q 1172 725 1289 603 
Q 1406 481 1766 481 
L 2356 481 
L 2356 0 
L 1766 0 
Q 1100 0 847 248 
Q 594 497 594 1153 
L 594 3053 
L 172 3053 
L 172 3500 
L 594 3500 
L 594 4494 
L 1172 4494 
z
" transform="scale(0.015625)"/>
     </defs>
     <use xlink:href="#DejaVuSans-66"/>
     <use xlink:href="#DejaVuSans-65" x="35.205078"/>
     <use xlink:href="#DejaVuSans-65" x="96.728516"/>
     <use xlink:href="#DejaVuSans-64" x="158.251953"/>
     <use xlink:href="#DejaVuSans-20" x="221.728516"/>
     <use xlink:href="#DejaVuSans-70" x="253.515625"/>
     <use xlink:href="#DejaVuSans-6f" x="316.992188"/>
     <use xlink:href="#DejaVuSans-69" x="378.173828"/>
     <use xlink:href="#DejaVuSans-6e" x="405.957031"/>
     <use xlink:href="#DejaVuSans-74" x="469.335938"/>
     <use xlink:href="#DejaVuSans-20" x="508.544922"/>
     <use xlink:href="#DejaVuSans-69" x="540.332031"/>
     <use xlink:href="#DejaVuSans-6d" x="568.115234"/>
     <use xlink:href="#DejaVuSans-70" x="665.527344"/>
     <use xlink:href="#DejaVuSans-65" x="729.003906"/>
     <use xlink:href="#DejaVuSans-64" x="790.527344"/>
     <use xlink:href="#DejaVuSans-61" x="854.003906"/>
     <use xlink:href="#DejaVuSans-6e" x="915.283203"/>
     <use xlink:href="#DejaVuSans-63" x="978.662109"/>
     <use xlink:href="#DejaVuSans-65" x="1033.642578"/>
    </g>
   </g>
   <g id="legend_1">
    <g id="patch_7">
     <path d="M 346.22 78.82825 
L 407.72 78.82825 
Q 409.72 78.82825 409.72 76.82825 
L 409.72 48.472 
Q 409.72 46.472 407.72 46.472 
L 346.22 46.472 
Q 344.22 46.472 344.22 48.472 
L 344.22 76.82825 
Q 344.22 78.82825 346.22 78.82825 
z
" style="fill: #ffffff; opacity: 0.8; stroke: #cccccc; stroke-linejoin: miter"/>
    </g>
    <g id="line2d_39">
     <path d="M 348.22 54.570437 
L 358.22 54.570437 
L 368.22 54.570437 
" style="fill: none; stroke: #000000; stroke-width: 2; stroke-linecap: square"/>
    </g>
    <g id="text_22">
     <!-- $\Re(Z_{in})$ -->
     <g transform="translate(376.22 58.070437)scale(0.1 -0.1)">
      <defs>
       <path id="DejaVuSans-Oblique-211c" d="M 4006 -91 
Q 3750 481 3750 978 
Q 3750 1416 3681 1700 
Q 3556 2219 3309 2219 
Q 3178 2219 2891 2084 
L 2516 1909 
L 2516 1288 
Q 2516 644 2194 275 
Q 1872 -91 1434 -91 
Q 994 -91 675 275 
Q 353 644 353 1194 
Q 494 1156 638 1119 
Q 638 738 838 469 
Q 1038 197 1263 197 
Q 1488 197 1684 469 
Q 1884 741 1884 1209 
L 1884 3294 
Q 1884 3759 1684 4034 
Q 1488 4306 1200 4306 
Q 947 4306 744 4034 
Q 544 3766 544 3450 
Q 544 3134 744 2866 
Q 944 2594 1203 2594 
L 1372 2306 
Q 900 2306 581 2672 
Q 259 3041 259 3528 
Q 259 4019 581 4384 
Q 900 4750 1372 4750 
Q 1878 4750 2194 4384 
Q 2288 4275 2338 4175 
L 2997 4481 
Q 3581 4753 3931 4753 
Q 4078 4753 4191 4709 
Q 4584 4556 4584 4003 
Q 4584 3731 4381 3347 
Q 4175 2959 3784 2666 
Q 3966 2666 4119 2513 
Q 4231 2400 4316 2075 
Q 4416 1691 4416 1281 
Q 4416 881 4556 513 
L 5006 722 
L 5138 438 
L 4006 -91 
z
M 2450 3897 
Q 2516 3663 2516 3375 
L 2516 2241 
L 2997 2463 
Q 3447 2672 3688 2997 
Q 3919 3316 3919 3694 
Q 3919 4166 3688 4266 
Q 3613 4297 3516 4297 
Q 3316 4297 2997 4150 
L 2450 3897 
z
" transform="scale(0.015625)"/>
       <path id="DejaVuSans-Oblique-5a" d="M 838 4666 
L 4500 4666 
L 4409 4184 
L 794 531 
L 3769 531 
L 3669 0 
L -141 0 
L -50 481 
L 3566 4134 
L 738 4134 
L 838 4666 
z
" transform="scale(0.015625)"/>
       <path id="DejaVuSans-Oblique-69" d="M 1172 4863 
L 1747 4863 
L 1606 4134 
L 1031 4134 
L 1172 4863 
z
M 909 3500 
L 1484 3500 
L 800 0 
L 225 0 
L 909 3500 
z
" transform="scale(0.015625)"/>
       <path id="DejaVuSans-Oblique-6e" d="M 3566 2113 
L 3156 0 
L 2578 0 
L 2988 2091 
Q 3016 2238 3031 2350 
Q 3047 2463 3047 2528 
Q 3047 2791 2881 2937 
Q 2716 3084 2419 3084 
Q 1956 3084 1622 2776 
Q 1288 2469 1184 1941 
L 800 0 
L 225 0 
L 903 3500 
L 1478 3500 
L 1363 2950 
Q 1603 3253 1940 3418 
Q 2278 3584 2650 3584 
Q 3113 3584 3367 3334 
Q 3622 3084 3622 2631 
Q 3622 2519 3608 2391 
Q 3594 2263 3566 2113 
z
" transform="scale(0.015625)"/>
      </defs>
      <use xlink:href="#DejaVuSans-Oblique-211c" transform="translate(0 0.125)"/>
      <use xlink:href="#DejaVuSans-28" transform="translate(81.396484 0.125)"/>
      <use xlink:href="#DejaVuSans-Oblique-5a" transform="translate(120.410156 0.125)"/>
      <use xlink:href="#DejaVuSans-Oblique-69" transform="translate(188.916016 -16.28125)scale(0.7)"/>
      <use xlink:href="#DejaVuSans-Oblique-6e" transform="translate(208.364258 -16.28125)scale(0.7)"/>
      <use xlink:href="#DejaVuSans-29" transform="translate(255.463867 0.125)"/>
     </g>
    </g>
    <g id="line2d_40">
     <path d="M 348.22 69.248562 
L 358.22 69.248562 
L 368.22 69.248562 
" style="fill: none; stroke-dasharray: 7.4,3.2; stroke-dashoffset: 0; stroke: #ff0000; stroke-width: 2"/>
    </g>
    <g id="text_23">
     <!-- $\Im(Z_{in})$ -->
     <g transform="translate(376.22 72.748562)scale(0.1 -0.1)">
      <defs>
       <path id="DejaVuSans-Oblique-2111" d="M 331 281 
L 769 797 
Q 1116 919 1481 919 
Q 1659 919 2072 669 
Q 2522 400 2625 400 
Q 3003 400 3316 828 
Q 3538 1131 3538 1366 
Q 3538 1759 3344 2109 
Q 3094 2566 3094 2906 
Q 3094 3219 3344 3719 
L 4009 4156 
Q 3759 3722 3759 3344 
Q 3759 3009 4009 2547 
Q 4175 2241 4175 1653 
Q 4175 1359 3544 603 
Q 2963 -91 2206 -91 
Q 2038 -91 1634 156 
Q 1219 406 1044 406 
Q 750 406 331 281 
z
M 1094 4575 
Q 1434 4750 1875 4750 
Q 2259 4750 2656 4597 
Q 3038 4450 3438 4450 
Q 3828 4450 4219 4631 
L 3594 4100 
Q 3159 3919 2813 3919 
Q 2366 3919 2031 4072 
Q 1697 4225 1250 4225 
Q 869 4225 469 4044 
L 1094 4575 
z
" transform="scale(0.015625)"/>
      </defs>
      <use xlink:href="#DejaVuSans-Oblique-2111" transform="translate(0 0.125)"/>
      <use xlink:href="#DejaVuSans-28" transform="translate(69.726562 0.125)"/>
      <use xlink:href="#DejaVuSans-Oblique-5a" transform="translate(108.740234 0.125)"/>
      <use xlink:href="#DejaVuSans-Oblique-69" transform="translate(177.246094 -16.28125)scale(0.7)"/>
      <use xlink:href="#DejaVuSans-Oblique-6e" transform="translate(196.694336 -16.28125)scale(0.7)"/>
      <use xlink:href="#DejaVuSans-29" transform="translate(243.793945 0.125)"/>
     </g>
    </g>
   </g>
  </g>
 </g>
 <defs>
  <clipPath id="p02267e2e8b">
   <rect x="57.6" y="41.472" width="357.12" height="266.112"/>
  </clipPath>
 </defs>
</svg>
