<?xml version="1.0" encoding="utf-8" standalone="no"?>
<!DOCTYPE svg PUBLIC "-//W3C//DTD SVG 1.1//EN"
  "http://www.w3.org/Graphics/SVG/1.1/DTD/svg11.dtd">
<svg xmlns:xlink="http://www.w3.org/1999/xlink" width="1080pt" height="504pt" viewBox="0 0 1080 504" xmlns="http://www.w3.org/2000/svg" version="1.1">
 <metadata>
  <rdf:RDF xmlns:dc="http://purl.org/dc/elements/1.1/" xmlns:cc="http://creativecommons.org/ns#" xmlns:rdf="http://www.w3.org/1999/02/22-rdf-syntax-ns#">
   <cc:Work>
    <dc:type rdf:resource="http://purl.org/dc/dcmitype/StillImage"/>
    <dc:date>2024-11-16T06:22:09.176819</dc:date>
    <dc:format>image/svg+xml</dc:format>
    <dc:creator>
     <cc:Agent>
      <dc:title>Matplotlib v3.5.1, https://matplotlib.org/</dc:title>
     </cc:Agent>
    </dc:creator>
   </cc:Work>
  </rdf:RDF>
 </metadata>
 <defs>
  <style type="text/css">*{stroke-linejoin: round; stroke-linecap: butt}</style>
 </defs>
 <g id="figure_1">
  <g id="patch_1">
   <path d="M 0 504 
L 1080 504 
L 1080 0 
L 0 0 
z
" style="fill: #ffffff"/>
  </g>
  <g id="axes_1">
   <g id="patch_2">
    <path d="M 515.454545 254.52 
C 515.454545 229.539583 510.533948 204.80207 500.974357 181.723174 
C 491.414765 158.644279 477.402089 137.672827 459.738267 120.009005 
C 442.074445 102.345184 421.102994 88.332508 398.024098 78.772916 
C 374.945203 69.213325 350.207689 64.292727 325.227273 64.292727 
C 300.246856 64.292727 275.509343 69.213325 252.430447 78.772916 
C 229.351551 88.332508 208.3801 102.345184 190.716278 120.009005 
C 173.052456 137.672827 159.03978 158.644279 149.480189 181.723174 
C 139.920597 204.80207 135 229.539583 135 254.52 
C 135 279.500417 139.920597 304.23793 149.480189 327.316826 
C 159.03978 350.395721 173.052456 371.367173 190.716278 389.030995 
C 208.3801 406.694816 229.351551 420.707492 252.430447 430.267084 
C 275.509343 439.826675 300.246856 444.747273 325.227273 444.747273 
C 350.207689 444.747273 374.945203 439.826675 398.024098 430.267084 
C 421.102994 420.707492 442.074445 406.694816 459.738267 389.030995 
C 477.402089 371.367173 491.414765 350.395721 500.974357 327.316826 
C 510.533948 304.23793 515.454545 279.500417 515.454545 254.52 
M 325.227273 254.52 
C 325.227273 254.52 325.227273 254.52 325.227273 254.52 
C 325.227273 254.52 325.227273 254.52 325.227273 254.52 
C 325.227273 254.52 325.227273 254.52 325.227273 254.52 
C 325.227273 254.52 325.227273 254.52 325.227273 254.52 
C 325.227273 254.52 325.227273 254.52 325.227273 254.52 
C 325.227273 254.52 325.227273 254.52 325.227273 254.52 
C 325.227273 254.52 325.227273 254.52 325.227273 254.52 
C 325.227273 254.52 325.227273 254.52 325.227273 254.52 
C 325.227273 254.52 325.227273 254.52 325.227273 254.52 
C 325.227273 254.52 325.227273 254.52 325.227273 254.52 
C 325.227273 254.52 325.227273 254.52 325.227273 254.52 
C 325.227273 254.52 325.227273 254.52 325.227273 254.52 
C 325.227273 254.52 325.227273 254.52 325.227273 254.52 
C 325.227273 254.52 325.227273 254.52 325.227273 254.52 
C 325.227273 254.52 325.227273 254.52 325.227273 254.52 
C 325.227273 254.52 325.227273 254.52 325.227273 254.52 
M 515.454545 254.52 
z
" style="fill: #ffffff"/>
   </g>
   <g id="matplotlib.axis_1">
    <g id="xtick_1">
     <g id="line2d_1">
      <path d="M 325.227273 254.52 
L 325.227273 64.292727 
" clip-path="url(#p4eee65acfa)" style="fill: none; stroke: #b0b0b0; stroke-width: 0.8; stroke-linecap: square"/>
     </g>
     <g id="text_1">
      <!-- 0° -->
      <g transform="translate(319.546023 53.052102)scale(0.1 -0.1)">
       <defs>
        <path id="DejaVuSans-30" d="M 2034 4250 
Q 1547 4250 1301 3770 
Q 1056 3291 1056 2328 
Q 1056 1369 1301 889 
Q 1547 409 2034 409 
Q 2525 409 2770 889 
Q 3016 1369 3016 2328 
Q 3016 3291 2770 3770 
Q 2525 4250 2034 4250 
z
M 2034 4750 
Q 2819 4750 3233 4129 
Q 3647 3509 3647 2328 
Q 3647 1150 3233 529 
Q 2819 -91 2034 -91 
Q 1250 -91 836 529 
Q 422 1150 422 2328 
Q 422 3509 836 4129 
Q 1250 4750 2034 4750 
z
" transform="scale(0.015625)"/>
        <path id="DejaVuSans-b0" d="M 1600 4347 
Q 1350 4347 1178 4173 
Q 1006 4000 1006 3750 
Q 1006 3503 1178 3333 
Q 1350 3163 1600 3163 
Q 1850 3163 2022 3333 
Q 2194 3503 2194 3750 
Q 2194 3997 2020 4172 
Q 1847 4347 1600 4347 
z
M 1600 4750 
Q 1800 4750 1984 4673 
Q 2169 4597 2303 4453 
Q 2447 4313 2519 4134 
Q 2591 3956 2591 3750 
Q 2591 3338 2302 3052 
Q 2013 2766 1594 2766 
Q 1172 2766 890 3047 
Q 609 3328 609 3750 
Q 609 4169 896 4459 
Q 1184 4750 1600 4750 
z
" transform="scale(0.015625)"/>
       </defs>
       <use xlink:href="#DejaVuSans-30"/>
       <use xlink:href="#DejaVuSans-b0" x="63.623047"/>
      </g>
     </g>
    </g>
    <g id="xtick_2">
     <g id="line2d_2">
      <path d="M 325.227273 254.52 
L 459.738267 120.009005 
" clip-path="url(#p4eee65acfa)" style="fill: none; stroke: #b0b0b0; stroke-width: 0.8; stroke-linecap: square"/>
     </g>
     <g id="text_2">
      <!-- 45° -->
      <g transform="translate(460.775262 112.868886)scale(0.1 -0.1)">
       <defs>
        <path id="DejaVuSans-34" d="M 2419 4116 
L 825 1625 
L 2419 1625 
L 2419 4116 
z
M 2253 4666 
L 3047 4666 
L 3047 1625 
L 3713 1625 
L 3713 1100 
L 3047 1100 
L 3047 0 
L 2419 0 
L 2419 1100 
L 313 1100 
L 313 1709 
L 2253 4666 
z
" transform="scale(0.015625)"/>
        <path id="DejaVuSans-35" d="M 691 4666 
L 3169 4666 
L 3169 4134 
L 1269 4134 
L 1269 2991 
Q 1406 3038 1543 3061 
Q 1681 3084 1819 3084 
Q 2600 3084 3056 2656 
Q 3513 2228 3513 1497 
Q 3513 744 3044 326 
Q 2575 -91 1722 -91 
Q 1428 -91 1123 -41 
Q 819 9 494 109 
L 494 744 
Q 775 591 1075 516 
Q 1375 441 1709 441 
Q 2250 441 2565 725 
Q 2881 1009 2881 1497 
Q 2881 1984 2565 2268 
Q 2250 2553 1709 2553 
Q 1456 2553 1204 2497 
Q 953 2441 691 2322 
L 691 4666 
z
" transform="scale(0.015625)"/>
       </defs>
       <use xlink:href="#DejaVuSans-34"/>
       <use xlink:href="#DejaVuSans-35" x="63.623047"/>
       <use xlink:href="#DejaVuSans-b0" x="127.246094"/>
      </g>
     </g>
    </g>
    <g id="xtick_3">
     <g id="line2d_3">
      <path d="M 325.227273 254.52 
L 515.454545 254.52 
" clip-path="url(#p4eee65acfa)" style="fill: none; stroke: #b0b0b0; stroke-width: 0.8; stroke-linecap: square"/>
     </g>
     <g id="text_3">
      <!-- 90° -->
      <g transform="translate(520.592045 257.279375)scale(0.1 -0.1)">
       <defs>
        <path id="DejaVuSans-39" d="M 703 97 
L 703 672 
Q 941 559 1184 500 
Q 1428 441 1663 441 
Q 2288 441 2617 861 
Q 2947 1281 2994 2138 
Q 2813 1869 2534 1725 
Q 2256 1581 1919 1581 
Q 1219 1581 811 2004 
Q 403 2428 403 3163 
Q 403 3881 828 4315 
Q 1253 4750 1959 4750 
Q 2769 4750 3195 4129 
Q 3622 3509 3622 2328 
Q 3622 1225 3098 567 
Q 2575 -91 1691 -91 
Q 1453 -91 1209 -44 
Q 966 3 703 97 
z
M 1959 2075 
Q 2384 2075 2632 2365 
Q 2881 2656 2881 3163 
Q 2881 3666 2632 3958 
Q 2384 4250 1959 4250 
Q 1534 4250 1286 3958 
Q 1038 3666 1038 3163 
Q 1038 2656 1286 2365 
Q 1534 2075 1959 2075 
z
" transform="scale(0.015625)"/>
       </defs>
       <use xlink:href="#DejaVuSans-39"/>
       <use xlink:href="#DejaVuSans-30" x="63.623047"/>
       <use xlink:href="#DejaVuSans-b0" x="127.246094"/>
      </g>
     </g>
    </g>
    <g id="xtick_4">
     <g id="line2d_4">
      <path d="M 325.227273 254.52 
L 459.738267 389.030995 
" clip-path="url(#p4eee65acfa)" style="fill: none; stroke: #b0b0b0; stroke-width: 0.8; stroke-linecap: square"/>
     </g>
     <g id="text_4">
      <!-- 135° -->
      <g transform="translate(457.594012 401.689864)scale(0.1 -0.1)">
       <defs>
        <path id="DejaVuSans-31" d="M 794 531 
L 1825 531 
L 1825 4091 
L 703 3866 
L 703 4441 
L 1819 4666 
L 2450 4666 
L 2450 531 
L 3481 531 
L 3481 0 
L 794 0 
L 794 531 
z
" transform="scale(0.015625)"/>
        <path id="DejaVuSans-33" d="M 2597 2516 
Q 3050 2419 3304 2112 
Q 3559 1806 3559 1356 
Q 3559 666 3084 287 
Q 2609 -91 1734 -91 
Q 1441 -91 1130 -33 
Q 819 25 488 141 
L 488 750 
Q 750 597 1062 519 
Q 1375 441 1716 441 
Q 2309 441 2620 675 
Q 2931 909 2931 1356 
Q 2931 1769 2642 2001 
Q 2353 2234 1838 2234 
L 1294 2234 
L 1294 2753 
L 1863 2753 
Q 2328 2753 2575 2939 
Q 2822 3125 2822 3475 
Q 2822 3834 2567 4026 
Q 2313 4219 1838 4219 
Q 1578 4219 1281 4162 
Q 984 4106 628 3988 
L 628 4550 
Q 988 4650 1302 4700 
Q 1616 4750 1894 4750 
Q 2613 4750 3031 4423 
Q 3450 4097 3450 3541 
Q 3450 3153 3228 2886 
Q 3006 2619 2597 2516 
z
" transform="scale(0.015625)"/>
       </defs>
       <use xlink:href="#DejaVuSans-31"/>
       <use xlink:href="#DejaVuSans-33" x="63.623047"/>
       <use xlink:href="#DejaVuSans-35" x="127.246094"/>
       <use xlink:href="#DejaVuSans-b0" x="190.869141"/>
      </g>
     </g>
    </g>
    <g id="xtick_5">
     <g id="line2d_5">
      <path d="M 325.227273 254.52 
L 325.227273 444.747273 
" clip-path="url(#p4eee65acfa)" style="fill: none; stroke: #b0b0b0; stroke-width: 0.8; stroke-linecap: square"/>
     </g>
     <g id="text_5">
      <!-- 180° -->
      <g transform="translate(313.183523 461.506648)scale(0.1 -0.1)">
       <defs>
        <path id="DejaVuSans-38" d="M 2034 2216 
Q 1584 2216 1326 1975 
Q 1069 1734 1069 1313 
Q 1069 891 1326 650 
Q 1584 409 2034 409 
Q 2484 409 2743 651 
Q 3003 894 3003 1313 
Q 3003 1734 2745 1975 
Q 2488 2216 2034 2216 
z
M 1403 2484 
Q 997 2584 770 2862 
Q 544 3141 544 3541 
Q 544 4100 942 4425 
Q 1341 4750 2034 4750 
Q 2731 4750 3128 4425 
Q 3525 4100 3525 3541 
Q 3525 3141 3298 2862 
Q 3072 2584 2669 2484 
Q 3125 2378 3379 2068 
Q 3634 1759 3634 1313 
Q 3634 634 3220 271 
Q 2806 -91 2034 -91 
Q 1263 -91 848 271 
Q 434 634 434 1313 
Q 434 1759 690 2068 
Q 947 2378 1403 2484 
z
M 1172 3481 
Q 1172 3119 1398 2916 
Q 1625 2713 2034 2713 
Q 2441 2713 2670 2916 
Q 2900 3119 2900 3481 
Q 2900 3844 2670 4047 
Q 2441 4250 2034 4250 
Q 1625 4250 1398 4047 
Q 1172 3844 1172 3481 
z
" transform="scale(0.015625)"/>
       </defs>
       <use xlink:href="#DejaVuSans-31"/>
       <use xlink:href="#DejaVuSans-38" x="63.623047"/>
       <use xlink:href="#DejaVuSans-30" x="127.246094"/>
       <use xlink:href="#DejaVuSans-b0" x="190.869141"/>
      </g>
     </g>
    </g>
    <g id="xtick_6">
     <g id="line2d_6">
      <path d="M 325.227273 254.52 
L 190.716278 389.030995 
" clip-path="url(#p4eee65acfa)" style="fill: none; stroke: #b0b0b0; stroke-width: 0.8; stroke-linecap: square"/>
     </g>
     <g id="text_6">
      <!-- 225° -->
      <g transform="translate(168.773033 401.689864)scale(0.1 -0.1)">
       <defs>
        <path id="DejaVuSans-32" d="M 1228 531 
L 3431 531 
L 3431 0 
L 469 0 
L 469 531 
Q 828 903 1448 1529 
Q 2069 2156 2228 2338 
Q 2531 2678 2651 2914 
Q 2772 3150 2772 3378 
Q 2772 3750 2511 3984 
Q 2250 4219 1831 4219 
Q 1534 4219 1204 4116 
Q 875 4013 500 3803 
L 500 4441 
Q 881 4594 1212 4672 
Q 1544 4750 1819 4750 
Q 2544 4750 2975 4387 
Q 3406 4025 3406 3419 
Q 3406 3131 3298 2873 
Q 3191 2616 2906 2266 
Q 2828 2175 2409 1742 
Q 1991 1309 1228 531 
z
" transform="scale(0.015625)"/>
       </defs>
       <use xlink:href="#DejaVuSans-32"/>
       <use xlink:href="#DejaVuSans-32" x="63.623047"/>
       <use xlink:href="#DejaVuSans-35" x="127.246094"/>
       <use xlink:href="#DejaVuSans-b0" x="190.869141"/>
      </g>
     </g>
    </g>
    <g id="xtick_7">
     <g id="line2d_7">
      <path d="M 325.227273 254.52 
L 135 254.52 
" clip-path="url(#p4eee65acfa)" style="fill: none; stroke: #b0b0b0; stroke-width: 0.8; stroke-linecap: square"/>
     </g>
     <g id="text_7">
      <!-- 270° -->
      <g transform="translate(108.95625 257.279375)scale(0.1 -0.1)">
       <defs>
        <path id="DejaVuSans-37" d="M 525 4666 
L 3525 4666 
L 3525 4397 
L 1831 0 
L 1172 0 
L 2766 4134 
L 525 4134 
L 525 4666 
z
" transform="scale(0.015625)"/>
       </defs>
       <use xlink:href="#DejaVuSans-32"/>
       <use xlink:href="#DejaVuSans-37" x="63.623047"/>
       <use xlink:href="#DejaVuSans-30" x="127.246094"/>
       <use xlink:href="#DejaVuSans-b0" x="190.869141"/>
      </g>
     </g>
    </g>
    <g id="xtick_8">
     <g id="line2d_8">
      <path d="M 325.227273 254.52 
L 190.716278 120.009005 
" clip-path="url(#p4eee65acfa)" style="fill: none; stroke: #b0b0b0; stroke-width: 0.8; stroke-linecap: square"/>
     </g>
     <g id="text_8">
      <!-- 315° -->
      <g transform="translate(168.773033 112.868886)scale(0.1 -0.1)">
       <use xlink:href="#DejaVuSans-33"/>
       <use xlink:href="#DejaVuSans-31" x="63.623047"/>
       <use xlink:href="#DejaVuSans-35" x="127.246094"/>
       <use xlink:href="#DejaVuSans-b0" x="190.869141"/>
      </g>
     </g>
    </g>
    <g id="text_9">
     <!-- theta (deg) -->
     <g transform="translate(297.08196 475.184773)scale(0.1 -0.1)">
      <defs>
       <path id="DejaVuSans-74" d="M 1172 4494 
L 1172 3500 
L 2356 3500 
L 2356 3053 
L 1172 3053 
L 1172 1153 
Q 1172 725 1289 603 
Q 1406 481 1766 481 
L 2356 481 
L 2356 0 
L 1766 0 
Q 1100 0 847 248 
Q 594 497 594 1153 
L 594 3053 
L 172 3053 
L 172 3500 
L 594 3500 
L 594 4494 
L 1172 4494 
z
" transform="scale(0.015625)"/>
       <path id="DejaVuSans-68" d="M 3513 2113 
L 3513 0 
L 2938 0 
L 2938 2094 
Q 2938 2591 2744 2837 
Q 2550 3084 2163 3084 
Q 1697 3084 1428 2787 
Q 1159 2491 1159 1978 
L 1159 0 
L 581 0 
L 581 4863 
L 1159 4863 
L 1159 2956 
Q 1366 3272 1645 3428 
Q 1925 3584 2291 3584 
Q 2894 3584 3203 3211 
Q 3513 2838 3513 2113 
z
" transform="scale(0.015625)"/>
       <path id="DejaVuSans-65" d="M 3597 1894 
L 3597 1613 
L 953 1613 
Q 991 1019 1311 708 
Q 1631 397 2203 397 
Q 2534 397 2845 478 
Q 3156 559 3463 722 
L 3463 178 
Q 3153 47 2828 -22 
Q 2503 -91 2169 -91 
Q 1331 -91 842 396 
Q 353 884 353 1716 
Q 353 2575 817 3079 
Q 1281 3584 2069 3584 
Q 2775 3584 3186 3129 
Q 3597 2675 3597 1894 
z
M 3022 2063 
Q 3016 2534 2758 2815 
Q 2500 3097 2075 3097 
Q 1594 3097 1305 2825 
Q 1016 2553 972 2059 
L 3022 2063 
z
" transform="scale(0.015625)"/>
       <path id="DejaVuSans-61" d="M 2194 1759 
Q 1497 1759 1228 1600 
Q 959 1441 959 1056 
Q 959 750 1161 570 
Q 1363 391 1709 391 
Q 2188 391 2477 730 
Q 2766 1069 2766 1631 
L 2766 1759 
L 2194 1759 
z
M 3341 1997 
L 3341 0 
L 2766 0 
L 2766 531 
Q 2569 213 2275 61 
Q 1981 -91 1556 -91 
Q 1019 -91 701 211 
Q 384 513 384 1019 
Q 384 1609 779 1909 
Q 1175 2209 1959 2209 
L 2766 2209 
L 2766 2266 
Q 2766 2663 2505 2880 
Q 2244 3097 1772 3097 
Q 1472 3097 1187 3025 
Q 903 2953 641 2809 
L 641 3341 
Q 956 3463 1253 3523 
Q 1550 3584 1831 3584 
Q 2591 3584 2966 3190 
Q 3341 2797 3341 1997 
z
" transform="scale(0.015625)"/>
       <path id="DejaVuSans-20" transform="scale(0.015625)"/>
       <path id="DejaVuSans-28" d="M 1984 4856 
Q 1566 4138 1362 3434 
Q 1159 2731 1159 2009 
Q 1159 1288 1364 580 
Q 1569 -128 1984 -844 
L 1484 -844 
Q 1016 -109 783 600 
Q 550 1309 550 2009 
Q 550 2706 781 3412 
Q 1013 4119 1484 4856 
L 1984 4856 
z
" transform="scale(0.015625)"/>
       <path id="DejaVuSans-64" d="M 2906 2969 
L 2906 4863 
L 3481 4863 
L 3481 0 
L 2906 0 
L 2906 525 
Q 2725 213 2448 61 
Q 2172 -91 1784 -91 
Q 1150 -91 751 415 
Q 353 922 353 1747 
Q 353 2572 751 3078 
Q 1150 3584 1784 3584 
Q 2172 3584 2448 3432 
Q 2725 3281 2906 2969 
z
M 947 1747 
Q 947 1113 1208 752 
Q 1469 391 1925 391 
Q 2381 391 2643 752 
Q 2906 1113 2906 1747 
Q 2906 2381 2643 2742 
Q 2381 3103 1925 3103 
Q 1469 3103 1208 2742 
Q 947 2381 947 1747 
z
" transform="scale(0.015625)"/>
       <path id="DejaVuSans-67" d="M 2906 1791 
Q 2906 2416 2648 2759 
Q 2391 3103 1925 3103 
Q 1463 3103 1205 2759 
Q 947 2416 947 1791 
Q 947 1169 1205 825 
Q 1463 481 1925 481 
Q 2391 481 2648 825 
Q 2906 1169 2906 1791 
z
M 3481 434 
Q 3481 -459 3084 -895 
Q 2688 -1331 1869 -1331 
Q 1566 -1331 1297 -1286 
Q 1028 -1241 775 -1147 
L 775 -588 
Q 1028 -725 1275 -790 
Q 1522 -856 1778 -856 
Q 2344 -856 2625 -561 
Q 2906 -266 2906 331 
L 2906 616 
Q 2728 306 2450 153 
Q 2172 0 1784 0 
Q 1141 0 747 490 
Q 353 981 353 1791 
Q 353 2603 747 3093 
Q 1141 3584 1784 3584 
Q 2172 3584 2450 3431 
Q 2728 3278 2906 2969 
L 2906 3500 
L 3481 3500 
L 3481 434 
z
" transform="scale(0.015625)"/>
       <path id="DejaVuSans-29" d="M 513 4856 
L 1013 4856 
Q 1481 4119 1714 3412 
Q 1947 2706 1947 2009 
Q 1947 1309 1714 600 
Q 1481 -109 1013 -844 
L 513 -844 
Q 928 -128 1133 580 
Q 1338 1288 1338 2009 
Q 1338 2731 1133 3434 
Q 928 4138 513 4856 
z
" transform="scale(0.015625)"/>
      </defs>
      <use xlink:href="#DejaVuSans-74"/>
      <use xlink:href="#DejaVuSans-68" x="39.208984"/>
      <use xlink:href="#DejaVuSans-65" x="102.587891"/>
      <use xlink:href="#DejaVuSans-74" x="164.111328"/>
      <use xlink:href="#DejaVuSans-61" x="203.320312"/>
      <use xlink:href="#DejaVuSans-20" x="264.599609"/>
      <use xlink:href="#DejaVuSans-28" x="296.386719"/>
      <use xlink:href="#DejaVuSans-64" x="335.400391"/>
      <use xlink:href="#DejaVuSans-65" x="398.876953"/>
      <use xlink:href="#DejaVuSans-67" x="460.400391"/>
      <use xlink:href="#DejaVuSans-29" x="523.876953"/>
     </g>
    </g>
   </g>
   <g id="matplotlib.axis_2">
    <g id="ytick_1">
     <g id="line2d_9">
      <path d="M 325.227273 215.809242 
C 330.310723 215.809242 335.344743 216.810571 340.041238 218.755923 
C 344.737734 220.701275 349.00537 223.552819 352.599912 227.147361 
C 356.194454 230.741903 359.045997 235.009539 360.991349 239.706034 
C 362.936702 244.40253 363.93803 249.43655 363.93803 254.52 
C 363.93803 259.60345 362.936702 264.63747 360.991349 269.333966 
C 359.045997 274.030461 356.194454 278.298097 352.599912 281.892639 
C 349.00537 285.487181 344.737734 288.338725 340.041238 290.284077 
C 335.344743 292.229429 330.310723 293.230758 325.227273 293.230758 
C 320.143823 293.230758 315.109803 292.229429 310.413307 290.284077 
C 305.716812 288.338725 301.449175 285.487181 297.854633 281.892639 
C 294.260091 278.298097 291.408548 274.030461 289.463196 269.333966 
C 287.517844 264.63747 286.516515 259.60345 286.516515 254.52 
C 286.516515 249.43655 287.517844 244.40253 289.463196 239.706034 
C 291.408548 235.009539 294.260091 230.741903 297.854633 227.147361 
C 301.449175 223.552819 305.716812 220.701275 310.413307 218.755923 
C 315.109803 216.810571 320.143823 215.809242 325.227273 215.809242 
" clip-path="url(#p4eee65acfa)" style="fill: none; stroke: #b0b0b0; stroke-width: 0.8; stroke-linecap: square"/>
     </g>
     <g id="text_10">
      <!-- 0.5 -->
      <g transform="translate(340.041238 216.676236)scale(0.1 -0.1)">
       <defs>
        <path id="DejaVuSans-2e" d="M 684 794 
L 1344 794 
L 1344 0 
L 684 0 
L 684 794 
z
" transform="scale(0.015625)"/>
       </defs>
       <use xlink:href="#DejaVuSans-30"/>
       <use xlink:href="#DejaVuSans-2e" x="63.623047"/>
       <use xlink:href="#DejaVuSans-35" x="95.410156"/>
      </g>
     </g>
    </g>
    <g id="ytick_2">
     <g id="line2d_10">
      <path d="M 325.227273 177.098485 
C 335.394173 177.098485 345.462213 179.101142 354.855204 182.991846 
C 364.248195 186.882551 372.783467 192.585637 379.972551 199.774721 
C 387.161635 206.963806 392.864722 215.499078 396.755426 224.892069 
C 400.646131 234.28506 402.648788 244.3531 402.648788 254.52 
C 402.648788 264.6869 400.646131 274.75494 396.755426 284.147931 
C 392.864722 293.540922 387.161635 302.076194 379.972551 309.265279 
C 372.783467 316.454363 364.248195 322.157449 354.855204 326.048154 
C 345.462213 329.938858 335.394173 331.941515 325.227273 331.941515 
C 315.060372 331.941515 304.992333 329.938858 295.599341 326.048154 
C 286.20635 322.157449 277.671078 316.454363 270.481994 309.265279 
C 263.29291 302.076194 257.589823 293.540922 253.699119 284.147931 
C 249.808415 274.75494 247.805757 264.6869 247.805757 254.52 
C 247.805757 244.3531 249.808415 234.28506 253.699119 224.892069 
C 257.589823 215.499078 263.29291 206.963806 270.481994 199.774721 
C 277.671078 192.585637 286.20635 186.882551 295.599341 182.991846 
C 304.992333 179.101142 315.060372 177.098485 325.227273 177.098485 
" clip-path="url(#p4eee65acfa)" style="fill: none; stroke: #b0b0b0; stroke-width: 0.8; stroke-linecap: square"/>
     </g>
     <g id="text_11">
      <!-- 1.0 -->
      <g transform="translate(354.855204 180.912159)scale(0.1 -0.1)">
       <use xlink:href="#DejaVuSans-31"/>
       <use xlink:href="#DejaVuSans-2e" x="63.623047"/>
       <use xlink:href="#DejaVuSans-30" x="95.410156"/>
      </g>
     </g>
    </g>
    <g id="ytick_3">
     <g id="line2d_11">
      <path d="M 325.227273 138.387727 
C 340.477623 138.387727 355.579683 141.391713 369.66917 147.22777 
C 383.758656 153.063826 396.561564 161.618456 407.345191 172.402082 
C 418.128817 183.185708 426.683447 195.988616 432.519503 210.078103 
C 438.355559 224.16759 441.359546 239.26965 441.359546 254.52 
C 441.359546 269.77035 438.355559 284.87241 432.519503 298.961897 
C 426.683447 313.051384 418.128817 325.854292 407.345191 336.637918 
C 396.561564 347.421544 383.758656 355.976174 369.66917 361.81223 
C 355.579683 367.648287 340.477623 370.652273 325.227273 370.652273 
C 309.976922 370.652273 294.874862 367.648287 280.785376 361.81223 
C 266.695889 355.976174 253.892981 347.421544 243.109355 336.637918 
C 232.325729 325.854292 223.771099 313.051384 217.935042 298.961897 
C 212.098986 284.87241 209.095 269.77035 209.095 254.52 
C 209.095 239.26965 212.098986 224.16759 217.935042 210.078103 
C 223.771099 195.988616 232.325729 183.185708 243.109355 172.402082 
C 253.892981 161.618456 266.695889 153.063826 280.785376 147.22777 
C 294.874862 141.391713 309.976922 138.387727 325.227273 138.387727 
" clip-path="url(#p4eee65acfa)" style="fill: none; stroke: #b0b0b0; stroke-width: 0.8; stroke-linecap: square"/>
     </g>
     <g id="text_12">
      <!-- 1.5 -->
      <g transform="translate(369.66917 145.148082)scale(0.1 -0.1)">
       <use xlink:href="#DejaVuSans-31"/>
       <use xlink:href="#DejaVuSans-2e" x="63.623047"/>
       <use xlink:href="#DejaVuSans-35" x="95.410156"/>
      </g>
     </g>
    </g>
    <g id="ytick_4">
     <g id="line2d_12">
      <path d="M 325.227273 99.676969 
C 345.561073 99.676969 365.697153 103.682284 384.483135 111.463693 
C 403.269117 119.245102 420.339662 130.651275 434.71783 145.029443 
C 449.095998 159.407611 460.502171 176.478155 468.28358 195.264137 
C 476.064988 214.05012 480.070304 234.186199 480.070304 254.52 
C 480.070304 274.853801 476.064988 294.98988 468.28358 313.775863 
C 460.502171 332.561845 449.095998 349.632389 434.71783 364.010557 
C 420.339662 378.388725 403.269117 389.794898 384.483135 397.576307 
C 365.697153 405.357716 345.561073 409.363031 325.227273 409.363031 
C 304.893472 409.363031 284.757392 405.357716 265.97141 397.576307 
C 247.185428 389.794898 230.114884 378.388725 215.736716 364.010557 
C 201.358547 349.632389 189.952374 332.561845 182.170966 313.775863 
C 174.389557 294.98988 170.384242 274.853801 170.384242 254.52 
C 170.384242 234.186199 174.389557 214.05012 182.170966 195.264137 
C 189.952374 176.478155 201.358547 159.407611 215.736716 145.029443 
C 230.114884 130.651275 247.185428 119.245102 265.97141 111.463693 
C 284.757392 103.682284 304.893472 99.676969 325.227273 99.676969 
" clip-path="url(#p4eee65acfa)" style="fill: none; stroke: #b0b0b0; stroke-width: 0.8; stroke-linecap: square"/>
     </g>
     <g id="text_13">
      <!-- 2.0 -->
      <g transform="translate(384.483135 109.384005)scale(0.1 -0.1)">
       <use xlink:href="#DejaVuSans-32"/>
       <use xlink:href="#DejaVuSans-2e" x="63.623047"/>
       <use xlink:href="#DejaVuSans-30" x="95.410156"/>
      </g>
     </g>
    </g>
   </g>
   <g id="line2d_13">
    <path d="M 325.227273 282.410757 
L 323.5549 278.436049 
L 322.357503 274.939472 
L 321.212189 270.623623 
L 320.419964 266.418505 
L 320.005513 262.876562 
L 319.76818 261.025893 
L 319.4399 260.513 
L 319.155025 260.383902 
L 318.258393 260.367585 
L 313.093032 260.97189 
L 310.932976 260.884231 
L 308.778919 260.506711 
L 306.752985 259.817417 
L 304.97933 258.823833 
L 304.227334 258.222856 
L 303.586314 257.561438 
L 303.070663 256.848754 
L 302.692725 256.095769 
L 302.461965 255.314982 
L 302.384365 254.52 
L 302.461966 253.725018 
L 302.692705 252.94423 
L 303.070647 252.191245 
L 303.586302 251.47856 
L 304.227336 250.817145 
L 304.979329 250.216167 
L 306.752989 249.222585 
L 308.77893 248.533293 
L 310.932976 248.155769 
L 313.093033 248.06811 
L 315.127917 248.209222 
L 319.155027 248.6561 
L 319.4399 248.527001 
L 319.768185 248.014112 
L 319.95969 246.710488 
L 320.299949 243.45305 
L 320.954441 239.618864 
L 321.902071 235.661846 
L 322.903852 232.414128 
L 324.3247 228.673696 
L 326.276342 224.478587 
L 328.866197 219.897947 
L 330.431483 217.490122 
L 332.192311 215.019305 
L 334.159552 212.49693 
L 336.343805 209.934023 
L 338.755521 207.341393 
L 341.405021 204.73001 
L 344.302336 202.111694 
L 347.456861 199.499837 
L 350.876822 196.91017 
L 354.56853 194.361507 
L 358.535808 191.875756 
L 362.779295 189.47799 
L 367.296133 187.19575 
L 372.079794 185.058281 
L 377.120256 183.095436 
L 382.404277 181.336772 
L 387.915785 179.810741 
L 393.63627 178.544111 
L 399.544911 177.561833 
L 405.618596 176.887001 
L 411.831758 176.540972 
L 418.155955 176.543577 
L 424.559694 176.913007 
L 431.008111 177.665722 
L 437.463103 178.815977 
L 443.883526 180.375344 
L 450.225769 182.352085 
L 456.444524 184.75055 
L 462.493508 187.570784 
L 468.326361 190.808181 
L 473.897226 194.45344 
L 479.161513 198.492518 
L 484.07622 202.906848 
L 488.600362 207.673521 
L 492.695345 212.76552 
L 496.325298 218.151992 
L 499.457511 223.798508 
L 502.062849 229.66738 
L 504.116483 235.717986 
L 505.5983 241.907229 
L 506.49344 248.190046 
L 506.79283 254.52 
L 506.493436 260.849954 
L 505.598298 267.132771 
L 504.116502 273.322016 
L 502.062844 279.372619 
L 499.457509 285.241492 
L 496.325292 290.888007 
L 492.695342 296.274479 
L 488.60035 301.366476 
L 484.076202 306.133146 
L 479.16152 310.547484 
L 473.89723 314.586562 
L 468.326361 318.231819 
L 462.493527 321.469225 
L 456.44453 324.289454 
L 450.225755 326.687907 
L 443.883518 328.664651 
L 437.463116 330.224032 
L 431.008119 331.374284 
L 424.559699 332.126997 
L 418.155947 332.496416 
L 411.831754 332.499025 
L 405.61859 332.152993 
L 399.544921 331.478177 
L 393.63627 330.495888 
L 387.915792 329.229268 
L 382.404277 327.703229 
L 377.120254 325.944561 
L 372.079791 323.981715 
L 367.296133 321.844249 
L 362.779296 319.562013 
L 358.535809 317.164245 
L 354.56853 314.678492 
L 350.876813 312.129812 
L 347.456865 309.540172 
L 344.302343 306.928325 
L 341.405017 304.309978 
L 338.755521 301.698608 
L 336.343803 299.105969 
L 334.159549 296.543055 
L 332.192313 294.020706 
L 330.431484 291.549887 
L 328.866198 289.142058 
L 326.276342 284.56141 
L 326.276342 284.56141 
" clip-path="url(#p4eee65acfa)" style="fill: none; stroke: #1f77b4; stroke-width: 2; stroke-linecap: square"/>
   </g>
   <g id="patch_3">
    <path d="M 325.227273 64.292727 
C 300.246856 64.292727 275.509343 69.213325 252.430447 78.772916 
C 229.351551 88.332508 208.3801 102.345184 190.716278 120.009005 
C 173.052456 137.672827 159.03978 158.644279 149.480189 181.723174 
C 139.920597 204.80207 135 229.539583 135 254.52 
C 135 279.500417 139.920597 304.23793 149.480189 327.316826 
C 159.03978 350.395721 173.052456 371.367173 190.716278 389.030995 
C 208.3801 406.694816 229.351551 420.707492 252.430447 430.267084 
C 275.509343 439.826675 300.246856 444.747273 325.227273 444.747273 
C 350.207689 444.747273 374.945203 439.826675 398.024098 430.267084 
C 421.102994 420.707492 442.074445 406.694816 459.738267 389.030995 
C 477.402089 371.367173 491.414765 350.395721 500.974357 327.316826 
C 510.533948 304.23793 515.454545 279.500417 515.454545 254.52 
C 515.454545 229.539583 510.533948 204.80207 500.974357 181.723174 
C 491.414765 158.644279 477.402089 137.672827 459.738267 120.009005 
C 442.074445 102.345184 421.102994 88.332508 398.024098 78.772916 
C 374.945203 69.213325 350.207689 64.292727 325.227273 64.292727 
" style="fill: none; stroke: #000000; stroke-width: 0.8; stroke-linejoin: miter; stroke-linecap: square"/>
   </g>
   <g id="legend_1">
    <g id="patch_4">
     <path d="M 142 439.747273 
L 216.520312 439.747273 
Q 218.520312 439.747273 218.520312 437.747273 
L 218.520312 424.069148 
Q 218.520312 422.069148 216.520312 422.069148 
L 142 422.069148 
Q 140 422.069148 140 424.069148 
L 140 437.747273 
Q 140 439.747273 142 439.747273 
z
" style="fill: #ffffff; opacity: 0.8; stroke: #cccccc; stroke-linejoin: miter"/>
    </g>
    <g id="line2d_14">
     <path d="M 144 430.167585 
L 154 430.167585 
L 164 430.167585 
" style="fill: none; stroke: #1f77b4; stroke-width: 2; stroke-linecap: square"/>
    </g>
    <g id="text_14">
     <!-- xz-plane -->
     <g transform="translate(172 433.667585)scale(0.1 -0.1)">
      <defs>
       <path id="DejaVuSans-78" d="M 3513 3500 
L 2247 1797 
L 3578 0 
L 2900 0 
L 1881 1375 
L 863 0 
L 184 0 
L 1544 1831 
L 300 3500 
L 978 3500 
L 1906 2253 
L 2834 3500 
L 3513 3500 
z
" transform="scale(0.015625)"/>
       <path id="DejaVuSans-7a" d="M 353 3500 
L 3084 3500 
L 3084 2975 
L 922 459 
L 3084 459 
L 3084 0 
L 275 0 
L 275 525 
L 2438 3041 
L 353 3041 
L 353 3500 
z
" transform="scale(0.015625)"/>
       <path id="DejaVuSans-2d" d="M 313 2009 
L 1997 2009 
L 1997 1497 
L 313 1497 
L 313 2009 
z
" transform="scale(0.015625)"/>
       <path id="DejaVuSans-70" d="M 1159 525 
L 1159 -1331 
L 581 -1331 
L 581 3500 
L 1159 3500 
L 1159 2969 
Q 1341 3281 1617 3432 
Q 1894 3584 2278 3584 
Q 2916 3584 3314 3078 
Q 3713 2572 3713 1747 
Q 3713 922 3314 415 
Q 2916 -91 2278 -91 
Q 1894 -91 1617 61 
Q 1341 213 1159 525 
z
M 3116 1747 
Q 3116 2381 2855 2742 
Q 2594 3103 2138 3103 
Q 1681 3103 1420 2742 
Q 1159 2381 1159 1747 
Q 1159 1113 1420 752 
Q 1681 391 2138 391 
Q 2594 391 2855 752 
Q 3116 1113 3116 1747 
z
" transform="scale(0.015625)"/>
       <path id="DejaVuSans-6c" d="M 603 4863 
L 1178 4863 
L 1178 0 
L 603 0 
L 603 4863 
z
" transform="scale(0.015625)"/>
       <path id="DejaVuSans-6e" d="M 3513 2113 
L 3513 0 
L 2938 0 
L 2938 2094 
Q 2938 2591 2744 2837 
Q 2550 3084 2163 3084 
Q 1697 3084 1428 2787 
Q 1159 2491 1159 1978 
L 1159 0 
L 581 0 
L 581 3500 
L 1159 3500 
L 1159 2956 
Q 1366 3272 1645 3428 
Q 1925 3584 2291 3584 
Q 2894 3584 3203 3211 
Q 3513 2838 3513 2113 
z
" transform="scale(0.015625)"/>
      </defs>
      <use xlink:href="#DejaVuSans-78"/>
      <use xlink:href="#DejaVuSans-7a" x="59.179688"/>
      <use xlink:href="#DejaVuSans-2d" x="111.669922"/>
      <use xlink:href="#DejaVuSans-70" x="147.753906"/>
      <use xlink:href="#DejaVuSans-6c" x="211.230469"/>
      <use xlink:href="#DejaVuSans-61" x="239.013672"/>
      <use xlink:href="#DejaVuSans-6e" x="300.292969"/>
      <use xlink:href="#DejaVuSans-65" x="363.671875"/>
     </g>
    </g>
   </g>
  </g>
  <g id="axes_2">
   <g id="patch_5">
    <path d="M 972 254.52 
C 972 229.539583 967.079403 204.80207 957.519811 181.723174 
C 947.96022 158.644279 933.947544 137.672827 916.283722 120.009005 
C 898.6199 102.345184 877.648449 88.332508 854.569553 78.772916 
C 831.490657 69.213325 806.753144 64.292727 781.772727 64.292727 
C 756.792311 64.292727 732.054797 69.213325 708.975902 78.772916 
C 685.897006 88.332508 664.925555 102.345184 647.261733 120.009005 
C 629.597911 137.672827 615.585235 158.644279 606.025643 181.723174 
C 596.466052 204.80207 591.545455 229.539583 591.545455 254.52 
C 591.545455 279.500417 596.466052 304.23793 606.025643 327.316826 
C 615.585235 350.395721 629.597911 371.367173 647.261733 389.030995 
C 664.925555 406.694816 685.897006 420.707492 708.975902 430.267084 
C 732.054797 439.826675 756.792311 444.747273 781.772727 444.747273 
C 806.753144 444.747273 831.490657 439.826675 854.569553 430.267084 
C 877.648449 420.707492 898.6199 406.694816 916.283722 389.030995 
C 933.947544 371.367173 947.96022 350.395721 957.519811 327.316826 
C 967.079403 304.23793 972 279.500417 972 254.52 
M 781.772727 254.52 
C 781.772727 254.52 781.772727 254.52 781.772727 254.52 
C 781.772727 254.52 781.772727 254.52 781.772727 254.52 
C 781.772727 254.52 781.772727 254.52 781.772727 254.52 
C 781.772727 254.52 781.772727 254.52 781.772727 254.52 
C 781.772727 254.52 781.772727 254.52 781.772727 254.52 
C 781.772727 254.52 781.772727 254.52 781.772727 254.52 
C 781.772727 254.52 781.772727 254.52 781.772727 254.52 
C 781.772727 254.52 781.772727 254.52 781.772727 254.52 
C 781.772727 254.52 781.772727 254.52 781.772727 254.52 
C 781.772727 254.52 781.772727 254.52 781.772727 254.52 
C 781.772727 254.52 781.772727 254.52 781.772727 254.52 
C 781.772727 254.52 781.772727 254.52 781.772727 254.52 
C 781.772727 254.52 781.772727 254.52 781.772727 254.52 
C 781.772727 254.52 781.772727 254.52 781.772727 254.52 
C 781.772727 254.52 781.772727 254.52 781.772727 254.52 
C 781.772727 254.52 781.772727 254.52 781.772727 254.52 
M 972 254.52 
z
" style="fill: #ffffff"/>
   </g>
   <g id="matplotlib.axis_3">
    <g id="xtick_9">
     <g id="line2d_15">
      <path d="M 781.772727 254.52 
L 972 254.52 
" clip-path="url(#p6fbe990c57)" style="fill: none; stroke: #b0b0b0; stroke-width: 0.8; stroke-linecap: square"/>
     </g>
     <g id="text_15">
      <!-- 0° -->
      <g transform="translate(980.31875 257.279375)scale(0.1 -0.1)">
       <use xlink:href="#DejaVuSans-30"/>
       <use xlink:href="#DejaVuSans-b0" x="63.623047"/>
      </g>
     </g>
    </g>
    <g id="xtick_10">
     <g id="line2d_16">
      <path d="M 781.772727 254.52 
L 916.283722 120.009005 
" clip-path="url(#p6fbe990c57)" style="fill: none; stroke: #b0b0b0; stroke-width: 0.8; stroke-linecap: square"/>
     </g>
     <g id="text_16">
      <!-- 45° -->
      <g transform="translate(917.320717 112.868886)scale(0.1 -0.1)">
       <use xlink:href="#DejaVuSans-34"/>
       <use xlink:href="#DejaVuSans-35" x="63.623047"/>
       <use xlink:href="#DejaVuSans-b0" x="127.246094"/>
      </g>
     </g>
    </g>
    <g id="xtick_11">
     <g id="line2d_17">
      <path d="M 781.772727 254.52 
L 781.772727 64.292727 
" clip-path="url(#p6fbe990c57)" style="fill: none; stroke: #b0b0b0; stroke-width: 0.8; stroke-linecap: square"/>
     </g>
     <g id="text_17">
      <!-- 90° -->
      <g transform="translate(772.910227 53.052102)scale(0.1 -0.1)">
       <use xlink:href="#DejaVuSans-39"/>
       <use xlink:href="#DejaVuSans-30" x="63.623047"/>
       <use xlink:href="#DejaVuSans-b0" x="127.246094"/>
      </g>
     </g>
    </g>
    <g id="xtick_12">
     <g id="line2d_18">
      <path d="M 781.772727 254.52 
L 647.261733 120.009005 
" clip-path="url(#p6fbe990c57)" style="fill: none; stroke: #b0b0b0; stroke-width: 0.8; stroke-linecap: square"/>
     </g>
     <g id="text_18">
      <!-- 135° -->
      <g transform="translate(625.318488 112.868886)scale(0.1 -0.1)">
       <use xlink:href="#DejaVuSans-31"/>
       <use xlink:href="#DejaVuSans-33" x="63.623047"/>
       <use xlink:href="#DejaVuSans-35" x="127.246094"/>
       <use xlink:href="#DejaVuSans-b0" x="190.869141"/>
      </g>
     </g>
    </g>
    <g id="xtick_13">
     <g id="line2d_19">
      <path d="M 781.772727 254.52 
L 591.545455 254.52 
" clip-path="url(#p6fbe990c57)" style="fill: none; stroke: #b0b0b0; stroke-width: 0.8; stroke-linecap: square"/>
     </g>
     <g id="text_19">
      <!-- 180° -->
      <g transform="translate(565.501705 257.279375)scale(0.1 -0.1)">
       <use xlink:href="#DejaVuSans-31"/>
       <use xlink:href="#DejaVuSans-38" x="63.623047"/>
       <use xlink:href="#DejaVuSans-30" x="127.246094"/>
       <use xlink:href="#DejaVuSans-b0" x="190.869141"/>
      </g>
     </g>
    </g>
    <g id="xtick_14">
     <g id="line2d_20">
      <path d="M 781.772727 254.52 
L 647.261733 389.030995 
" clip-path="url(#p6fbe990c57)" style="fill: none; stroke: #b0b0b0; stroke-width: 0.8; stroke-linecap: square"/>
     </g>
     <g id="text_20">
      <!-- 225° -->
      <g transform="translate(625.318488 401.689864)scale(0.1 -0.1)">
       <use xlink:href="#DejaVuSans-32"/>
       <use xlink:href="#DejaVuSans-32" x="63.623047"/>
       <use xlink:href="#DejaVuSans-35" x="127.246094"/>
       <use xlink:href="#DejaVuSans-b0" x="190.869141"/>
      </g>
     </g>
    </g>
    <g id="xtick_15">
     <g id="line2d_21">
      <path d="M 781.772727 254.52 
L 781.772727 444.747273 
" clip-path="url(#p6fbe990c57)" style="fill: none; stroke: #b0b0b0; stroke-width: 0.8; stroke-linecap: square"/>
     </g>
     <g id="text_21">
      <!-- 270° -->
      <g transform="translate(769.728977 461.506648)scale(0.1 -0.1)">
       <use xlink:href="#DejaVuSans-32"/>
       <use xlink:href="#DejaVuSans-37" x="63.623047"/>
       <use xlink:href="#DejaVuSans-30" x="127.246094"/>
       <use xlink:href="#DejaVuSans-b0" x="190.869141"/>
      </g>
     </g>
    </g>
    <g id="xtick_16">
     <g id="line2d_22">
      <path d="M 781.772727 254.52 
L 916.283722 389.030995 
" clip-path="url(#p6fbe990c57)" style="fill: none; stroke: #b0b0b0; stroke-width: 0.8; stroke-linecap: square"/>
     </g>
     <g id="text_22">
      <!-- 315° -->
      <g transform="translate(914.139467 401.689864)scale(0.1 -0.1)">
       <use xlink:href="#DejaVuSans-33"/>
       <use xlink:href="#DejaVuSans-31" x="63.623047"/>
       <use xlink:href="#DejaVuSans-35" x="127.246094"/>
       <use xlink:href="#DejaVuSans-b0" x="190.869141"/>
      </g>
     </g>
    </g>
    <g id="text_23">
     <!-- phi (deg) -->
     <g transform="translate(759.125071 475.184773)scale(0.1 -0.1)">
      <defs>
       <path id="DejaVuSans-69" d="M 603 3500 
L 1178 3500 
L 1178 0 
L 603 0 
L 603 3500 
z
M 603 4863 
L 1178 4863 
L 1178 4134 
L 603 4134 
L 603 4863 
z
" transform="scale(0.015625)"/>
      </defs>
      <use xlink:href="#DejaVuSans-70"/>
      <use xlink:href="#DejaVuSans-68" x="63.476562"/>
      <use xlink:href="#DejaVuSans-69" x="126.855469"/>
      <use xlink:href="#DejaVuSans-20" x="154.638672"/>
      <use xlink:href="#DejaVuSans-28" x="186.425781"/>
      <use xlink:href="#DejaVuSans-64" x="225.439453"/>
      <use xlink:href="#DejaVuSans-65" x="288.916016"/>
      <use xlink:href="#DejaVuSans-67" x="350.439453"/>
      <use xlink:href="#DejaVuSans-29" x="413.916016"/>
     </g>
    </g>
   </g>
   <g id="matplotlib.axis_4">
    <g id="ytick_5">
     <g id="line2d_23">
      <path d="M 820.494861 254.52 
C 820.494861 249.435056 819.493238 244.399557 817.547314 239.701681 
C 815.60139 235.003805 812.749009 230.734915 809.153411 227.139317 
C 805.557812 223.543718 801.288922 220.691337 796.591046 218.745413 
C 791.893171 216.799489 786.857671 215.797866 781.772727 215.797866 
C 776.687783 215.797866 771.652284 216.799489 766.954408 218.745413 
C 762.256533 220.691337 757.987642 223.543718 754.392044 227.139317 
C 750.796446 230.734915 747.944064 235.003805 745.998141 239.701681 
C 744.052217 244.399557 743.050594 249.435056 743.050594 254.52 
C 743.050594 259.604944 744.052217 264.640443 745.998141 269.338319 
C 747.944064 274.036195 750.796446 278.305085 754.392044 281.900683 
C 757.987642 285.496282 762.256533 288.348663 766.954408 290.294587 
C 771.652284 292.240511 776.687783 293.242134 781.772727 293.242134 
C 786.857671 293.242134 791.893171 292.240511 796.591046 290.294587 
C 801.288922 288.348663 805.557812 285.496282 809.153411 281.900683 
C 812.749009 278.305085 815.60139 274.036195 817.547314 269.338319 
C 819.493238 264.640443 820.494861 259.604944 820.494861 254.52 
" clip-path="url(#p6fbe990c57)" style="fill: none; stroke: #b0b0b0; stroke-width: 0.8; stroke-linecap: square"/>
     </g>
     <g id="text_24">
      <!-- 0.5 -->
      <g transform="translate(817.547314 237.621993)scale(0.1 -0.1)">
       <use xlink:href="#DejaVuSans-30"/>
       <use xlink:href="#DejaVuSans-2e" x="63.623047"/>
       <use xlink:href="#DejaVuSans-35" x="95.410156"/>
      </g>
     </g>
    </g>
    <g id="ytick_6">
     <g id="line2d_24">
      <path d="M 859.216995 254.52 
C 859.216995 244.350112 857.213748 234.279113 853.321901 224.883362 
C 849.430053 215.487611 843.725291 206.94983 836.534094 199.758633 
C 829.342897 192.567437 820.805117 186.862674 811.409365 182.970826 
C 802.013614 179.078979 791.942615 177.075733 781.772727 177.075733 
C 771.602839 177.075733 761.531841 179.078979 752.136089 182.970826 
C 742.740338 186.862674 734.202557 192.567437 727.011361 199.758633 
C 719.820164 206.94983 714.115401 215.487611 710.223554 224.883362 
C 706.331706 234.279113 704.32846 244.350112 704.32846 254.52 
C 704.32846 264.689888 706.331706 274.760887 710.223554 284.156638 
C 714.115401 293.552389 719.820164 302.09017 727.011361 309.281367 
C 734.202557 316.472563 742.740338 322.177326 752.136089 326.069174 
C 761.531841 329.961021 771.602839 331.964267 781.772727 331.964267 
C 791.942615 331.964267 802.013614 329.961021 811.409365 326.069174 
C 820.805117 322.177326 829.342897 316.472563 836.534094 309.281367 
C 843.725291 302.09017 849.430053 293.552389 853.321901 284.156638 
C 857.213748 274.760887 859.216995 264.689888 859.216995 254.52 
" clip-path="url(#p6fbe990c57)" style="fill: none; stroke: #b0b0b0; stroke-width: 0.8; stroke-linecap: square"/>
     </g>
     <g id="text_25">
      <!-- 1.0 -->
      <g transform="translate(853.321901 222.803674)scale(0.1 -0.1)">
       <use xlink:href="#DejaVuSans-31"/>
       <use xlink:href="#DejaVuSans-2e" x="63.623047"/>
       <use xlink:href="#DejaVuSans-30" x="95.410156"/>
      </g>
     </g>
    </g>
    <g id="ytick_7">
     <g id="line2d_25">
      <path d="M 897.939128 254.52 
C 897.939128 239.265168 894.934259 224.15867 889.096488 210.065043 
C 883.258716 195.971416 874.701572 183.164745 863.914777 172.37795 
C 853.127982 161.591155 840.321311 153.034011 826.227684 147.19624 
C 812.134057 141.358468 797.027559 138.353599 781.772727 138.353599 
C 766.517895 138.353599 751.411397 141.358468 737.31777 147.19624 
C 723.224143 153.034011 710.417473 161.591155 699.630677 172.37795 
C 688.843882 183.164745 680.286738 195.971416 674.448967 210.065043 
C 668.611196 224.15867 665.606326 239.265168 665.606326 254.52 
C 665.606326 269.774832 668.611196 284.88133 674.448967 298.974957 
C 680.286738 313.068584 688.843882 325.875255 699.630677 336.66205 
C 710.417473 347.448845 723.224143 356.005989 737.31777 361.84376 
C 751.411397 367.681532 766.517895 370.686401 781.772727 370.686401 
C 797.027559 370.686401 812.134057 367.681532 826.227684 361.84376 
C 840.321311 356.005989 853.127982 347.448845 863.914777 336.66205 
C 874.701572 325.875255 883.258716 313.068584 889.096488 298.974957 
C 894.934259 284.88133 897.939128 269.774832 897.939128 254.52 
" clip-path="url(#p6fbe990c57)" style="fill: none; stroke: #b0b0b0; stroke-width: 0.8; stroke-linecap: square"/>
     </g>
     <g id="text_26">
      <!-- 1.5 -->
      <g transform="translate(889.096488 207.985355)scale(0.1 -0.1)">
       <use xlink:href="#DejaVuSans-31"/>
       <use xlink:href="#DejaVuSans-2e" x="63.623047"/>
       <use xlink:href="#DejaVuSans-35" x="95.410156"/>
      </g>
     </g>
    </g>
    <g id="ytick_8">
     <g id="line2d_26">
      <path d="M 936.661262 254.52 
C 936.661262 234.180224 932.65477 214.038227 924.871074 195.246724 
C 917.087379 176.455221 905.677854 159.37966 891.295461 144.997267 
C 876.913067 130.614873 859.837506 119.205348 841.046003 111.421653 
C 822.254501 103.637958 802.112503 99.631465 781.772727 99.631465 
C 761.432951 99.631465 741.290954 103.637958 722.499451 111.421653 
C 703.707948 119.205348 686.632388 130.614873 672.249994 144.997267 
C 657.8676 159.37966 646.458076 176.455221 638.67438 195.246724 
C 630.890685 214.038227 626.884193 234.180224 626.884193 254.52 
C 626.884193 274.859776 630.890685 295.001773 638.67438 313.793276 
C 646.458076 332.584779 657.8676 349.66034 672.249994 364.042733 
C 686.632388 378.425127 703.707948 389.834652 722.499451 397.618347 
C 741.290954 405.402042 761.432951 409.408535 781.772727 409.408535 
C 802.112503 409.408535 822.254501 405.402042 841.046003 397.618347 
C 859.837506 389.834652 876.913067 378.425127 891.295461 364.042733 
C 905.677854 349.66034 917.087379 332.584779 924.871074 313.793276 
C 932.65477 295.001773 936.661262 274.859776 936.661262 254.52 
" clip-path="url(#p6fbe990c57)" style="fill: none; stroke: #b0b0b0; stroke-width: 0.8; stroke-linecap: square"/>
     </g>
     <g id="text_27">
      <!-- 2.0 -->
      <g transform="translate(924.871074 193.167036)scale(0.1 -0.1)">
       <use xlink:href="#DejaVuSans-32"/>
       <use xlink:href="#DejaVuSans-2e" x="63.623047"/>
       <use xlink:href="#DejaVuSans-30" x="95.410156"/>
      </g>
     </g>
    </g>
   </g>
   <g id="line2d_27">
    <path d="M 758.923116 254.52 
L 758.941944 255.317269 
L 759.128637 256.103429 
L 759.478753 256.863191 
L 759.98481 257.582092 
L 760.636157 258.246948 
L 761.418768 258.846368 
L 762.315054 259.371343 
L 764.357778 260.17846 
L 766.535442 260.676263 
L 769.345398 261.127728 
L 769.967347 261.33584 
L 770.361494 261.65053 
L 770.510098 262.11674 
L 770.421573 262.767096 
L 769.680699 264.666416 
L 767.922444 268.862388 
L 766.816735 272.343857 
L 766.010849 276.214365 
L 765.758763 278.261678 
L 765.620608 280.368795 
L 765.603163 282.526507 
L 765.711247 284.727251 
L 765.948176 286.965139 
L 766.316172 289.235992 
L 766.816891 291.536994 
L 767.451897 293.866157 
L 768.223014 296.22173 
L 769.132597 298.601374 
L 770.183548 301.00166 
L 771.3792 303.417703 
L 772.723078 305.843114 
L 774.218603 308.270385 
L 775.868871 310.691437 
L 777.67652 313.098499 
L 779.643791 315.484757 
L 781.772727 317.845042 
L 784.065483 320.175939 
L 786.524661 322.47582 
L 789.153569 324.744023 
L 791.956349 326.980236 
L 794.937879 329.183287 
L 798.103478 331.350142 
L 801.458441 333.475086 
L 805.007448 335.549099 
L 808.754016 337.55987 
L 812.700002 339.491988 
L 816.845223 341.327473 
L 821.187382 343.046763 
L 825.722058 344.629482 
L 830.442844 346.055176 
L 835.341599 347.304008 
L 840.408585 348.356988 
L 845.632558 349.196093 
L 851.000715 349.804151 
L 856.498471 350.164591 
L 862.10935 350.261458 
L 867.814696 350.079287 
L 873.593647 349.603346 
L 879.422985 348.819758 
L 885.277587 347.716194 
L 891.130462 346.282035 
L 896.953103 344.508772 
L 902.715977 342.390414 
L 908.388728 339.923571 
L 913.940399 337.107528 
L 919.339724 333.944343 
L 924.55537 330.438878 
L 929.556319 326.598874 
L 934.311978 322.43485 
L 938.792871 317.960256 
L 942.970785 313.191295 
L 946.819243 308.146864 
L 950.313933 302.848413 
L 953.432783 297.319659 
L 956.15599 291.586307 
L 958.466472 285.675875 
L 960.349199 279.617286 
L 961.791897 273.440777 
L 962.784422 267.177571 
L 963.319286 260.859746 
L 963.391641 254.52 
L 962.999282 248.191429 
L 962.143179 241.907269 
L 960.827481 235.700587 
L 959.059872 229.603917 
L 956.851953 223.648809 
L 954.218929 217.865428 
L 951.180127 212.281991 
L 947.758484 206.92435 
L 943.980321 201.815558 
L 939.874846 196.975535 
L 935.47316 192.420994 
L 930.807604 188.165398 
L 925.910563 184.21928 
L 920.813699 180.590604 
L 915.547165 177.285292 
L 910.1391 174.307788 
L 904.61569 171.661375 
L 899.001279 169.348472 
L 893.318804 167.370653 
L 887.590696 165.728181 
L 881.839123 164.419812 
L 876.086878 163.441884 
L 870.357341 162.787947 
L 864.674511 162.448242 
L 859.06266 162.409445 
L 853.545643 162.654857 
L 848.146349 163.164548 
L 842.88579 163.916158 
L 837.78253 164.885578 
L 832.852057 166.048007 
L 828.106479 167.378888 
L 823.554275 168.855132 
L 819.200509 170.455825 
L 815.047127 172.162971 
L 811.093452 173.96197 
L 807.336892 175.841591 
L 803.773695 177.793508 
L 800.399572 179.811806 
L 797.210296 181.891949 
L 794.202057 184.029769 
L 791.371572 186.220671 
L 788.716036 188.458831 
L 786.232872 190.736963 
L 783.919437 193.046263 
L 781.772727 195.37675 
L 779.789159 197.718034 
L 777.964516 200.060045 
L 776.294061 202.39397 
L 773.395897 207.012634 
L 771.059018 211.549659 
L 770.09364 213.790184 
L 769.262119 216.016306 
L 768.564699 218.231242 
L 768.002291 220.436973 
L 767.575932 222.633476 
L 767.286125 224.818064 
L 767.132262 226.98529 
L 767.112208 229.127236 
L 767.222003 231.233974 
L 767.455874 233.294393 
L 767.806196 235.296719 
L 768.263426 237.228883 
L 769.448494 240.832553 
L 770.869888 243.991251 
L 773.18171 248.27826 
L 773.269986 248.784829 
L 773.040311 249.063381 
L 772.491209 249.161313 
L 766.90266 249.107738 
L 764.410546 249.541475 
L 763.267139 249.906039 
L 762.224616 250.364921 
L 761.301947 250.910449 
L 760.514544 251.532357 
L 759.874784 252.218433 
L 759.392226 252.955003 
L 759.073658 253.727331 
L 759.073658 253.727331 
" clip-path="url(#p6fbe990c57)" style="fill: none; stroke: #1f77b4; stroke-width: 2; stroke-linecap: square"/>
   </g>
   <g id="patch_6">
    <path d="M 972 254.52 
C 972 229.539583 967.079403 204.80207 957.519811 181.723174 
C 947.96022 158.644279 933.947544 137.672827 916.283722 120.009005 
C 898.6199 102.345184 877.648449 88.332508 854.569553 78.772916 
C 831.490657 69.213325 806.753144 64.292727 781.772727 64.292727 
C 756.792311 64.292727 732.054797 69.213325 708.975902 78.772916 
C 685.897006 88.332508 664.925555 102.345184 647.261733 120.009005 
C 629.597911 137.672827 615.585235 158.644279 606.025643 181.723174 
C 596.466052 204.80207 591.545455 229.539583 591.545455 254.52 
C 591.545455 279.500417 596.466052 304.23793 606.025643 327.316826 
C 615.585235 350.395721 629.597911 371.367173 647.261733 389.030995 
C 664.925555 406.694816 685.897006 420.707492 708.975902 430.267084 
C 732.054797 439.826675 756.792311 444.747273 781.772727 444.747273 
C 806.753144 444.747273 831.490657 439.826675 854.569553 430.267084 
C 877.648449 420.707492 898.6199 406.694816 916.283722 389.030995 
C 933.947544 371.367173 947.96022 350.395721 957.519811 327.316826 
C 967.079403 304.23793 972 279.500417 972 254.52 
" style="fill: none; stroke: #000000; stroke-width: 0.8; stroke-linejoin: miter; stroke-linecap: square"/>
   </g>
   <g id="legend_2">
    <g id="patch_7">
     <path d="M 598.545455 439.747273 
L 673.56108 439.747273 
Q 675.56108 439.747273 675.56108 437.747273 
L 675.56108 424.069148 
Q 675.56108 422.069148 673.56108 422.069148 
L 598.545455 422.069148 
Q 596.545455 422.069148 596.545455 424.069148 
L 596.545455 437.747273 
Q 596.545455 439.747273 598.545455 439.747273 
z
" style="fill: #ffffff; opacity: 0.8; stroke: #cccccc; stroke-linejoin: miter"/>
    </g>
    <g id="line2d_28">
     <path d="M 600.545455 430.167585 
L 610.545455 430.167585 
L 620.545455 430.167585 
" style="fill: none; stroke: #1f77b4; stroke-width: 2; stroke-linecap: square"/>
    </g>
    <g id="text_28">
     <!-- xy-plane -->
     <g transform="translate(628.545455 433.667585)scale(0.1 -0.1)">
      <defs>
       <path id="DejaVuSans-79" d="M 2059 -325 
Q 1816 -950 1584 -1140 
Q 1353 -1331 966 -1331 
L 506 -1331 
L 506 -850 
L 844 -850 
Q 1081 -850 1212 -737 
Q 1344 -625 1503 -206 
L 1606 56 
L 191 3500 
L 800 3500 
L 1894 763 
L 2988 3500 
L 3597 3500 
L 2059 -325 
z
" transform="scale(0.015625)"/>
      </defs>
      <use xlink:href="#DejaVuSans-78"/>
      <use xlink:href="#DejaVuSans-79" x="59.179688"/>
      <use xlink:href="#DejaVuSans-2d" x="116.609375"/>
      <use xlink:href="#DejaVuSans-70" x="152.693359"/>
      <use xlink:href="#DejaVuSans-6c" x="216.169922"/>
      <use xlink:href="#DejaVuSans-61" x="243.953125"/>
      <use xlink:href="#DejaVuSans-6e" x="305.232422"/>
      <use xlink:href="#DejaVuSans-65" x="368.611328"/>
     </g>
    </g>
   </g>
  </g>
  <g id="text_29">
   <!-- Bent Patch Antenna Pattern -->
   <g transform="translate(443.19 20.717812)scale(0.14 -0.14)">
    <defs>
     <path id="DejaVuSans-42" d="M 1259 2228 
L 1259 519 
L 2272 519 
Q 2781 519 3026 730 
Q 3272 941 3272 1375 
Q 3272 1813 3026 2020 
Q 2781 2228 2272 2228 
L 1259 2228 
z
M 1259 4147 
L 1259 2741 
L 2194 2741 
Q 2656 2741 2882 2914 
Q 3109 3088 3109 3444 
Q 3109 3797 2882 3972 
Q 2656 4147 2194 4147 
L 1259 4147 
z
M 628 4666 
L 2241 4666 
Q 2963 4666 3353 4366 
Q 3744 4066 3744 3513 
Q 3744 3084 3544 2831 
Q 3344 2578 2956 2516 
Q 3422 2416 3680 2098 
Q 3938 1781 3938 1306 
Q 3938 681 3513 340 
Q 3088 0 2303 0 
L 628 0 
L 628 4666 
z
" transform="scale(0.015625)"/>
     <path id="DejaVuSans-50" d="M 1259 4147 
L 1259 2394 
L 2053 2394 
Q 2494 2394 2734 2622 
Q 2975 2850 2975 3272 
Q 2975 3691 2734 3919 
Q 2494 4147 2053 4147 
L 1259 4147 
z
M 628 4666 
L 2053 4666 
Q 2838 4666 3239 4311 
Q 3641 3956 3641 3272 
Q 3641 2581 3239 2228 
Q 2838 1875 2053 1875 
L 1259 1875 
L 1259 0 
L 628 0 
L 628 4666 
z
" transform="scale(0.015625)"/>
     <path id="DejaVuSans-63" d="M 3122 3366 
L 3122 2828 
Q 2878 2963 2633 3030 
Q 2388 3097 2138 3097 
Q 1578 3097 1268 2742 
Q 959 2388 959 1747 
Q 959 1106 1268 751 
Q 1578 397 2138 397 
Q 2388 397 2633 464 
Q 2878 531 3122 666 
L 3122 134 
Q 2881 22 2623 -34 
Q 2366 -91 2075 -91 
Q 1284 -91 818 406 
Q 353 903 353 1747 
Q 353 2603 823 3093 
Q 1294 3584 2113 3584 
Q 2378 3584 2631 3529 
Q 2884 3475 3122 3366 
z
" transform="scale(0.015625)"/>
     <path id="DejaVuSans-41" d="M 2188 4044 
L 1331 1722 
L 3047 1722 
L 2188 4044 
z
M 1831 4666 
L 2547 4666 
L 4325 0 
L 3669 0 
L 3244 1197 
L 1141 1197 
L 716 0 
L 50 0 
L 1831 4666 
z
" transform="scale(0.015625)"/>
     <path id="DejaVuSans-72" d="M 2631 2963 
Q 2534 3019 2420 3045 
Q 2306 3072 2169 3072 
Q 1681 3072 1420 2755 
Q 1159 2438 1159 1844 
L 1159 0 
L 581 0 
L 581 3500 
L 1159 3500 
L 1159 2956 
Q 1341 3275 1631 3429 
Q 1922 3584 2338 3584 
Q 2397 3584 2469 3576 
Q 2541 3569 2628 3553 
L 2631 2963 
z
" transform="scale(0.015625)"/>
    </defs>
    <use xlink:href="#DejaVuSans-42"/>
    <use xlink:href="#DejaVuSans-65" x="68.603516"/>
    <use xlink:href="#DejaVuSans-6e" x="130.126953"/>
    <use xlink:href="#DejaVuSans-74" x="193.505859"/>
    <use xlink:href="#DejaVuSans-20" x="232.714844"/>
    <use xlink:href="#DejaVuSans-50" x="264.501953"/>
    <use xlink:href="#DejaVuSans-61" x="320.304688"/>
    <use xlink:href="#DejaVuSans-74" x="381.583984"/>
    <use xlink:href="#DejaVuSans-63" x="420.792969"/>
    <use xlink:href="#DejaVuSans-68" x="475.773438"/>
    <use xlink:href="#DejaVuSans-20" x="539.152344"/>
    <use xlink:href="#DejaVuSans-41" x="570.939453"/>
    <use xlink:href="#DejaVuSans-6e" x="639.347656"/>
    <use xlink:href="#DejaVuSans-74" x="702.726562"/>
    <use xlink:href="#DejaVuSans-65" x="741.935547"/>
    <use xlink:href="#DejaVuSans-6e" x="803.458984"/>
    <use xlink:href="#DejaVuSans-6e" x="866.837891"/>
    <use xlink:href="#DejaVuSans-61" x="930.216797"/>
    <use xlink:href="#DejaVuSans-20" x="991.496094"/>
    <use xlink:href="#DejaVuSans-50" x="1023.283203"/>
    <use xlink:href="#DejaVuSans-61" x="1079.085938"/>
    <use xlink:href="#DejaVuSans-74" x="1140.365234"/>
    <use xlink:href="#DejaVuSans-74" x="1179.574219"/>
    <use xlink:href="#DejaVuSans-65" x="1218.783203"/>
    <use xlink:href="#DejaVuSans-72" x="1280.306641"/>
    <use xlink:href="#DejaVuSans-6e" x="1319.669922"/>
   </g>
   <!-- Frequency: 2.425 GHz -->
   <g transform="translate(463.136719 36.39475)scale(0.14 -0.14)">
    <defs>
     <path id="DejaVuSans-46" d="M 628 4666 
L 3309 4666 
L 3309 4134 
L 1259 4134 
L 1259 2759 
L 3109 2759 
L 3109 2228 
L 1259 2228 
L 1259 0 
L 628 0 
L 628 4666 
z
" transform="scale(0.015625)"/>
     <path id="DejaVuSans-71" d="M 947 1747 
Q 947 1113 1208 752 
Q 1469 391 1925 391 
Q 2381 391 2643 752 
Q 2906 1113 2906 1747 
Q 2906 2381 2643 2742 
Q 2381 3103 1925 3103 
Q 1469 3103 1208 2742 
Q 947 2381 947 1747 
z
M 2906 525 
Q 2725 213 2448 61 
Q 2172 -91 1784 -91 
Q 1150 -91 751 415 
Q 353 922 353 1747 
Q 353 2572 751 3078 
Q 1150 3584 1784 3584 
Q 2172 3584 2448 3432 
Q 2725 3281 2906 2969 
L 2906 3500 
L 3481 3500 
L 3481 -1331 
L 2906 -1331 
L 2906 525 
z
" transform="scale(0.015625)"/>
     <path id="DejaVuSans-75" d="M 544 1381 
L 544 3500 
L 1119 3500 
L 1119 1403 
Q 1119 906 1312 657 
Q 1506 409 1894 409 
Q 2359 409 2629 706 
Q 2900 1003 2900 1516 
L 2900 3500 
L 3475 3500 
L 3475 0 
L 2900 0 
L 2900 538 
Q 2691 219 2414 64 
Q 2138 -91 1772 -91 
Q 1169 -91 856 284 
Q 544 659 544 1381 
z
M 1991 3584 
L 1991 3584 
z
" transform="scale(0.015625)"/>
     <path id="DejaVuSans-3a" d="M 750 794 
L 1409 794 
L 1409 0 
L 750 0 
L 750 794 
z
M 750 3309 
L 1409 3309 
L 1409 2516 
L 750 2516 
L 750 3309 
z
" transform="scale(0.015625)"/>
     <path id="DejaVuSans-47" d="M 3809 666 
L 3809 1919 
L 2778 1919 
L 2778 2438 
L 4434 2438 
L 4434 434 
Q 4069 175 3628 42 
Q 3188 -91 2688 -91 
Q 1594 -91 976 548 
Q 359 1188 359 2328 
Q 359 3472 976 4111 
Q 1594 4750 2688 4750 
Q 3144 4750 3555 4637 
Q 3966 4525 4313 4306 
L 4313 3634 
Q 3963 3931 3569 4081 
Q 3175 4231 2741 4231 
Q 1884 4231 1454 3753 
Q 1025 3275 1025 2328 
Q 1025 1384 1454 906 
Q 1884 428 2741 428 
Q 3075 428 3337 486 
Q 3600 544 3809 666 
z
" transform="scale(0.015625)"/>
     <path id="DejaVuSans-48" d="M 628 4666 
L 1259 4666 
L 1259 2753 
L 3553 2753 
L 3553 4666 
L 4184 4666 
L 4184 0 
L 3553 0 
L 3553 2222 
L 1259 2222 
L 1259 0 
L 628 0 
L 628 4666 
z
" transform="scale(0.015625)"/>
    </defs>
    <use xlink:href="#DejaVuSans-46"/>
    <use xlink:href="#DejaVuSans-72" x="50.269531"/>
    <use xlink:href="#DejaVuSans-65" x="89.132812"/>
    <use xlink:href="#DejaVuSans-71" x="150.65625"/>
    <use xlink:href="#DejaVuSans-75" x="214.132812"/>
    <use xlink:href="#DejaVuSans-65" x="277.511719"/>
    <use xlink:href="#DejaVuSans-6e" x="339.035156"/>
    <use xlink:href="#DejaVuSans-63" x="402.414062"/>
    <use xlink:href="#DejaVuSans-79" x="457.394531"/>
    <use xlink:href="#DejaVuSans-3a" x="509.324219"/>
    <use xlink:href="#DejaVuSans-20" x="543.015625"/>
    <use xlink:href="#DejaVuSans-32" x="574.802734"/>
    <use xlink:href="#DejaVuSans-2e" x="638.425781"/>
    <use xlink:href="#DejaVuSans-34" x="670.212891"/>
    <use xlink:href="#DejaVuSans-32" x="733.835938"/>
    <use xlink:href="#DejaVuSans-35" x="797.458984"/>
    <use xlink:href="#DejaVuSans-20" x="861.082031"/>
    <use xlink:href="#DejaVuSans-47" x="892.869141"/>
    <use xlink:href="#DejaVuSans-48" x="970.359375"/>
    <use xlink:href="#DejaVuSans-7a" x="1045.554688"/>
   </g>
  </g>
 </g>
 <defs>
  <clipPath id="p4eee65acfa">
   <path d="M 515.454545 254.52 
C 515.454545 229.539583 510.533948 204.80207 500.974357 181.723174 
C 491.414765 158.644279 477.402089 137.672827 459.738267 120.009005 
C 442.074445 102.345184 421.102994 88.332508 398.024098 78.772916 
C 374.945203 69.213325 350.207689 64.292727 325.227273 64.292727 
C 300.246856 64.292727 275.509343 69.213325 252.430447 78.772916 
C 229.351551 88.332508 208.3801 102.345184 190.716278 120.009005 
C 173.052456 137.672827 159.03978 158.644279 149.480189 181.723174 
C 139.920597 204.80207 135 229.539583 135 254.52 
C 135 279.500417 139.920597 304.23793 149.480189 327.316826 
C 159.03978 350.395721 173.052456 371.367173 190.716278 389.030995 
C 208.3801 406.694816 229.351551 420.707492 252.430447 430.267084 
C 275.509343 439.826675 300.246856 444.747273 325.227273 444.747273 
C 350.207689 444.747273 374.945203 439.826675 398.024098 430.267084 
C 421.102994 420.707492 442.074445 406.694816 459.738267 389.030995 
C 477.402089 371.367173 491.414765 350.395721 500.974357 327.316826 
C 510.533948 304.23793 515.454545 279.500417 515.454545 254.52 
M 325.227273 254.52 
C 325.227273 254.52 325.227273 254.52 325.227273 254.52 
C 325.227273 254.52 325.227273 254.52 325.227273 254.52 
C 325.227273 254.52 325.227273 254.52 325.227273 254.52 
C 325.227273 254.52 325.227273 254.52 325.227273 254.52 
C 325.227273 254.52 325.227273 254.52 325.227273 254.52 
C 325.227273 254.52 325.227273 254.52 325.227273 254.52 
C 325.227273 254.52 325.227273 254.52 325.227273 254.52 
C 325.227273 254.52 325.227273 254.52 325.227273 254.52 
C 325.227273 254.52 325.227273 254.52 325.227273 254.52 
C 325.227273 254.52 325.227273 254.52 325.227273 254.52 
C 325.227273 254.52 325.227273 254.52 325.227273 254.52 
C 325.227273 254.52 325.227273 254.52 325.227273 254.52 
C 325.227273 254.52 325.227273 254.52 325.227273 254.52 
C 325.227273 254.52 325.227273 254.52 325.227273 254.52 
C 325.227273 254.52 325.227273 254.52 325.227273 254.52 
C 325.227273 254.52 325.227273 254.52 325.227273 254.52 
M 515.454545 254.52 
z
"/>
  </clipPath>
  <clipPath id="p6fbe990c57">
   <path d="M 972 254.52 
C 972 229.539583 967.079403 204.80207 957.519811 181.723174 
C 947.96022 158.644279 933.947544 137.672827 916.283722 120.009005 
C 898.6199 102.345184 877.648449 88.332508 854.569553 78.772916 
C 831.490657 69.213325 806.753144 64.292727 781.772727 64.292727 
C 756.792311 64.292727 732.054797 69.213325 708.975902 78.772916 
C 685.897006 88.332508 664.925555 102.345184 647.261733 120.009005 
C 629.597911 137.672827 615.585235 158.644279 606.025643 181.723174 
C 596.466052 204.80207 591.545455 229.539583 591.545455 254.52 
C 591.545455 279.500417 596.466052 304.23793 606.025643 327.316826 
C 615.585235 350.395721 629.597911 371.367173 647.261733 389.030995 
C 664.925555 406.694816 685.897006 420.707492 708.975902 430.267084 
C 732.054797 439.826675 756.792311 444.747273 781.772727 444.747273 
C 806.753144 444.747273 831.490657 439.826675 854.569553 430.267084 
C 877.648449 420.707492 898.6199 406.694816 916.283722 389.030995 
C 933.947544 371.367173 947.96022 350.395721 957.519811 327.316826 
C 967.079403 304.23793 972 279.500417 972 254.52 
M 781.772727 254.52 
C 781.772727 254.52 781.772727 254.52 781.772727 254.52 
C 781.772727 254.52 781.772727 254.52 781.772727 254.52 
C 781.772727 254.52 781.772727 254.52 781.772727 254.52 
C 781.772727 254.52 781.772727 254.52 781.772727 254.52 
C 781.772727 254.52 781.772727 254.52 781.772727 254.52 
C 781.772727 254.52 781.772727 254.52 781.772727 254.52 
C 781.772727 254.52 781.772727 254.52 781.772727 254.52 
C 781.772727 254.52 781.772727 254.52 781.772727 254.52 
C 781.772727 254.52 781.772727 254.52 781.772727 254.52 
C 781.772727 254.52 781.772727 254.52 781.772727 254.52 
C 781.772727 254.52 781.772727 254.52 781.772727 254.52 
C 781.772727 254.52 781.772727 254.52 781.772727 254.52 
C 781.772727 254.52 781.772727 254.52 781.772727 254.52 
C 781.772727 254.52 781.772727 254.52 781.772727 254.52 
C 781.772727 254.52 781.772727 254.52 781.772727 254.52 
C 781.772727 254.52 781.772727 254.52 781.772727 254.52 
M 972 254.52 
z
"/>
  </clipPath>
 </defs>
</svg>
