<?xml version="1.0" encoding="utf-8" standalone="no"?>
<!DOCTYPE svg PUBLIC "-//W3C//DTD SVG 1.1//EN"
  "http://www.w3.org/Graphics/SVG/1.1/DTD/svg11.dtd">
<svg xmlns:xlink="http://www.w3.org/1999/xlink" width="460.8pt" height="345.6pt" viewBox="0 0 460.8 345.6" xmlns="http://www.w3.org/2000/svg" version="1.1">
 <metadata>
  <rdf:RDF xmlns:dc="http://purl.org/dc/elements/1.1/" xmlns:cc="http://creativecommons.org/ns#" xmlns:rdf="http://www.w3.org/1999/02/22-rdf-syntax-ns#">
   <cc:Work>
    <dc:type rdf:resource="http://purl.org/dc/dcmitype/StillImage"/>
    <dc:date>2024-11-15T22:11:38.240075</dc:date>
    <dc:format>image/svg+xml</dc:format>
    <dc:creator>
     <cc:Agent>
      <dc:title>Matplotlib v3.9.2, https://matplotlib.org/</dc:title>
     </cc:Agent>
    </dc:creator>
   </cc:Work>
  </rdf:RDF>
 </metadata>
 <defs>
  <style type="text/css">*{stroke-linejoin: round; stroke-linecap: butt}</style>
 </defs>
 <g id="figure_1">
  <g id="patch_1">
   <path d="M 0 345.6 
L 460.8 345.6 
L 460.8 0 
L 0 0 
z
" style="fill: #ffffff"/>
  </g>
  <g id="axes_1">
   <g id="patch_2">
    <path d="M 57.6 307.584 
L 414.72 307.584 
L 414.72 41.472 
L 57.6 41.472 
z
" style="fill: #ffffff"/>
   </g>
   <g id="matplotlib.axis_1">
    <g id="xtick_1">
     <g id="line2d_1">
      <path d="M 73.832727 307.584 
L 73.832727 41.472 
" clip-path="url(#p8c8f19061b)" style="fill: none; stroke: #b0b0b0; stroke-width: 0.8; stroke-linecap: square"/>
     </g>
     <g id="line2d_2">
      <defs>
       <path id="m16ddec138d" d="M 0 0 
L 0 3.5 
" style="stroke: #000000; stroke-width: 0.8"/>
      </defs>
      <g>
       <use xlink:href="#m16ddec138d" x="73.832727" y="307.584" style="stroke: #000000; stroke-width: 0.8"/>
      </g>
     </g>
     <g id="text_1">
      <!-- 0 -->
      <g transform="translate(70.651477 322.182437) scale(0.1 -0.1)">
       <defs>
        <path id="DejaVuSans-30" d="M 2034 4250 
Q 1547 4250 1301 3770 
Q 1056 3291 1056 2328 
Q 1056 1369 1301 889 
Q 1547 409 2034 409 
Q 2525 409 2770 889 
Q 3016 1369 3016 2328 
Q 3016 3291 2770 3770 
Q 2525 4250 2034 4250 
z
M 2034 4750 
Q 2819 4750 3233 4129 
Q 3647 3509 3647 2328 
Q 3647 1150 3233 529 
Q 2819 -91 2034 -91 
Q 1250 -91 836 529 
Q 422 1150 422 2328 
Q 422 3509 836 4129 
Q 1250 4750 2034 4750 
z
" transform="scale(0.015625)"/>
       </defs>
       <use xlink:href="#DejaVuSans-30"/>
      </g>
     </g>
    </g>
    <g id="xtick_2">
     <g id="line2d_3">
      <path d="M 119.175541 307.584 
L 119.175541 41.472 
" clip-path="url(#p8c8f19061b)" style="fill: none; stroke: #b0b0b0; stroke-width: 0.8; stroke-linecap: square"/>
     </g>
     <g id="line2d_4">
      <g>
       <use xlink:href="#m16ddec138d" x="119.175541" y="307.584" style="stroke: #000000; stroke-width: 0.8"/>
      </g>
     </g>
     <g id="text_2">
      <!-- 25 -->
      <g transform="translate(112.813041 322.182437) scale(0.1 -0.1)">
       <defs>
        <path id="DejaVuSans-32" d="M 1228 531 
L 3431 531 
L 3431 0 
L 469 0 
L 469 531 
Q 828 903 1448 1529 
Q 2069 2156 2228 2338 
Q 2531 2678 2651 2914 
Q 2772 3150 2772 3378 
Q 2772 3750 2511 3984 
Q 2250 4219 1831 4219 
Q 1534 4219 1204 4116 
Q 875 4013 500 3803 
L 500 4441 
Q 881 4594 1212 4672 
Q 1544 4750 1819 4750 
Q 2544 4750 2975 4387 
Q 3406 4025 3406 3419 
Q 3406 3131 3298 2873 
Q 3191 2616 2906 2266 
Q 2828 2175 2409 1742 
Q 1991 1309 1228 531 
z
" transform="scale(0.015625)"/>
        <path id="DejaVuSans-35" d="M 691 4666 
L 3169 4666 
L 3169 4134 
L 1269 4134 
L 1269 2991 
Q 1406 3038 1543 3061 
Q 1681 3084 1819 3084 
Q 2600 3084 3056 2656 
Q 3513 2228 3513 1497 
Q 3513 744 3044 326 
Q 2575 -91 1722 -91 
Q 1428 -91 1123 -41 
Q 819 9 494 109 
L 494 744 
Q 775 591 1075 516 
Q 1375 441 1709 441 
Q 2250 441 2565 725 
Q 2881 1009 2881 1497 
Q 2881 1984 2565 2268 
Q 2250 2553 1709 2553 
Q 1456 2553 1204 2497 
Q 953 2441 691 2322 
L 691 4666 
z
" transform="scale(0.015625)"/>
       </defs>
       <use xlink:href="#DejaVuSans-32"/>
       <use xlink:href="#DejaVuSans-35" x="63.623047"/>
      </g>
     </g>
    </g>
    <g id="xtick_3">
     <g id="line2d_5">
      <path d="M 164.518354 307.584 
L 164.518354 41.472 
" clip-path="url(#p8c8f19061b)" style="fill: none; stroke: #b0b0b0; stroke-width: 0.8; stroke-linecap: square"/>
     </g>
     <g id="line2d_6">
      <g>
       <use xlink:href="#m16ddec138d" x="164.518354" y="307.584" style="stroke: #000000; stroke-width: 0.8"/>
      </g>
     </g>
     <g id="text_3">
      <!-- 50 -->
      <g transform="translate(158.155854 322.182437) scale(0.1 -0.1)">
       <use xlink:href="#DejaVuSans-35"/>
       <use xlink:href="#DejaVuSans-30" x="63.623047"/>
      </g>
     </g>
    </g>
    <g id="xtick_4">
     <g id="line2d_7">
      <path d="M 209.861168 307.584 
L 209.861168 41.472 
" clip-path="url(#p8c8f19061b)" style="fill: none; stroke: #b0b0b0; stroke-width: 0.8; stroke-linecap: square"/>
     </g>
     <g id="line2d_8">
      <g>
       <use xlink:href="#m16ddec138d" x="209.861168" y="307.584" style="stroke: #000000; stroke-width: 0.8"/>
      </g>
     </g>
     <g id="text_4">
      <!-- 75 -->
      <g transform="translate(203.498668 322.182437) scale(0.1 -0.1)">
       <defs>
        <path id="DejaVuSans-37" d="M 525 4666 
L 3525 4666 
L 3525 4397 
L 1831 0 
L 1172 0 
L 2766 4134 
L 525 4134 
L 525 4666 
z
" transform="scale(0.015625)"/>
       </defs>
       <use xlink:href="#DejaVuSans-37"/>
       <use xlink:href="#DejaVuSans-35" x="63.623047"/>
      </g>
     </g>
    </g>
    <g id="xtick_5">
     <g id="line2d_9">
      <path d="M 255.203982 307.584 
L 255.203982 41.472 
" clip-path="url(#p8c8f19061b)" style="fill: none; stroke: #b0b0b0; stroke-width: 0.8; stroke-linecap: square"/>
     </g>
     <g id="line2d_10">
      <g>
       <use xlink:href="#m16ddec138d" x="255.203982" y="307.584" style="stroke: #000000; stroke-width: 0.8"/>
      </g>
     </g>
     <g id="text_5">
      <!-- 100 -->
      <g transform="translate(245.660232 322.182437) scale(0.1 -0.1)">
       <defs>
        <path id="DejaVuSans-31" d="M 794 531 
L 1825 531 
L 1825 4091 
L 703 3866 
L 703 4441 
L 1819 4666 
L 2450 4666 
L 2450 531 
L 3481 531 
L 3481 0 
L 794 0 
L 794 531 
z
" transform="scale(0.015625)"/>
       </defs>
       <use xlink:href="#DejaVuSans-31"/>
       <use xlink:href="#DejaVuSans-30" x="63.623047"/>
       <use xlink:href="#DejaVuSans-30" x="127.246094"/>
      </g>
     </g>
    </g>
    <g id="xtick_6">
     <g id="line2d_11">
      <path d="M 300.546795 307.584 
L 300.546795 41.472 
" clip-path="url(#p8c8f19061b)" style="fill: none; stroke: #b0b0b0; stroke-width: 0.8; stroke-linecap: square"/>
     </g>
     <g id="line2d_12">
      <g>
       <use xlink:href="#m16ddec138d" x="300.546795" y="307.584" style="stroke: #000000; stroke-width: 0.8"/>
      </g>
     </g>
     <g id="text_6">
      <!-- 125 -->
      <g transform="translate(291.003045 322.182437) scale(0.1 -0.1)">
       <use xlink:href="#DejaVuSans-31"/>
       <use xlink:href="#DejaVuSans-32" x="63.623047"/>
       <use xlink:href="#DejaVuSans-35" x="127.246094"/>
      </g>
     </g>
    </g>
    <g id="xtick_7">
     <g id="line2d_13">
      <path d="M 345.889609 307.584 
L 345.889609 41.472 
" clip-path="url(#p8c8f19061b)" style="fill: none; stroke: #b0b0b0; stroke-width: 0.8; stroke-linecap: square"/>
     </g>
     <g id="line2d_14">
      <g>
       <use xlink:href="#m16ddec138d" x="345.889609" y="307.584" style="stroke: #000000; stroke-width: 0.8"/>
      </g>
     </g>
     <g id="text_7">
      <!-- 150 -->
      <g transform="translate(336.345859 322.182437) scale(0.1 -0.1)">
       <use xlink:href="#DejaVuSans-31"/>
       <use xlink:href="#DejaVuSans-35" x="63.623047"/>
       <use xlink:href="#DejaVuSans-30" x="127.246094"/>
      </g>
     </g>
    </g>
    <g id="xtick_8">
     <g id="line2d_15">
      <path d="M 391.232423 307.584 
L 391.232423 41.472 
" clip-path="url(#p8c8f19061b)" style="fill: none; stroke: #b0b0b0; stroke-width: 0.8; stroke-linecap: square"/>
     </g>
     <g id="line2d_16">
      <g>
       <use xlink:href="#m16ddec138d" x="391.232423" y="307.584" style="stroke: #000000; stroke-width: 0.8"/>
      </g>
     </g>
     <g id="text_8">
      <!-- 175 -->
      <g transform="translate(381.688673 322.182437) scale(0.1 -0.1)">
       <use xlink:href="#DejaVuSans-31"/>
       <use xlink:href="#DejaVuSans-37" x="63.623047"/>
       <use xlink:href="#DejaVuSans-35" x="127.246094"/>
      </g>
     </g>
    </g>
    <g id="text_9">
     <!-- theta (deg) -->
     <g transform="translate(208.014687 335.860562) scale(0.1 -0.1)">
      <defs>
       <path id="DejaVuSans-74" d="M 1172 4494 
L 1172 3500 
L 2356 3500 
L 2356 3053 
L 1172 3053 
L 1172 1153 
Q 1172 725 1289 603 
Q 1406 481 1766 481 
L 2356 481 
L 2356 0 
L 1766 0 
Q 1100 0 847 248 
Q 594 497 594 1153 
L 594 3053 
L 172 3053 
L 172 3500 
L 594 3500 
L 594 4494 
L 1172 4494 
z
" transform="scale(0.015625)"/>
       <path id="DejaVuSans-68" d="M 3513 2113 
L 3513 0 
L 2938 0 
L 2938 2094 
Q 2938 2591 2744 2837 
Q 2550 3084 2163 3084 
Q 1697 3084 1428 2787 
Q 1159 2491 1159 1978 
L 1159 0 
L 581 0 
L 581 4863 
L 1159 4863 
L 1159 2956 
Q 1366 3272 1645 3428 
Q 1925 3584 2291 3584 
Q 2894 3584 3203 3211 
Q 3513 2838 3513 2113 
z
" transform="scale(0.015625)"/>
       <path id="DejaVuSans-65" d="M 3597 1894 
L 3597 1613 
L 953 1613 
Q 991 1019 1311 708 
Q 1631 397 2203 397 
Q 2534 397 2845 478 
Q 3156 559 3463 722 
L 3463 178 
Q 3153 47 2828 -22 
Q 2503 -91 2169 -91 
Q 1331 -91 842 396 
Q 353 884 353 1716 
Q 353 2575 817 3079 
Q 1281 3584 2069 3584 
Q 2775 3584 3186 3129 
Q 3597 2675 3597 1894 
z
M 3022 2063 
Q 3016 2534 2758 2815 
Q 2500 3097 2075 3097 
Q 1594 3097 1305 2825 
Q 1016 2553 972 2059 
L 3022 2063 
z
" transform="scale(0.015625)"/>
       <path id="DejaVuSans-61" d="M 2194 1759 
Q 1497 1759 1228 1600 
Q 959 1441 959 1056 
Q 959 750 1161 570 
Q 1363 391 1709 391 
Q 2188 391 2477 730 
Q 2766 1069 2766 1631 
L 2766 1759 
L 2194 1759 
z
M 3341 1997 
L 3341 0 
L 2766 0 
L 2766 531 
Q 2569 213 2275 61 
Q 1981 -91 1556 -91 
Q 1019 -91 701 211 
Q 384 513 384 1019 
Q 384 1609 779 1909 
Q 1175 2209 1959 2209 
L 2766 2209 
L 2766 2266 
Q 2766 2663 2505 2880 
Q 2244 3097 1772 3097 
Q 1472 3097 1187 3025 
Q 903 2953 641 2809 
L 641 3341 
Q 956 3463 1253 3523 
Q 1550 3584 1831 3584 
Q 2591 3584 2966 3190 
Q 3341 2797 3341 1997 
z
" transform="scale(0.015625)"/>
       <path id="DejaVuSans-20" transform="scale(0.015625)"/>
       <path id="DejaVuSans-28" d="M 1984 4856 
Q 1566 4138 1362 3434 
Q 1159 2731 1159 2009 
Q 1159 1288 1364 580 
Q 1569 -128 1984 -844 
L 1484 -844 
Q 1016 -109 783 600 
Q 550 1309 550 2009 
Q 550 2706 781 3412 
Q 1013 4119 1484 4856 
L 1984 4856 
z
" transform="scale(0.015625)"/>
       <path id="DejaVuSans-64" d="M 2906 2969 
L 2906 4863 
L 3481 4863 
L 3481 0 
L 2906 0 
L 2906 525 
Q 2725 213 2448 61 
Q 2172 -91 1784 -91 
Q 1150 -91 751 415 
Q 353 922 353 1747 
Q 353 2572 751 3078 
Q 1150 3584 1784 3584 
Q 2172 3584 2448 3432 
Q 2725 3281 2906 2969 
z
M 947 1747 
Q 947 1113 1208 752 
Q 1469 391 1925 391 
Q 2381 391 2643 752 
Q 2906 1113 2906 1747 
Q 2906 2381 2643 2742 
Q 2381 3103 1925 3103 
Q 1469 3103 1208 2742 
Q 947 2381 947 1747 
z
" transform="scale(0.015625)"/>
       <path id="DejaVuSans-67" d="M 2906 1791 
Q 2906 2416 2648 2759 
Q 2391 3103 1925 3103 
Q 1463 3103 1205 2759 
Q 947 2416 947 1791 
Q 947 1169 1205 825 
Q 1463 481 1925 481 
Q 2391 481 2648 825 
Q 2906 1169 2906 1791 
z
M 3481 434 
Q 3481 -459 3084 -895 
Q 2688 -1331 1869 -1331 
Q 1566 -1331 1297 -1286 
Q 1028 -1241 775 -1147 
L 775 -588 
Q 1028 -725 1275 -790 
Q 1522 -856 1778 -856 
Q 2344 -856 2625 -561 
Q 2906 -266 2906 331 
L 2906 616 
Q 2728 306 2450 153 
Q 2172 0 1784 0 
Q 1141 0 747 490 
Q 353 981 353 1791 
Q 353 2603 747 3093 
Q 1141 3584 1784 3584 
Q 2172 3584 2450 3431 
Q 2728 3278 2906 2969 
L 2906 3500 
L 3481 3500 
L 3481 434 
z
" transform="scale(0.015625)"/>
       <path id="DejaVuSans-29" d="M 513 4856 
L 1013 4856 
Q 1481 4119 1714 3412 
Q 1947 2706 1947 2009 
Q 1947 1309 1714 600 
Q 1481 -109 1013 -844 
L 513 -844 
Q 928 -128 1133 580 
Q 1338 1288 1338 2009 
Q 1338 2731 1133 3434 
Q 928 4138 513 4856 
z
" transform="scale(0.015625)"/>
      </defs>
      <use xlink:href="#DejaVuSans-74"/>
      <use xlink:href="#DejaVuSans-68" x="39.208984"/>
      <use xlink:href="#DejaVuSans-65" x="102.587891"/>
      <use xlink:href="#DejaVuSans-74" x="164.111328"/>
      <use xlink:href="#DejaVuSans-61" x="203.320312"/>
      <use xlink:href="#DejaVuSans-20" x="264.599609"/>
      <use xlink:href="#DejaVuSans-28" x="296.386719"/>
      <use xlink:href="#DejaVuSans-64" x="335.400391"/>
      <use xlink:href="#DejaVuSans-65" x="398.876953"/>
      <use xlink:href="#DejaVuSans-67" x="460.400391"/>
      <use xlink:href="#DejaVuSans-29" x="523.876953"/>
     </g>
    </g>
   </g>
   <g id="matplotlib.axis_2">
    <g id="ytick_1">
     <g id="line2d_17">
      <path d="M 57.6 263.728836 
L 414.72 263.728836 
" clip-path="url(#p8c8f19061b)" style="fill: none; stroke: #b0b0b0; stroke-width: 0.8; stroke-linecap: square"/>
     </g>
     <g id="line2d_18">
      <defs>
       <path id="m7a9d1620da" d="M 0 0 
L -3.5 0 
" style="stroke: #000000; stroke-width: 0.8"/>
      </defs>
      <g>
       <use xlink:href="#m7a9d1620da" x="57.6" y="263.728836" style="stroke: #000000; stroke-width: 0.8"/>
      </g>
     </g>
     <g id="text_10">
      <!-- −30 -->
      <g transform="translate(29.495313 267.528055) scale(0.1 -0.1)">
       <defs>
        <path id="DejaVuSans-2212" d="M 678 2272 
L 4684 2272 
L 4684 1741 
L 678 1741 
L 678 2272 
z
" transform="scale(0.015625)"/>
        <path id="DejaVuSans-33" d="M 2597 2516 
Q 3050 2419 3304 2112 
Q 3559 1806 3559 1356 
Q 3559 666 3084 287 
Q 2609 -91 1734 -91 
Q 1441 -91 1130 -33 
Q 819 25 488 141 
L 488 750 
Q 750 597 1062 519 
Q 1375 441 1716 441 
Q 2309 441 2620 675 
Q 2931 909 2931 1356 
Q 2931 1769 2642 2001 
Q 2353 2234 1838 2234 
L 1294 2234 
L 1294 2753 
L 1863 2753 
Q 2328 2753 2575 2939 
Q 2822 3125 2822 3475 
Q 2822 3834 2567 4026 
Q 2313 4219 1838 4219 
Q 1578 4219 1281 4162 
Q 984 4106 628 3988 
L 628 4550 
Q 988 4650 1302 4700 
Q 1616 4750 1894 4750 
Q 2613 4750 3031 4423 
Q 3450 4097 3450 3541 
Q 3450 3153 3228 2886 
Q 3006 2619 2597 2516 
z
" transform="scale(0.015625)"/>
       </defs>
       <use xlink:href="#DejaVuSans-2212"/>
       <use xlink:href="#DejaVuSans-33" x="83.789062"/>
       <use xlink:href="#DejaVuSans-30" x="147.412109"/>
      </g>
     </g>
    </g>
    <g id="ytick_2">
     <g id="line2d_19">
      <path d="M 57.6 206.921178 
L 414.72 206.921178 
" clip-path="url(#p8c8f19061b)" style="fill: none; stroke: #b0b0b0; stroke-width: 0.8; stroke-linecap: square"/>
     </g>
     <g id="line2d_20">
      <g>
       <use xlink:href="#m7a9d1620da" x="57.6" y="206.921178" style="stroke: #000000; stroke-width: 0.8"/>
      </g>
     </g>
     <g id="text_11">
      <!-- −20 -->
      <g transform="translate(29.495313 210.720397) scale(0.1 -0.1)">
       <use xlink:href="#DejaVuSans-2212"/>
       <use xlink:href="#DejaVuSans-32" x="83.789062"/>
       <use xlink:href="#DejaVuSans-30" x="147.412109"/>
      </g>
     </g>
    </g>
    <g id="ytick_3">
     <g id="line2d_21">
      <path d="M 57.6 150.113521 
L 414.72 150.113521 
" clip-path="url(#p8c8f19061b)" style="fill: none; stroke: #b0b0b0; stroke-width: 0.8; stroke-linecap: square"/>
     </g>
     <g id="line2d_22">
      <g>
       <use xlink:href="#m7a9d1620da" x="57.6" y="150.113521" style="stroke: #000000; stroke-width: 0.8"/>
      </g>
     </g>
     <g id="text_12">
      <!-- −10 -->
      <g transform="translate(29.495313 153.912739) scale(0.1 -0.1)">
       <use xlink:href="#DejaVuSans-2212"/>
       <use xlink:href="#DejaVuSans-31" x="83.789062"/>
       <use xlink:href="#DejaVuSans-30" x="147.412109"/>
      </g>
     </g>
    </g>
    <g id="ytick_4">
     <g id="line2d_23">
      <path d="M 57.6 93.305863 
L 414.72 93.305863 
" clip-path="url(#p8c8f19061b)" style="fill: none; stroke: #b0b0b0; stroke-width: 0.8; stroke-linecap: square"/>
     </g>
     <g id="line2d_24">
      <g>
       <use xlink:href="#m7a9d1620da" x="57.6" y="93.305863" style="stroke: #000000; stroke-width: 0.8"/>
      </g>
     </g>
     <g id="text_13">
      <!-- 0 -->
      <g transform="translate(44.2375 97.105082) scale(0.1 -0.1)">
       <use xlink:href="#DejaVuSans-30"/>
      </g>
     </g>
    </g>
    <g id="text_14">
     <!-- directivity (dBi) -->
     <g transform="translate(23.415625 212.961594) rotate(-90) scale(0.1 -0.1)">
      <defs>
       <path id="DejaVuSans-69" d="M 603 3500 
L 1178 3500 
L 1178 0 
L 603 0 
L 603 3500 
z
M 603 4863 
L 1178 4863 
L 1178 4134 
L 603 4134 
L 603 4863 
z
" transform="scale(0.015625)"/>
       <path id="DejaVuSans-72" d="M 2631 2963 
Q 2534 3019 2420 3045 
Q 2306 3072 2169 3072 
Q 1681 3072 1420 2755 
Q 1159 2438 1159 1844 
L 1159 0 
L 581 0 
L 581 3500 
L 1159 3500 
L 1159 2956 
Q 1341 3275 1631 3429 
Q 1922 3584 2338 3584 
Q 2397 3584 2469 3576 
Q 2541 3569 2628 3553 
L 2631 2963 
z
" transform="scale(0.015625)"/>
       <path id="DejaVuSans-63" d="M 3122 3366 
L 3122 2828 
Q 2878 2963 2633 3030 
Q 2388 3097 2138 3097 
Q 1578 3097 1268 2742 
Q 959 2388 959 1747 
Q 959 1106 1268 751 
Q 1578 397 2138 397 
Q 2388 397 2633 464 
Q 2878 531 3122 666 
L 3122 134 
Q 2881 22 2623 -34 
Q 2366 -91 2075 -91 
Q 1284 -91 818 406 
Q 353 903 353 1747 
Q 353 2603 823 3093 
Q 1294 3584 2113 3584 
Q 2378 3584 2631 3529 
Q 2884 3475 3122 3366 
z
" transform="scale(0.015625)"/>
       <path id="DejaVuSans-76" d="M 191 3500 
L 800 3500 
L 1894 563 
L 2988 3500 
L 3597 3500 
L 2284 0 
L 1503 0 
L 191 3500 
z
" transform="scale(0.015625)"/>
       <path id="DejaVuSans-79" d="M 2059 -325 
Q 1816 -950 1584 -1140 
Q 1353 -1331 966 -1331 
L 506 -1331 
L 506 -850 
L 844 -850 
Q 1081 -850 1212 -737 
Q 1344 -625 1503 -206 
L 1606 56 
L 191 3500 
L 800 3500 
L 1894 763 
L 2988 3500 
L 3597 3500 
L 2059 -325 
z
" transform="scale(0.015625)"/>
       <path id="DejaVuSans-42" d="M 1259 2228 
L 1259 519 
L 2272 519 
Q 2781 519 3026 730 
Q 3272 941 3272 1375 
Q 3272 1813 3026 2020 
Q 2781 2228 2272 2228 
L 1259 2228 
z
M 1259 4147 
L 1259 2741 
L 2194 2741 
Q 2656 2741 2882 2914 
Q 3109 3088 3109 3444 
Q 3109 3797 2882 3972 
Q 2656 4147 2194 4147 
L 1259 4147 
z
M 628 4666 
L 2241 4666 
Q 2963 4666 3353 4366 
Q 3744 4066 3744 3513 
Q 3744 3084 3544 2831 
Q 3344 2578 2956 2516 
Q 3422 2416 3680 2098 
Q 3938 1781 3938 1306 
Q 3938 681 3513 340 
Q 3088 0 2303 0 
L 628 0 
L 628 4666 
z
" transform="scale(0.015625)"/>
      </defs>
      <use xlink:href="#DejaVuSans-64"/>
      <use xlink:href="#DejaVuSans-69" x="63.476562"/>
      <use xlink:href="#DejaVuSans-72" x="91.259766"/>
      <use xlink:href="#DejaVuSans-65" x="130.123047"/>
      <use xlink:href="#DejaVuSans-63" x="191.646484"/>
      <use xlink:href="#DejaVuSans-74" x="246.626953"/>
      <use xlink:href="#DejaVuSans-69" x="285.835938"/>
      <use xlink:href="#DejaVuSans-76" x="313.619141"/>
      <use xlink:href="#DejaVuSans-69" x="372.798828"/>
      <use xlink:href="#DejaVuSans-74" x="400.582031"/>
      <use xlink:href="#DejaVuSans-79" x="439.791016"/>
      <use xlink:href="#DejaVuSans-20" x="498.970703"/>
      <use xlink:href="#DejaVuSans-28" x="530.757812"/>
      <use xlink:href="#DejaVuSans-64" x="569.771484"/>
      <use xlink:href="#DejaVuSans-42" x="633.248047"/>
      <use xlink:href="#DejaVuSans-69" x="701.851562"/>
      <use xlink:href="#DejaVuSans-29" x="729.634766"/>
     </g>
    </g>
   </g>
   <g id="line2d_25">
    <path d="M 73.832727 137.426697 
L 75.64644 128.218591 
L 77.460152 120.54436 
L 79.273865 113.981413 
L 81.087577 108.261258 
L 82.90129 103.202404 
L 84.715003 98.67661 
L 86.528715 94.589632 
L 88.342428 90.870535 
L 90.15614 87.464388 
L 91.969853 84.328113 
L 95.597278 78.734024 
L 99.224703 73.885841 
L 102.852128 69.651772 
L 106.479553 65.949037 
L 110.106978 62.730693 
L 113.734403 59.976992 
L 117.361828 57.688202 
L 120.989253 55.878459 
L 122.802966 55.160054 
L 124.616679 54.570237 
L 126.430391 54.112488 
L 128.244104 53.790356 
L 130.057816 53.607577 
L 131.871529 53.568 
L 133.685241 53.675754 
L 135.498954 53.935393 
L 137.312666 54.352021 
L 139.126379 54.931621 
L 140.940091 55.681185 
L 142.753804 56.609225 
L 144.567517 57.725987 
L 146.381229 59.043898 
L 148.194942 60.57791 
L 150.008654 62.346141 
L 151.822367 64.370238 
L 153.636079 66.676153 
L 155.449792 69.294774 
L 157.263504 72.263111 
L 159.077217 75.625474 
L 160.890929 79.434841 
L 162.704642 83.75514 
L 164.518354 88.663011 
L 166.332067 94.249518 
L 168.14578 100.6179 
L 169.959492 107.870825 
L 171.773205 116.063717 
L 175.40063 134.15913 
L 177.214342 141.420116 
L 179.028055 143.830211 
L 180.841767 140.266506 
L 182.65548 133.112769 
L 184.469192 125.12835 
L 186.282905 117.665772 
L 188.096618 111.132517 
L 189.91033 105.565322 
L 191.724043 100.889268 
L 193.537755 97.009677 
L 195.351468 93.840285 
L 197.16518 91.310199 
L 198.978893 89.364121 
L 200.792605 87.960358 
L 202.606318 87.069505 
L 204.42003 86.672359 
L 206.233743 86.759304 
L 208.047456 87.329688 
L 209.861168 88.39183 
L 211.674881 89.963651 
L 213.488593 92.074183 
L 215.302306 94.765664 
L 217.116018 98.097627 
L 218.929731 102.152911 
L 220.743443 107.047967 
L 222.557156 112.949794 
L 224.370868 120.107198 
L 226.184581 128.910892 
L 227.998294 140.023147 
L 229.812006 154.702658 
L 231.625719 175.826323 
L 233.439431 212.775729 
L 235.253144 278.387189 
L 237.066856 202.413621 
L 238.880569 172.616172 
L 240.694281 154.923221 
L 242.507994 142.690316 
L 244.321706 133.629667 
L 246.135419 126.683034 
L 247.949132 121.274446 
L 249.762844 117.055823 
L 251.576557 113.800891 
L 253.390269 111.354291 
L 255.203982 109.604793 
L 257.017694 108.469769 
L 258.831407 107.886036 
L 260.645119 107.803649 
L 262.458832 108.181919 
L 264.272544 108.986245 
L 266.086257 110.185698 
L 267.89997 111.750959 
L 269.713682 113.651971 
L 271.527395 115.856076 
L 273.341107 118.325663 
L 276.968532 123.873065 
L 284.223382 135.579054 
L 286.037095 138.197432 
L 287.850808 140.571357 
L 289.66452 142.67942 
L 291.478233 144.528551 
L 293.291945 146.147873 
L 295.105658 147.576203 
L 296.91937 148.845443 
L 298.733083 149.964573 
L 300.546795 150.905422 
L 302.360508 151.593861 
L 304.17422 151.909805 
L 305.987933 151.701998 
L 307.801646 150.81994 
L 309.615358 149.158603 
L 311.429071 146.697513 
L 313.242783 143.512216 
L 315.056496 139.752967 
L 318.683921 131.240966 
L 324.125058 118.208238 
L 327.752483 110.332563 
L 329.566196 106.748978 
L 331.379909 103.418951 
L 333.193621 100.346892 
L 335.007334 97.53264 
L 336.821046 94.973453 
L 338.634759 92.664633 
L 340.448471 90.600274 
L 342.262184 88.773636 
L 344.075896 87.177424 
L 345.889609 85.804103 
L 347.703321 84.645883 
L 349.517034 83.695067 
L 351.330747 82.944046 
L 353.144459 82.385443 
L 354.958172 82.012366 
L 356.771884 81.818358 
L 358.585597 81.797668 
L 360.399309 81.945285 
L 362.213022 82.257079 
L 364.026734 82.72993 
L 365.840447 83.361844 
L 367.654159 84.151945 
L 369.467872 85.100782 
L 371.281585 86.210221 
L 373.095297 87.48375 
L 374.90901 88.92656 
L 376.722722 90.545701 
L 378.536435 92.350416 
L 380.350147 94.352327 
L 382.16386 96.566092 
L 383.977572 99.009812 
L 385.791285 101.705772 
L 387.604997 104.681882 
L 389.41871 107.972703 
L 391.232423 111.622303 
L 393.046135 115.686812 
L 394.859848 120.239794 
L 396.67356 125.379603 
L 398.487273 131.241205 
L 398.487273 131.241205 
" clip-path="url(#p8c8f19061b)" style="fill: none; stroke: #000000; stroke-width: 2; stroke-linecap: square"/>
   </g>
   <g id="line2d_26">
    <path d="M 73.832727 154.527506 
L 75.64644 145.3194 
L 77.460152 137.645169 
L 79.273865 131.082222 
L 81.087577 125.362067 
L 82.90129 120.303213 
L 84.715003 115.777419 
L 86.528715 111.690442 
L 88.342428 107.971344 
L 90.15614 104.565198 
L 91.969853 101.428923 
L 95.597278 95.834833 
L 99.224703 90.986649 
L 102.852128 86.752581 
L 106.479553 83.049846 
L 110.106978 79.831502 
L 113.734403 77.077801 
L 117.361828 74.789011 
L 120.989253 72.979268 
L 122.802966 72.260863 
L 124.616679 71.671046 
L 126.430391 71.213296 
L 128.244104 70.891165 
L 130.057816 70.708386 
L 131.871529 70.668809 
L 133.685241 70.776564 
L 135.498954 71.036202 
L 137.312666 71.45283 
L 139.126379 72.03243 
L 140.940091 72.781994 
L 142.753804 73.710034 
L 144.567517 74.826796 
L 146.381229 76.144707 
L 148.194942 77.678719 
L 150.008654 79.44695 
L 151.822367 81.471047 
L 153.636079 83.776961 
L 155.449792 86.395583 
L 157.263504 89.36392 
L 159.077217 92.726283 
L 160.890929 96.535649 
L 162.704642 100.855949 
L 164.518354 105.76382 
L 166.332067 111.350327 
L 168.14578 117.718709 
L 169.959492 124.971634 
L 171.773205 133.164526 
L 175.40063 151.259939 
L 177.214342 158.520925 
L 179.028055 160.931019 
L 180.841767 157.367314 
L 182.65548 150.213578 
L 184.469192 142.229159 
L 186.282905 134.766581 
L 188.096618 128.233325 
L 189.91033 122.66613 
L 191.724043 117.990077 
L 193.537755 114.110486 
L 195.351468 110.941093 
L 197.16518 108.411008 
L 198.978893 106.464929 
L 200.792605 105.061167 
L 202.606318 104.170314 
L 204.42003 103.773168 
L 206.233743 103.860113 
L 208.047456 104.430497 
L 209.861168 105.492639 
L 211.674881 107.06446 
L 213.488593 109.174992 
L 215.302306 111.866474 
L 217.116018 115.198437 
L 218.929731 119.25372 
L 220.743443 124.148776 
L 222.557156 130.050604 
L 224.370868 137.208007 
L 226.184581 146.011702 
L 227.998294 157.123957 
L 229.812006 171.803467 
L 231.625719 192.927132 
L 233.439431 229.876537 
L 235.253144 295.488 
L 237.066856 219.514431 
L 238.880569 189.716981 
L 240.694281 172.024031 
L 242.507994 159.791126 
L 244.321706 150.730476 
L 246.135419 143.783844 
L 247.949132 138.375255 
L 249.762844 134.156632 
L 251.576557 130.9017 
L 253.390269 128.4551 
L 255.203982 126.705602 
L 257.017694 125.570578 
L 258.831407 124.986845 
L 260.645119 124.904458 
L 262.458832 125.282728 
L 264.272544 126.087054 
L 266.086257 127.286507 
L 267.89997 128.851768 
L 269.713682 130.75278 
L 271.527395 132.956885 
L 273.341107 135.426472 
L 276.968532 140.973875 
L 284.223382 152.679863 
L 286.037095 155.298242 
L 287.850808 157.672166 
L 289.66452 159.780229 
L 291.478233 161.62936 
L 293.291945 163.248683 
L 295.105658 164.677012 
L 296.91937 165.946252 
L 298.733083 167.065381 
L 300.546795 168.006232 
L 302.360508 168.69467 
L 304.17422 169.010613 
L 305.987933 168.802806 
L 307.801646 167.920748 
L 309.615358 166.259412 
L 311.429071 163.798323 
L 313.242783 160.613025 
L 315.056496 156.853777 
L 318.683921 148.341775 
L 324.125058 135.309048 
L 327.752483 127.433372 
L 329.566196 123.849788 
L 331.379909 120.51976 
L 333.193621 117.447701 
L 335.007334 114.63345 
L 336.821046 112.074262 
L 338.634759 109.765443 
L 340.448471 107.701084 
L 342.262184 105.874445 
L 344.075896 104.278234 
L 345.889609 102.904913 
L 347.703321 101.746692 
L 349.517034 100.795876 
L 351.330747 100.044856 
L 353.144459 99.486253 
L 354.958172 99.113175 
L 356.771884 98.919168 
L 358.585597 98.898477 
L 360.399309 99.046095 
L 362.213022 99.357888 
L 364.026734 99.830739 
L 365.840447 100.462653 
L 367.654159 101.252754 
L 369.467872 102.201591 
L 371.281585 103.31103 
L 373.095297 104.584559 
L 374.90901 106.027369 
L 376.722722 107.646509 
L 378.536435 109.451225 
L 380.350147 111.453136 
L 382.16386 113.6669 
L 383.977572 116.11062 
L 385.791285 118.80658 
L 387.604997 121.78269 
L 389.41871 125.073511 
L 391.232423 128.72311 
L 393.046135 132.787621 
L 394.859848 137.340602 
L 396.67356 142.480412 
L 398.487273 148.342013 
L 398.487273 148.342013 
" clip-path="url(#p8c8f19061b)" style="fill: none; stroke-dasharray: 7.4,3.2; stroke-dashoffset: 0; stroke: #008000; stroke-width: 2"/>
   </g>
   <g id="line2d_27">
    <path d="M 73.832727 154.527506 
L 75.64644 145.3194 
L 77.460152 137.645169 
L 79.273865 131.082222 
L 81.087577 125.362067 
L 82.90129 120.303213 
L 84.715003 115.777418 
L 86.528715 111.690441 
L 88.342428 107.971344 
L 90.15614 104.565196 
L 91.969853 101.428922 
L 95.597278 95.834833 
L 99.224703 90.98665 
L 102.852128 86.752581 
L 106.479553 83.049846 
L 110.106978 79.831502 
L 113.734403 77.077801 
L 117.361828 74.789011 
L 120.989253 72.979268 
L 122.802966 72.260863 
L 124.616679 71.671046 
L 126.430391 71.213297 
L 128.244104 70.891165 
L 130.057816 70.708386 
L 131.871529 70.668809 
L 133.685241 70.776563 
L 135.498954 71.036202 
L 137.312666 71.45283 
L 139.126379 72.03243 
L 140.940091 72.781995 
L 142.753804 73.710034 
L 144.567517 74.826795 
L 146.381229 76.144707 
L 148.194942 77.678719 
L 150.008654 79.44695 
L 151.822367 81.471047 
L 153.636079 83.776962 
L 155.449792 86.395582 
L 157.263504 89.36392 
L 159.077217 92.726283 
L 160.890929 96.53565 
L 162.704642 100.855948 
L 164.518354 105.763819 
L 166.332067 111.350326 
L 168.14578 117.718709 
L 169.959492 124.971634 
L 171.773205 133.164526 
L 175.40063 151.25994 
L 177.214342 158.520925 
L 179.028055 160.931021 
L 180.841767 157.367315 
L 182.65548 150.213579 
L 184.469192 142.22916 
L 186.282905 134.766582 
L 188.096618 128.233326 
L 189.91033 122.666131 
L 191.724043 117.990078 
L 193.537755 114.110486 
L 195.351468 110.941094 
L 197.16518 108.411008 
L 198.978893 106.46493 
L 200.792605 105.061167 
L 202.606318 104.170314 
L 204.42003 103.773168 
L 206.233743 103.860113 
L 208.047456 104.430497 
L 209.861168 105.492639 
L 211.674881 107.064459 
L 213.488593 109.174992 
L 215.302306 111.866472 
L 217.116018 115.198435 
L 218.929731 119.253719 
L 220.743443 124.148775 
L 222.557156 130.050602 
L 224.370868 137.208006 
L 226.184581 146.011701 
L 227.998294 157.123955 
L 229.812006 171.803466 
L 231.625719 192.927132 
L 233.439431 229.876539 
L 235.253144 295.487995 
L 237.066856 219.514428 
L 238.880569 189.71698 
L 240.694281 172.024029 
L 242.507994 159.791124 
L 244.321706 150.730475 
L 246.135419 143.783842 
L 247.949132 138.375254 
L 249.762844 134.156632 
L 251.576557 130.901699 
L 253.390269 128.455099 
L 255.203982 126.705602 
L 257.017694 125.570578 
L 258.831407 124.986845 
L 260.645119 124.904458 
L 262.458832 125.282727 
L 264.272544 126.087054 
L 266.086257 127.286507 
L 267.89997 128.851767 
L 269.713682 130.75278 
L 271.527395 132.956886 
L 273.341107 135.426472 
L 276.968532 140.973874 
L 284.223382 152.679863 
L 286.037095 155.298241 
L 287.850808 157.672165 
L 289.66452 159.780228 
L 291.478233 161.629359 
L 293.291945 163.24868 
L 295.105658 164.677011 
L 296.91937 165.946252 
L 298.733083 167.065382 
L 300.546795 168.006231 
L 302.360508 168.694669 
L 304.17422 169.010614 
L 305.987933 168.802808 
L 307.801646 167.92075 
L 309.615358 166.259413 
L 311.429071 163.798322 
L 313.242783 160.613025 
L 315.056496 156.853776 
L 318.683921 148.341775 
L 324.125058 135.309046 
L 327.752483 127.433371 
L 329.566196 123.849786 
L 331.379909 120.51976 
L 333.193621 117.4477 
L 335.007334 114.633449 
L 336.821046 112.074261 
L 338.634759 109.765442 
L 340.448471 107.701083 
L 342.262184 105.874444 
L 344.075896 104.278233 
L 345.889609 102.904912 
L 347.703321 101.746692 
L 349.517034 100.795875 
L 351.330747 100.044855 
L 353.144459 99.486252 
L 354.958172 99.113174 
L 356.771884 98.919167 
L 358.585597 98.898477 
L 360.399309 99.046094 
L 362.213022 99.357888 
L 364.026734 99.830738 
L 365.840447 100.462652 
L 367.654159 101.252754 
L 369.467872 102.201591 
L 371.281585 103.31103 
L 373.095297 104.584559 
L 374.90901 106.027369 
L 376.722722 107.64651 
L 378.536435 109.451225 
L 380.350147 111.453137 
L 382.16386 113.666902 
L 383.977572 116.110621 
L 385.791285 118.806581 
L 387.604997 121.782692 
L 389.41871 125.073512 
L 391.232423 128.723113 
L 393.046135 132.787622 
L 394.859848 137.340604 
L 396.67356 142.480413 
L 398.487273 148.342015 
L 398.487273 148.342015 
" clip-path="url(#p8c8f19061b)" style="fill: none; stroke-dasharray: 12.8,3.2,2,3.2; stroke-dashoffset: 0; stroke: #ff0000; stroke-width: 2"/>
   </g>
   <g id="patch_3">
    <path d="M 57.6 307.584 
L 57.6 41.472 
" style="fill: none; stroke: #000000; stroke-width: 0.8; stroke-linejoin: miter; stroke-linecap: square"/>
   </g>
   <g id="patch_4">
    <path d="M 414.72 307.584 
L 414.72 41.472 
" style="fill: none; stroke: #000000; stroke-width: 0.8; stroke-linejoin: miter; stroke-linecap: square"/>
   </g>
   <g id="patch_5">
    <path d="M 57.6 307.584 
L 414.72 307.584 
" style="fill: none; stroke: #000000; stroke-width: 0.8; stroke-linejoin: miter; stroke-linecap: square"/>
   </g>
   <g id="patch_6">
    <path d="M 57.6 41.472 
L 414.72 41.472 
" style="fill: none; stroke: #000000; stroke-width: 0.8; stroke-linejoin: miter; stroke-linecap: square"/>
   </g>
   <g id="text_15">
    <!-- Frequency: 2.4000000953674316 GHz -->
    <g transform="translate(120.649687 35.472) scale(0.12 -0.12)">
     <defs>
      <path id="DejaVuSans-46" d="M 628 4666 
L 3309 4666 
L 3309 4134 
L 1259 4134 
L 1259 2759 
L 3109 2759 
L 3109 2228 
L 1259 2228 
L 1259 0 
L 628 0 
L 628 4666 
z
" transform="scale(0.015625)"/>
      <path id="DejaVuSans-71" d="M 947 1747 
Q 947 1113 1208 752 
Q 1469 391 1925 391 
Q 2381 391 2643 752 
Q 2906 1113 2906 1747 
Q 2906 2381 2643 2742 
Q 2381 3103 1925 3103 
Q 1469 3103 1208 2742 
Q 947 2381 947 1747 
z
M 2906 525 
Q 2725 213 2448 61 
Q 2172 -91 1784 -91 
Q 1150 -91 751 415 
Q 353 922 353 1747 
Q 353 2572 751 3078 
Q 1150 3584 1784 3584 
Q 2172 3584 2448 3432 
Q 2725 3281 2906 2969 
L 2906 3500 
L 3481 3500 
L 3481 -1331 
L 2906 -1331 
L 2906 525 
z
" transform="scale(0.015625)"/>
      <path id="DejaVuSans-75" d="M 544 1381 
L 544 3500 
L 1119 3500 
L 1119 1403 
Q 1119 906 1312 657 
Q 1506 409 1894 409 
Q 2359 409 2629 706 
Q 2900 1003 2900 1516 
L 2900 3500 
L 3475 3500 
L 3475 0 
L 2900 0 
L 2900 538 
Q 2691 219 2414 64 
Q 2138 -91 1772 -91 
Q 1169 -91 856 284 
Q 544 659 544 1381 
z
M 1991 3584 
L 1991 3584 
z
" transform="scale(0.015625)"/>
      <path id="DejaVuSans-6e" d="M 3513 2113 
L 3513 0 
L 2938 0 
L 2938 2094 
Q 2938 2591 2744 2837 
Q 2550 3084 2163 3084 
Q 1697 3084 1428 2787 
Q 1159 2491 1159 1978 
L 1159 0 
L 581 0 
L 581 3500 
L 1159 3500 
L 1159 2956 
Q 1366 3272 1645 3428 
Q 1925 3584 2291 3584 
Q 2894 3584 3203 3211 
Q 3513 2838 3513 2113 
z
" transform="scale(0.015625)"/>
      <path id="DejaVuSans-3a" d="M 750 794 
L 1409 794 
L 1409 0 
L 750 0 
L 750 794 
z
M 750 3309 
L 1409 3309 
L 1409 2516 
L 750 2516 
L 750 3309 
z
" transform="scale(0.015625)"/>
      <path id="DejaVuSans-2e" d="M 684 794 
L 1344 794 
L 1344 0 
L 684 0 
L 684 794 
z
" transform="scale(0.015625)"/>
      <path id="DejaVuSans-34" d="M 2419 4116 
L 825 1625 
L 2419 1625 
L 2419 4116 
z
M 2253 4666 
L 3047 4666 
L 3047 1625 
L 3713 1625 
L 3713 1100 
L 3047 1100 
L 3047 0 
L 2419 0 
L 2419 1100 
L 313 1100 
L 313 1709 
L 2253 4666 
z
" transform="scale(0.015625)"/>
      <path id="DejaVuSans-39" d="M 703 97 
L 703 672 
Q 941 559 1184 500 
Q 1428 441 1663 441 
Q 2288 441 2617 861 
Q 2947 1281 2994 2138 
Q 2813 1869 2534 1725 
Q 2256 1581 1919 1581 
Q 1219 1581 811 2004 
Q 403 2428 403 3163 
Q 403 3881 828 4315 
Q 1253 4750 1959 4750 
Q 2769 4750 3195 4129 
Q 3622 3509 3622 2328 
Q 3622 1225 3098 567 
Q 2575 -91 1691 -91 
Q 1453 -91 1209 -44 
Q 966 3 703 97 
z
M 1959 2075 
Q 2384 2075 2632 2365 
Q 2881 2656 2881 3163 
Q 2881 3666 2632 3958 
Q 2384 4250 1959 4250 
Q 1534 4250 1286 3958 
Q 1038 3666 1038 3163 
Q 1038 2656 1286 2365 
Q 1534 2075 1959 2075 
z
" transform="scale(0.015625)"/>
      <path id="DejaVuSans-36" d="M 2113 2584 
Q 1688 2584 1439 2293 
Q 1191 2003 1191 1497 
Q 1191 994 1439 701 
Q 1688 409 2113 409 
Q 2538 409 2786 701 
Q 3034 994 3034 1497 
Q 3034 2003 2786 2293 
Q 2538 2584 2113 2584 
z
M 3366 4563 
L 3366 3988 
Q 3128 4100 2886 4159 
Q 2644 4219 2406 4219 
Q 1781 4219 1451 3797 
Q 1122 3375 1075 2522 
Q 1259 2794 1537 2939 
Q 1816 3084 2150 3084 
Q 2853 3084 3261 2657 
Q 3669 2231 3669 1497 
Q 3669 778 3244 343 
Q 2819 -91 2113 -91 
Q 1303 -91 875 529 
Q 447 1150 447 2328 
Q 447 3434 972 4092 
Q 1497 4750 2381 4750 
Q 2619 4750 2861 4703 
Q 3103 4656 3366 4563 
z
" transform="scale(0.015625)"/>
      <path id="DejaVuSans-47" d="M 3809 666 
L 3809 1919 
L 2778 1919 
L 2778 2438 
L 4434 2438 
L 4434 434 
Q 4069 175 3628 42 
Q 3188 -91 2688 -91 
Q 1594 -91 976 548 
Q 359 1188 359 2328 
Q 359 3472 976 4111 
Q 1594 4750 2688 4750 
Q 3144 4750 3555 4637 
Q 3966 4525 4313 4306 
L 4313 3634 
Q 3963 3931 3569 4081 
Q 3175 4231 2741 4231 
Q 1884 4231 1454 3753 
Q 1025 3275 1025 2328 
Q 1025 1384 1454 906 
Q 1884 428 2741 428 
Q 3075 428 3337 486 
Q 3600 544 3809 666 
z
" transform="scale(0.015625)"/>
      <path id="DejaVuSans-48" d="M 628 4666 
L 1259 4666 
L 1259 2753 
L 3553 2753 
L 3553 4666 
L 4184 4666 
L 4184 0 
L 3553 0 
L 3553 2222 
L 1259 2222 
L 1259 0 
L 628 0 
L 628 4666 
z
" transform="scale(0.015625)"/>
      <path id="DejaVuSans-7a" d="M 353 3500 
L 3084 3500 
L 3084 2975 
L 922 459 
L 3084 459 
L 3084 0 
L 275 0 
L 275 525 
L 2438 3041 
L 353 3041 
L 353 3500 
z
" transform="scale(0.015625)"/>
     </defs>
     <use xlink:href="#DejaVuSans-46"/>
     <use xlink:href="#DejaVuSans-72" x="50.269531"/>
     <use xlink:href="#DejaVuSans-65" x="89.132812"/>
     <use xlink:href="#DejaVuSans-71" x="150.65625"/>
     <use xlink:href="#DejaVuSans-75" x="214.132812"/>
     <use xlink:href="#DejaVuSans-65" x="277.511719"/>
     <use xlink:href="#DejaVuSans-6e" x="339.035156"/>
     <use xlink:href="#DejaVuSans-63" x="402.414062"/>
     <use xlink:href="#DejaVuSans-79" x="457.394531"/>
     <use xlink:href="#DejaVuSans-3a" x="509.324219"/>
     <use xlink:href="#DejaVuSans-20" x="543.015625"/>
     <use xlink:href="#DejaVuSans-32" x="574.802734"/>
     <use xlink:href="#DejaVuSans-2e" x="638.425781"/>
     <use xlink:href="#DejaVuSans-34" x="670.212891"/>
     <use xlink:href="#DejaVuSans-30" x="733.835938"/>
     <use xlink:href="#DejaVuSans-30" x="797.458984"/>
     <use xlink:href="#DejaVuSans-30" x="861.082031"/>
     <use xlink:href="#DejaVuSans-30" x="924.705078"/>
     <use xlink:href="#DejaVuSans-30" x="988.328125"/>
     <use xlink:href="#DejaVuSans-30" x="1051.951172"/>
     <use xlink:href="#DejaVuSans-39" x="1115.574219"/>
     <use xlink:href="#DejaVuSans-35" x="1179.197266"/>
     <use xlink:href="#DejaVuSans-33" x="1242.820312"/>
     <use xlink:href="#DejaVuSans-36" x="1306.443359"/>
     <use xlink:href="#DejaVuSans-37" x="1370.066406"/>
     <use xlink:href="#DejaVuSans-34" x="1433.689453"/>
     <use xlink:href="#DejaVuSans-33" x="1497.3125"/>
     <use xlink:href="#DejaVuSans-31" x="1560.935547"/>
     <use xlink:href="#DejaVuSans-36" x="1624.558594"/>
     <use xlink:href="#DejaVuSans-20" x="1688.181641"/>
     <use xlink:href="#DejaVuSans-47" x="1719.96875"/>
     <use xlink:href="#DejaVuSans-48" x="1797.458984"/>
     <use xlink:href="#DejaVuSans-7a" x="1872.654297"/>
    </g>
   </g>
   <g id="legend_1">
    <g id="patch_7">
     <path d="M 64.6 302.584 
L 129.2 302.584 
Q 131.2 302.584 131.2 300.584 
L 131.2 256.284 
Q 131.2 254.284 129.2 254.284 
L 64.6 254.284 
Q 62.6 254.284 62.6 256.284 
L 62.6 300.584 
Q 62.6 302.584 64.6 302.584 
z
" style="fill: #ffffff; opacity: 0.8; stroke: #cccccc; stroke-linejoin: miter"/>
    </g>
    <g id="line2d_28">
     <path d="M 66.6 262.484 
L 76.6 262.484 
L 86.6 262.484 
" style="fill: none; stroke: #000000; stroke-width: 2; stroke-linecap: square"/>
    </g>
    <g id="text_16">
     <!-- $|E|$ -->
     <g transform="translate(94.6 265.984) scale(0.1 -0.1)">
      <defs>
       <path id="DejaVuSans-7c" d="M 1344 4891 
L 1344 -1509 
L 813 -1509 
L 813 4891 
L 1344 4891 
z
" transform="scale(0.015625)"/>
       <path id="DejaVuSans-Oblique-45" d="M 1081 4666 
L 4031 4666 
L 3928 4134 
L 1606 4134 
L 1338 2753 
L 3566 2753 
L 3463 2222 
L 1234 2222 
L 909 531 
L 3284 531 
L 3181 0 
L 172 0 
L 1081 4666 
z
" transform="scale(0.015625)"/>
      </defs>
      <use xlink:href="#DejaVuSans-7c" transform="translate(0 0.578125)"/>
      <use xlink:href="#DejaVuSans-Oblique-45" transform="translate(33.691406 0.578125)"/>
      <use xlink:href="#DejaVuSans-7c" transform="translate(96.875 0.578125)"/>
     </g>
    </g>
    <g id="line2d_29">
     <path d="M 66.6 277.584 
L 76.6 277.584 
L 86.6 277.584 
" style="fill: none; stroke-dasharray: 7.4,3.2; stroke-dashoffset: 0; stroke: #008000; stroke-width: 2"/>
    </g>
    <g id="text_17">
     <!-- $|E_{CPRH}|$ -->
     <g transform="translate(94.6 281.084) scale(0.1 -0.1)">
      <defs>
       <path id="DejaVuSans-Oblique-43" d="M 4447 4306 
L 4319 3641 
Q 4019 3944 3683 4091 
Q 3347 4238 2956 4238 
Q 2422 4238 2017 3981 
Q 1613 3725 1319 3200 
Q 1131 2863 1032 2486 
Q 934 2109 934 1728 
Q 934 1091 1264 756 
Q 1594 422 2222 422 
Q 2656 422 3056 561 
Q 3456 700 3834 978 
L 3688 231 
Q 3316 72 2936 -9 
Q 2556 -91 2175 -91 
Q 1278 -91 773 396 
Q 269 884 269 1753 
Q 269 2309 461 2846 
Q 653 3384 1013 3828 
Q 1394 4300 1883 4525 
Q 2372 4750 3022 4750 
Q 3422 4750 3780 4639 
Q 4138 4528 4447 4306 
z
" transform="scale(0.015625)"/>
       <path id="DejaVuSans-Oblique-50" d="M 1081 4666 
L 2541 4666 
Q 3178 4666 3512 4369 
Q 3847 4072 3847 3500 
Q 3847 2731 3353 2303 
Q 2859 1875 1966 1875 
L 1172 1875 
L 806 0 
L 172 0 
L 1081 4666 
z
M 1613 4147 
L 1275 2394 
L 2069 2394 
Q 2606 2394 2893 2669 
Q 3181 2944 3181 3456 
Q 3181 3784 2986 3965 
Q 2791 4147 2438 4147 
L 1613 4147 
z
" transform="scale(0.015625)"/>
       <path id="DejaVuSans-Oblique-52" d="M 1613 4147 
L 1294 2491 
L 2106 2491 
Q 2584 2491 2879 2755 
Q 3175 3019 3175 3444 
Q 3175 3784 2976 3965 
Q 2778 4147 2406 4147 
L 1613 4147 
z
M 2772 2241 
Q 2972 2194 3105 2009 
Q 3238 1825 3413 1275 
L 3809 0 
L 3144 0 
L 2778 1197 
Q 2638 1659 2453 1815 
Q 2269 1972 1888 1972 
L 1191 1972 
L 806 0 
L 172 0 
L 1081 4666 
L 2503 4666 
Q 3150 4666 3495 4373 
Q 3841 4081 3841 3531 
Q 3841 3044 3547 2687 
Q 3253 2331 2772 2241 
z
" transform="scale(0.015625)"/>
       <path id="DejaVuSans-Oblique-48" d="M 1081 4666 
L 1716 4666 
L 1344 2753 
L 3634 2753 
L 4006 4666 
L 4641 4666 
L 3731 0 
L 3097 0 
L 3531 2222 
L 1241 2222 
L 806 0 
L 172 0 
L 1081 4666 
z
" transform="scale(0.015625)"/>
      </defs>
      <use xlink:href="#DejaVuSans-7c" transform="translate(0 0.578125)"/>
      <use xlink:href="#DejaVuSans-Oblique-45" transform="translate(33.691406 0.578125)"/>
      <use xlink:href="#DejaVuSans-Oblique-43" transform="translate(96.875 -15.828125) scale(0.7)"/>
      <use xlink:href="#DejaVuSans-Oblique-50" transform="translate(145.751953 -15.828125) scale(0.7)"/>
      <use xlink:href="#DejaVuSans-Oblique-52" transform="translate(187.963867 -15.828125) scale(0.7)"/>
      <use xlink:href="#DejaVuSans-Oblique-48" transform="translate(236.601562 -15.828125) scale(0.7)"/>
      <use xlink:href="#DejaVuSans-7c" transform="translate(291.972656 0.578125)"/>
     </g>
    </g>
    <g id="line2d_30">
     <path d="M 66.6 292.684 
L 76.6 292.684 
L 86.6 292.684 
" style="fill: none; stroke-dasharray: 12.8,3.2,2,3.2; stroke-dashoffset: 0; stroke: #ff0000; stroke-width: 2"/>
    </g>
    <g id="text_18">
     <!-- $|E_{CPLH}|$ -->
     <g transform="translate(94.6 296.184) scale(0.1 -0.1)">
      <defs>
       <path id="DejaVuSans-Oblique-4c" d="M 1075 4666 
L 1709 4666 
L 909 525 
L 3181 525 
L 3078 0 
L 172 0 
L 1075 4666 
z
" transform="scale(0.015625)"/>
      </defs>
      <use xlink:href="#DejaVuSans-7c" transform="translate(0 0.578125)"/>
      <use xlink:href="#DejaVuSans-Oblique-45" transform="translate(33.691406 0.578125)"/>
      <use xlink:href="#DejaVuSans-Oblique-43" transform="translate(96.875 -15.828125) scale(0.7)"/>
      <use xlink:href="#DejaVuSans-Oblique-50" transform="translate(145.751953 -15.828125) scale(0.7)"/>
      <use xlink:href="#DejaVuSans-Oblique-4c" transform="translate(187.963867 -15.828125) scale(0.7)"/>
      <use xlink:href="#DejaVuSans-Oblique-48" transform="translate(226.962891 -15.828125) scale(0.7)"/>
      <use xlink:href="#DejaVuSans-7c" transform="translate(282.333984 0.578125)"/>
     </g>
    </g>
   </g>
  </g>
 </g>
 <defs>
  <clipPath id="p8c8f19061b">
   <rect x="57.6" y="41.472" width="357.12" height="266.112"/>
  </clipPath>
 </defs>
</svg>
